<?xml version="1.0" encoding="UTF-8" standalone="no"?>
<!-- Created with Inkscape (http://www.inkscape.org/) -->
<svg width="67.732979mm" height="67.738106mm" viewBox="0 0 67.732979 67.738106" version="1.1" id="svg5" inkscape:version="1.1.1 (3bf5ae0d25, 2021-09-20)" sodipodi:docname="dibujo.svg" xmlns:inkscape="http://www.inkscape.org/namespaces/inkscape" xmlns:sodipodi="http://sodipodi.sourceforge.net/DTD/sodipodi-0.dtd" xmlns="http://www.w3.org/2000/svg" xmlns:svg="http://www.w3.org/2000/svg">
  <sodipodi:namedview id="namedview7" pagecolor="#ffffff" bordercolor="#666666" borderopacity="1.0" inkscape:pageshadow="2" inkscape:pageopacity="0.0" inkscape:pagecheckerboard="0" inkscape:document-units="mm" showgrid="false" inkscape:zoom="1.0230034" inkscape:cx="171.06493" inkscape:cy="88.465007" inkscape:window-width="1920" inkscape:window-height="1001" inkscape:window-x="-9" inkscape:window-y="-9" inkscape:window-maximized="1" inkscape:current-layer="layer1" fit-margin-top="0" fit-margin-left="0" fit-margin-right="0" fit-margin-bottom="0"/>
  <defs id="defs2"/>
  <g inkscape:label="Capa 1" inkscape:groupmode="layer" id="layer1" transform="translate(-47.501683,-146.84789)">
    <path id="path1158" style="fill:#000000;stroke-width:0.264583" d="m 47.736309,146.84793 c -0.05889,0.59609 -0.137356,1.13447 -0.234611,1.62058 v 3.00498 c 0.197082,-0.29893 0.388593,-0.62001 0.589113,-0.9958 0.89381,-1.67513 1.348555,-1.81581 1.481045,-0.45838 0.133262,1.3653 -0.740683,3.04126 -2.070158,4.34237 v 2.7218 c 0.257929,-0.10098 0.450738,-0.10064 0.571026,0.0196 0.310134,0.31014 0.07864,1.17165 -0.571026,2.31304 v 2.69699 0.97772 l 0.78238,-1.23404 c 1.327254,-2.09285 1.611532,-2.78878 2.155426,-5.28081 0.630864,-2.89052 0.741865,-3.1058 1.180806,-2.28927 l 0.338998,0.63097 0.284736,-0.74465 c 0.156485,-0.40966 0.280435,-0.88591 0.275437,-1.05834 -0.02502,-0.86115 -1.657631,-4.33903 -2.393138,-5.09788 l -0.838189,-0.86454 0.06046,-0.30438 z m 3.792535,0 c 0.0869,0.13868 0.147224,0.2514 0.262514,0.42065 0.488225,0.71672 1.984581,1.9606 2.358514,1.9606 0.07339,0 -0.440163,-0.59476 -1.141015,-1.32188 -0.38693,-0.40144 -0.670965,-0.74909 -0.880568,-1.05937 z m 1.683617,0 c 0.21721,0.41852 0.765043,0.96808 1.287259,1.19373 0.788813,0.34085 1.760985,0.1782 1.928048,-0.32298 0.04904,-0.14711 -0.724262,-0.54351 -1.532723,-0.87075 z m 4.365107,0 c 0.402487,0.19004 0.669089,0.3531 0.702799,0.45424 0.05706,0.17117 -0.39838,0.67442 -1.011822,1.11879 -1.477978,1.07064 -0.994106,1.0231 1.194758,-0.11782 1.908646,-0.99485 3.302333,-1.17181 4.939749,-0.62683 0.916049,0.30488 1.755947,0.91767 1.545127,1.12706 -0.0641,0.0637 -1.094589,-0.0136 -2.289783,-0.17157 -2.75613,-0.36439 -3.954894,-0.0175 -5.49579,1.5906 -0.602237,0.62849 -1.444673,1.23874 -1.872237,1.35651 -0.713115,0.19642 -0.773554,0.30526 -0.727604,1.31361 0.02755,0.60457 -0.06175,1.09916 -0.198437,1.09916 -0.399079,0 -0.28561,0.96214 0.15658,1.32912 0.312365,0.25924 0.556646,0.2668 1.070734,0.0326 0.852488,-0.38847 0.905889,-0.38326 0.905889,0.0909 0,0.21705 -0.238125,0.54377 -0.529167,0.72553 -0.291042,0.18176 -0.529167,0.47197 -0.529167,0.64544 0,0.17348 -0.252595,0.39561 -0.561205,0.49351 -0.535426,0.16994 -0.552907,0.28605 -0.377237,2.53163 0.183647,2.34757 0.03873,2.78521 -0.649058,1.95647 -0.571431,-0.68853 -0.79375,-0.4375 -0.79375,0.89659 0,2.43263 1.241288,3.03119 5.402771,2.60449 2.968342,-0.30436 4.417134,-0.0919 5.48132,0.80357 0.782614,0.65852 1.796798,2.43504 1.80971,3.16983 0.0092,0.52248 -0.372261,0.39346 -1.478981,-0.49919 -0.565711,-0.45628 -1.683205,-1.1409 -2.48357,-1.52136 -1.360074,-0.64654 -1.704477,-0.69143 -5.264793,-0.69143 h -3.809587 l -0.551389,-1.05833 c -0.383979,-0.73643 -0.563303,-1.60449 -0.588594,-2.85409 -0.0573,-2.82906 -0.441614,-2.59132 -0.722435,0.447 -0.156771,1.69611 0.189445,2.61623 1.30483,3.46697 0.500859,0.38203 0.832355,0.82069 0.736904,0.97513 -0.247491,0.40045 -3.004433,0.10341 -4.047815,-0.43614 -0.609433,-0.31516 -1.101746,-0.96533 -1.34462,-1.66605 v 2.21588 c 3.086025,1.29066 3.87542,1.42348 7.976774,1.36374 3.794376,-0.0553 4.164558,-0.0162 5.630148,0.59532 1.305568,0.54477 1.669571,0.8459 2.168859,1.7942 0.422759,0.80294 0.537262,1.31087 0.387056,1.71979 -0.263657,0.71778 -1.139005,0.88451 -1.617472,0.308 -0.522425,-0.62949 -2.671143,-1.65806 -4.410067,-2.11099 -0.841865,-0.21928 -2.662253,-0.3948 -4.095874,-0.3948 -2.968583,0 -5.141802,-0.6386 -6.033739,-1.77251 -0.0022,-0.003 -0.0035,-0.006 -0.0057,-0.008 v 1.70067 c 1.073118,0.47186 2.809089,1.13912 6.078182,2.33525 1.563516,0.57207 2.388484,1.18534 2.388484,1.77612 0,0.12433 -0.272867,0.49869 -0.606163,0.83199 -0.458695,0.45869 -1.025776,0.64536 -2.332675,0.7674 -2.356146,0.22002 -4.174543,0.90889 -5.527828,2.09548 v 9.76736 c 1.264396,-0.75038 2.656548,-1.84275 4.233333,-3.34346 0.945885,-0.90025 2.285338,-2.01155 2.976562,-2.46962 0.691224,-0.45807 1.781887,-1.18969 2.424142,-1.62626 1.320895,-0.89786 2.591213,-1.02852 3.215309,-0.33073 0.820222,0.91707 2.231903,2.95022 2.231903,3.21479 0,0.14864 -0.506015,0.40599 -1.124479,0.57154 -2.891628,0.77404 -6.269424,3.52758 -7.833114,6.38566 l -0.623215,1.13895 0.882631,-1.05833 c 2.097413,-2.5152 3.097372,-3.18301 2.773474,-1.85209 -0.396603,1.62966 -0.416428,1.87413 -0.180867,2.23656 0.214887,0.33064 0.34639,0.33325 0.93431,0.0186 0.926441,-0.49581 1.180611,-0.1776 1.464511,1.8309 0.128204,0.90702 0.50877,2.20416 0.845426,2.88251 0.519674,1.04713 0.872043,1.36042 2.332157,2.07584 1.786842,0.87551 3.704166,1.15312 3.704166,0.5364 0,-0.18738 -0.588864,-0.92008 -1.308446,-1.62884 -1.746197,-1.71994 -2.515114,-3.48498 -2.134238,-4.89944 0.154035,-0.57205 0.591085,-1.28452 0.971002,-1.58337 0.84632,-0.66567 1.269871,-0.69909 1.012341,-0.0801 -0.501099,1.20444 -0.444338,2.89146 0.143142,4.2571 0.658855,1.53155 2.784079,3.64897 3.927409,3.91294 1.893935,0.43728 4.267957,2.46878 4.267957,3.65249 0,0.51116 -0.370345,0.75714 -2.421041,1.60714 -1.970148,0.81661 -2.714606,1.2966 -3.995621,2.57762 -0.865801,0.8658 -1.665541,1.47296 -1.777669,1.34927 -0.112125,-0.1237 -0.471421,-1.38794 -0.798401,-2.80965 -0.467771,-2.03388 -0.736841,-2.69662 -1.260904,-3.10885 -0.366334,-0.28815 -0.810985,-0.524 -0.988055,-0.524 -0.177069,0 -1.130707,-0.71437 -2.119767,-1.5875 -0.98906,-0.87312 -1.897507,-1.5875 -2.01848,-1.5875 -0.297434,0 -1.180896,-1.78168 -1.41025,-2.84427 -0.102082,-0.47294 -0.280916,-0.8599 -0.397391,-0.8599 -0.328756,0 -2.252605,2.65325 -3.015322,4.1584 -0.712358,1.40577 -3.951599,4.45543 -4.422986,4.16409 -0.589928,-0.36459 0.0757,-2.58379 1.345655,-4.48603 0.918543,-1.37586 2.722978,-4.63021 2.567286,-4.63021 -0.188933,0 -2.95869,4.46998 -3.760494,6.06888 -0.272108,0.54261 -0.49812,1.24324 -0.661976,1.93012 v 2.56987 c 0.209682,-0.0401 1.55816,-1.26073 3.048394,-2.76366 1.515059,-1.52797 2.857862,-2.77812 2.983796,-2.77812 0.125936,0 0.603028,0.46502 1.059884,1.03352 0.540001,0.67196 1.272622,1.19396 2.094447,1.4919 2.135161,0.77409 4.135257,1.71028 4.664831,2.18333 1.40058,1.25107 2.350641,3.60323 2.32492,5.75572 -0.01911,1.60005 -0.427254,2.55963 -1.534789,3.60753 -1.353744,1.28084 -3.672647,1.705 -4.622456,0.84543 -0.454224,-0.41106 -0.452594,-0.46797 0.03049,-1.4149 0.276812,-0.54259 0.814234,-1.19019 1.194244,-1.43919 0.380013,-0.24899 0.78844,-0.71355 0.907955,-1.0325 0.182885,-0.48805 0.110916,-0.60076 -0.455271,-0.71209 -0.457317,-0.0899 -0.754388,-0.38647 -0.927592,-0.92605 -0.407054,-1.26811 -0.953151,-1.71979 -2.078943,-1.71979 -1.623769,0 -2.604492,1.31025 -2.604492,3.47886 0,1.92009 -1.544426,0.39267 -1.788004,-1.76837 -0.292052,-2.59107 1.565598,-4.23497 4.569746,-4.04368 1.791605,0.11408 1.956594,-0.12832 0.501264,-0.73639 -1.122119,-0.46885 -3.049596,-0.47527 -4.151686,-0.0134 -3.001468,1.25778 -4.412435,4.34183 -4.925279,10.76472 -0.01508,0.18885 -0.03929,0.34266 -0.05685,0.52039 h 1.612305 l 0.297656,-1.49604 c 0.502094,-2.52603 1.579332,-3.38901 2.375048,-1.90221 0.216733,0.40497 0.131908,0.67552 -0.41806,1.32912 -0.645203,0.76677 -0.670682,1.11764 -0.07441,2.06913 h 0.599445 c -0.25527,-0.37784 -0.393258,-0.69716 -0.393258,-0.95189 0,-0.65496 0.05547,-0.6822 1.124479,-0.55603 1.09025,0.12867 3.514466,0.93961 4.718058,1.50792 h 6.813539 c -0.129124,-0.0584 -0.258082,-0.11727 -0.419097,-0.19741 -0.472943,-0.23537 -0.859896,-0.57008 -0.859896,-0.74414 0,-0.43855 0.714526,-0.99074 1.029912,-0.79582 0.199609,0.12336 0.870341,1.28923 1.024744,1.73737 h 21.244698 c 0.582713,-0.2745 1.09561,-0.58954 1.270206,-0.79892 0.430159,-0.51586 0.439526,-0.51588 1.280025,0.0248 0.308255,0.1983 0.611608,0.46652 0.895554,0.77412 h 1.069184 c 0.07974,-0.35494 0.775157,-0.31404 2.328023,0 h 10.423143 c 2.9011,-0.984 3.34149,-1.39401 5.44824,-4.62246 1.13011,-1.73185 1.2142,-1.97847 1.2082,-3.57963 -0.007,-1.94543 -0.50612,-3.04537 -2.78691,-6.14588 -1.50691,-2.04849 -2.20282,-2.57841 -3.64164,-2.7714 -0.86917,-0.11659 -1.16412,-0.0195 -1.88051,0.62063 -0.4673,0.41755 -1.35102,1.59199 -1.9637,2.60966 -0.984722,1.63566 -1.309726,1.9503 -2.800864,2.71043 -2.863371,1.45966 -5.525503,1.02311 -9.901722,-1.62367 -1.330251,-0.80455 -2.910348,-1.6363 -3.510896,-1.84795 -1.072351,-0.37794 -1.100791,-0.37189 -1.605071,0.31987 -0.282411,0.38741 -0.591048,0.91271 -0.685747,1.16737 -0.273659,0.73555 -0.607666,0.55206 -1.444356,-0.79375 -2.21834,-3.56816 -3.074302,-5.51814 -3.367754,-7.67291 -0.213989,-1.57123 0.227084,-1.96217 0.596863,-0.52917 0.170532,0.66089 0.517687,1.0164 1.500167,1.53737 0.751202,0.39833 2.32651,1.78152 3.82044,3.3538 3.165549,3.33154 3.880726,3.61531 9.156546,3.63131 4.12827,0.0125 4.973262,-0.31721 6.709151,-2.61638 2.060523,-2.72914 3.992313,-3.15295 7.094663,-1.55701 1.60512,0.82572 1.9616,0.92228 2.3151,0.6289 0.2298,-0.19072 0.41755,-0.56323 0.41755,-0.82786 0,-0.87036 0.56022,-0.8505 1.50171,0.0532 1.07858,1.03532 2.13333,2.97956 2.63602,4.85862 0.42223,1.57817 0.47822,7.5028 0.0842,8.92142 -0.35413,1.2751 -1.44933,2.56166 -2.5833,3.03547 -0.40001,0.16713 -1.09657,0.64003 -1.70843,1.13999 h 1.49294 c 2.94658,-2.11185 3.70345,-3.85392 3.82509,-7.71065 0.10884,-3.45148 -0.29762,-5.2579 -1.93425,-8.5912 -0.943,-1.92058 -1.54379,-2.7474 -2.95383,-4.06642 -0.97349,-0.91065 -2.19696,-1.83842 -2.71869,-2.06189 -1.55683,-0.66681 -3.86361,-0.53574 -5.7826,0.32866 -0.91253,0.41105 -1.713654,0.69302 -1.780254,0.62632 -0.06664,-0.0666 0.196566,-1.01106 0.584977,-2.09858 0.701781,-1.96496 0.703549,-1.98954 0.29559,-3.95221 -0.2258,-1.08626 -0.841541,-2.98712 -1.368393,-4.22403 -1.02362,-2.40323 -1.192122,-3.90121 -0.622184,-5.53662 0.55452,-1.59119 0.886175,-1.25077 1.067637,1.09606 0.409098,5.2909 2.218447,8.95551 4.994527,10.11514 1.96063,0.819 2.2128,0.47286 0.49248,-0.67592 -3.38551,-2.26076 -4.825644,-5.61016 -4.023015,-9.35706 0.148005,-0.69095 0.255295,-0.49531 0.885735,1.61076 0.95432,3.18804 2.04146,4.78727 3.89124,5.7242 0.79008,0.40018 1.8176,0.7276 2.28306,0.7276 1.11887,0 2.68963,-0.67548 3.76411,-1.6185 1.02945,-0.9035 1.37976,-0.95872 1.37976,-0.21653 0,0.70889 -0.42634,1.52331 -1.27382,2.4319 -0.52264,0.56031 -0.60825,0.80147 -0.36845,1.04127 0.2398,0.23981 0.21854,0.41642 -0.093,0.76068 -0.37212,0.4112 -0.33226,0.46168 0.48473,0.61495 1.29533,0.24301 2.74425,-0.13291 4.42556,-1.13068 v -9.76685 c -0.18485,0.16212 -0.36204,0.33235 -0.52968,0.51315 -0.65523,0.70669 -1.28031,1.2852 -1.38906,1.2852 -0.38599,0 -0.18831,-1.28424 0.46405,-3.01739 0.86093,-2.28729 0.83426,-3.36268 -0.13281,-5.40691 -0.74873,-1.58259 -0.9745,-2.42362 -0.6506,-2.42362 0.0786,0 0.47437,0.24446 0.87901,0.54363 0.24966,0.18458 0.71307,0.41511 1.35909,0.69919 v -1.70119 c -0.67957,-0.86978 -0.72144,-1.79573 -0.0656,-1.52084 0.0239,0.01 0.042,0.017 0.0656,0.0269 v -2.21692 c -0.15396,-0.44473 -0.20918,-0.90909 -0.12402,-1.32291 0.13045,-0.63393 0.0816,-0.60253 -0.38964,0.24959 -0.29655,0.53627 -0.65926,1.04919 -0.80615,1.13999 -0.34605,0.21392 -0.34356,1.75115 0.005,2.66702 0.31389,0.82556 0.23834,0.98383 -0.3607,0.75395 -0.77562,-0.29762 -1.54206,-1.88838 -1.55236,-3.22202 l -0.01,-1.25574 -0.29921,0.84078 c -0.43495,1.22333 -0.60866,1.28612 -1.07332,0.38757 -0.96469,-1.86549 -0.22654,-4.23106 2.02158,-6.47867 1.21965,-1.21937 2.05566,-1.8999 2.58899,-2.10892 v -2.72128 c -0.81238,0.79492 -1.79377,1.45053 -2.82256,1.80713 -2.02469,0.70178 -3.63079,2.08454 -4.85345,4.17804 -0.59306,1.01546 -1.1326,1.8464 -1.1989,1.8464 -0.35248,0 -0.0363,-1.65197 0.53434,-2.7926 0.86188,-1.7227 2.49108,-3.36887 4.76922,-4.81883 1.9544,-1.24391 2.81378,-1.95948 3.57135,-3.10833 v -3.00292 c -0.53213,2.65653 -1.74601,3.87102 -4.98367,5.49889 -2.33091,1.17196 -4.03531,2.73832 -4.95577,4.55476 -0.77941,1.53809 -1.01377,1.69359 -1.76062,1.17047 -0.8426,-0.59018 -2.27602,-0.51042 -3.30522,0.18345 -1.049053,0.70729 -1.256103,1.34768 -1.030432,3.18947 0.492138,4.01618 0.498673,4.9428 0.04237,6.13761 -0.598059,1.56601 -1.143558,1.53245 -2.058789,-0.12712 -0.92438,-1.67618 -1.598792,-2.09948 -4.092773,-2.57039 -3.445108,-0.6505 -3.876744,-0.46498 -13.111343,5.64978 -6.605621,4.37397 -7.467348,4.87194 -8.069275,4.66018 -0.552035,-0.19421 -0.37673,-0.76096 0.595312,-1.92442 1.009481,-1.20828 1.20859,-2.11812 0.463021,-2.11512 -0.653116,0.002 -1.727663,0.76257 -2.948657,2.08514 -1.161185,1.25779 -1.799913,1.33735 -2.337842,0.29197 -0.397383,-0.77225 -0.346205,-4.39239 0.06098,-4.30929 0.145521,0.0297 0.64896,0.2036 1.118796,0.38654 0.751409,0.29257 0.937535,0.27039 1.544609,-0.18604 0.379581,-0.28539 1.51752,-2.00574 2.528527,-3.82302 2.450047,-4.40396 4.133771,-6.09762 5.677173,-5.71025 0.827219,0.20762 1.140663,0.8567 1.341003,2.77348 0.14414,1.37903 0.07482,1.77285 -0.526584,2.98845 -0.381019,0.77013 -1.408602,2.2934 -2.283582,3.3848 -0.874969,1.09141 -1.591667,2.07367 -1.592667,2.18281 -0.01049,1.12008 4.452451,-3.40279 6.73654,-6.82697 0.8685,-1.30201 1.950297,-3.34971 2.403989,-4.55063 0.453678,-1.20091 0.896302,-2.25487 0.9834,-2.34197 0.08712,-0.0871 0.511789,0.53811 0.944129,1.38958 1.32834,2.61609 3.050873,3.79718 5.538163,3.79718 1.777521,0 3.705553,-1.01839 5.159893,-2.72541 0.653151,-0.76663 2.132492,-3.27614 3.340889,-5.66787 2.44696,-4.84322 2.62228,-5.0353 7.03781,-7.69928 0.8104,-0.48893 1.47739,-0.93473 2.08463,-1.36994 h -1.49294 c -0.14497,0.11846 -0.2906,0.2376 -0.42012,0.35554 -0.67618,0.6157 -1.89766,1.61252 -2.71405,2.21485 -0.8164,0.60233 -2.05115,1.75834 -2.74402,2.56935 -0.69288,0.81102 -1.35259,1.47485 -1.46606,1.47485 -0.11347,0 -0.44267,-0.4003 -0.73122,-0.88936 -0.288556,-0.48905 -0.925786,-1.19516 -1.416456,-1.56941 -1.07056,-0.81656 -4.897422,-2.39276 -5.262211,-2.16731 -0.142121,0.0879 -0.188005,0.60108 -0.101803,1.13998 0.12415,0.77637 0.04564,1.08046 -0.379304,1.46503 -0.768181,0.6952 -1.099159,0.33269 -1.099159,-1.20458 0,-0.90118 -0.181927,-1.63736 -0.554487,-2.24017 -0.343104,-0.55515 -0.52016,-0.92664 -0.470257,-1.14877 h -1.069184 c 0.879879,0.95317 1.565277,2.30045 1.565277,3.24683 0,1.10911 -0.429985,1.64338 -2.901114,3.60909 -0.72845,0.57945 -1.358913,1.40912 -1.759582,2.3151 -0.34344,0.7766 -0.68136,1.41232 -0.750858,1.41232 -0.221171,0 -0.605364,-0.89536 -0.794785,-1.85209 -0.100848,-0.50932 -0.235072,-1.11252 -0.298172,-1.33997 -0.159321,-0.57459 -3.026606,-2.62372 -5.390885,-3.85248 l -1.973525,-1.02526 1.050584,-0.0786 c 0.578019,-0.0431 1.814923,0.15966 2.748153,0.45011 1.765808,0.54959 2.132684,0.52601 2.132684,-0.13591 0,-1.04151 0.812787,-1.92468 2.274798,-2.47169 0.218908,-0.0819 0.438994,-0.17733 0.65164,-0.2775 H 65.16674 c 0.01941,0.0563 0.06201,0.144 0.06201,0.1726 0,0.14135 -0.279678,0.08 -0.837674,-0.1726 z m 35.676892,0 c 0.232154,0.047 0.455107,0.0914 0.727604,0.15038 5.133491,1.11215 5.917258,1.11097 9.297106,-0.0134 0.14824,-0.0493 0.26168,-0.0906 0.39843,-0.13695 z m 18.13326,0.83302 c -0.35885,0.0367 -0.68439,0.24557 -1.15962,0.64545 -0.60516,0.5092 -0.8139,0.90855 -0.8139,1.55545 0,1.14926 -0.66532,2.69915 -1.30535,3.04168 -0.68743,0.36794 -2.47786,0.34773 -3.32383,-0.0377 -0.89495,-0.40776 -1.30612,0.0154 -2.74556,2.82566 l -1.08418,2.11667 0.98805,0.16071 c 1.92649,0.31364 2.1482,0.26931 2.55282,-0.51314 1.08551,-2.09914 3.31971,-4.00975 5.57951,-4.77129 1.55383,-0.52363 2.72217,-1.37976 3.17344,-2.32492 0.6223,-1.30332 0.5075,-1.83205 -0.50177,-2.31097 -0.60878,-0.28889 -1.00076,-0.42432 -1.35961,-0.38758 z m -22.762433,0.014 c -0.227452,-0.003 -0.525648,0.0649 -0.981853,0.20102 -2.8546,0.85168 -3.185957,1.57963 -1.711008,3.75533 0.47294,0.69764 0.969973,1.27137 1.104842,1.27537 0.54034,0.015 3.085981,-1.9813 3.223059,-2.52749 0.158922,-0.63319 -0.400579,-1.92345 -1.077968,-2.48564 -0.172792,-0.14339 -0.329621,-0.21596 -0.557072,-0.21859 z m -19.734713,0.5395 c 0.455062,0.0377 1.825091,0.6692 2.009696,0.9679 0.31683,0.51264 -0.802712,0.31863 -1.548744,-0.2682 -0.391091,-0.30764 -0.658461,-0.61226 -0.593762,-0.67696 0.02155,-0.0215 0.0678,-0.0281 0.13281,-0.0227 z m -8.350911,0.99477 c 1.223452,0 1.172803,0.21745 -0.118856,0.5116 -0.484471,0.11033 -1.178224,0.28465 -1.542026,0.38757 l -0.661459,0.18707 0.624253,-0.54312 c 0.409247,-0.35587 0.994995,-0.54312 1.698088,-0.54312 z m -3.443203,2.42724 c 0.09356,0.0189 0.108268,0.13541 0.03411,0.32867 -0.08843,0.23044 -0.277019,0.41909 -0.419095,0.41909 -0.347766,0 -0.129895,-0.60146 0.265615,-0.73329 0.04834,-0.0161 0.08819,-0.0208 0.119372,-0.0145 z m 1.665534,0.0584 c 0.07193,-0.015 0.116787,0.009 0.116787,0.077 0,0.13553 -0.174953,0.47769 -0.388607,0.76016 -0.326345,0.4315 -0.389774,0.44496 -0.396875,0.0832 -0.0046,-0.23683 0.170325,-0.57899 0.388607,-0.76015 0.10914,-0.0906 0.208153,-0.14516 0.280088,-0.1602 z m 8.099245,0.48059 c 0.612838,-0.006 2.130689,0.16738 3.262333,0.39997 l 0.79375,0.16279 -0.661458,0.19378 c -0.363802,0.10635 -0.840052,0.19974 -1.058333,0.20774 -0.470461,0.0175 -2.343902,-0.62628 -2.599841,-0.89348 -0.04453,-0.0465 0.05927,-0.0687 0.263549,-0.0708 z m 13.844635,0.97565 c 0.247888,-0.0324 0.799189,0.27888 1.244883,0.75448 1.91825,2.04697 2.552385,5.66954 1.470194,8.4 -0.373459,0.94227 -0.810768,1.62157 -1.076418,1.67277 -0.523171,0.10075 -0.561271,-0.261 -0.148312,-1.40302 0.261411,-0.72291 0.20337,-1.02244 -0.463021,-2.38848 -0.419039,-0.859 -1.095658,-1.80302 -1.503267,-2.09807 -1.042702,-0.75477 -3.312715,-0.7083 -5.162476,0.10594 -1.328401,0.58475 -1.430522,0.59401 -1.852083,0.16433 -0.419256,-0.42734 -0.400717,-0.49169 0.310057,-1.06505 2.22327,-1.79344 5.720612,-1.50709 8.438764,0.69091 0.531767,0.43001 0.807109,0.51014 1.020609,0.29663 0.43557,-0.43557 -0.100163,-1.80505 -1.352373,-3.45561 -0.58184,-0.76693 -1.057817,-1.45155 -1.057817,-1.52135 0,-0.0937 0.04863,-0.14268 0.13126,-0.15348 z m -31.235303,0.30386 c 0.319349,-0.0497 0.417957,0.34608 0.360701,1.22369 -0.08999,1.37929 -0.332746,1.57344 -1.205611,0.96584 -0.754856,-0.52547 -0.750374,-0.90532 0.01757,-1.62678 0.364839,-0.34274 0.63573,-0.53291 0.82734,-0.56275 z m 25.894543,0.22841 c 1.243742,-0.0625 2.080294,0.22596 1.985409,0.89141 -0.06669,0.46771 -0.482764,0.72203 -2.083594,1.27435 -1.100082,0.37955 -2.31027,0.89321 -2.689243,1.14153 -0.64321,0.42145 -1.528072,1.86849 -1.528072,2.49855 0,0.47094 0.600554,1.62626 0.845426,1.62626 0.127283,0 0.104084,-0.23813 -0.05168,-0.52916 -0.201343,-0.37619 -0.201388,-0.68264 5.18e-4,-1.05989 0.231611,-0.43281 0.465188,-0.50362 1.266071,-0.38499 0.736762,0.10914 1.307092,-0.0231 2.283582,-0.52813 1.662009,-0.85953 3.202117,-0.8838 4.410067,-0.0698 1.01908,0.68675 1.554628,1.58729 1.560629,2.62258 0.0056,1.02652 -0.421042,1.14198 -1.34462,0.36484 -0.761352,-0.6406 -1.586154,-0.82767 -3.149164,-0.71468 -0.94779,0.0685 -2.23648,1.62911 -3.633369,4.40024 -0.660197,1.30968 -1.664957,3.06587 -2.232938,3.90261 -1.014812,1.49501 -1.683917,1.88544 -1.966807,1.14825 -0.173847,-0.45304 0.527572,-1.89937 1.358575,-2.8019 1.059026,-1.15017 0.96692,-1.9693 -0.272336,-2.41742 -0.509323,-0.18417 -0.926041,-0.48946 -0.926041,-0.67851 0,-0.78917 -0.838838,-0.11171 -1.748214,1.41231 -0.273454,0.45829 -0.361037,0.42992 -1.325501,-0.43408 -0.567894,-0.50875 -1.328873,-1.122 -1.691368,-1.36271 l -0.658876,-0.4377 0.776698,-0.3023 c 0.427455,-0.1662 1.260893,-0.26686 1.852083,-0.22376 l 1.075386,0.0786 v -1.16737 c 0,-1.09011 -0.04844,-1.16962 -0.729155,-1.19942 -1.010996,-0.0442 -1.797785,-0.92694 -1.969905,-2.21019 -0.123459,-0.92046 -0.247261,-1.09474 -0.826822,-1.16324 -0.932294,-0.11014 -1.786904,-1.54863 -1.376143,-2.31614 0.369115,-0.6897 1.368642,-0.70135 1.982308,-0.0232 0.647647,0.71564 2.122099,1.15599 3.327961,0.99425 0.554466,-0.0744 1.927061,-0.57743 3.050461,-1.11776 1.533792,-0.73772 3.184927,-1.1509 4.42867,-1.21336 z m -7.688938,0.20515 c 1.346068,0.0421 2.550917,0.0776 2.677875,0.0796 0.573886,0.008 -0.514501,0.79897 -1.616956,1.17461 -1.595223,0.54355 -1.974808,0.52613 -2.811198,-0.13178 -1.259642,-0.99083 -0.924116,-1.20601 1.750279,-1.12241 z m 7.082256,0.6372 c -1.219094,0.0265 -2.413373,0.55568 -3.636986,1.60766 -1.351608,1.16203 -1.899582,1.92542 -1.914613,2.66702 -0.01607,0.79342 0.357286,0.49805 1.181323,-0.93483 0.770882,-1.34046 0.866166,-1.40695 3.307291,-2.30632 2.282201,-0.84081 2.428312,-0.93451 1.5875,-1.01441 -0.175315,-0.0167 -0.350358,-0.0229 -0.524515,-0.0191 z M 59.10719,155.9937 c 0.08744,0.014 0.155176,0.11406 0.243914,0.28318 0.327618,0.62442 -0.0143,1.56105 -0.704866,1.93063 -0.602485,0.32239 -1.00167,0.33146 -1.751832,0.0383 -0.513742,-0.20082 -0.512006,-0.21245 0.05995,-0.39429 0.32402,-0.10302 0.937639,-0.61014 1.36374,-1.12707 0.443211,-0.53769 0.643371,-0.75411 0.789098,-0.7307 z m 56.12732,3.42356 c -0.26446,0.46451 -0.59096,0.97054 -0.9896,1.51205 -1.10889,1.50633 -1.1398,1.58716 -0.35657,0.92811 1.12643,-0.94782 1.34387,-0.9105 1.34617,0.23926 z m -12.95424,0.22272 c 0.45455,0.0586 0.80989,0.31654 0.92965,0.79375 0.0847,0.33739 -0.11376,1.61591 -0.44079,2.84066 -0.32705,1.22474 -0.60279,2.88664 -0.61289,3.69331 -0.0193,1.54084 -0.33649,2.23047 -1.60765,3.49436 -0.40248,0.40018 -0.834471,0.72761 -0.96015,0.72761 -0.386318,0 -0.255752,-1.01332 0.356568,-2.76779 l 0.584982,-1.67639 -0.624773,-2.55643 -0.624252,-2.55695 0.526068,-0.71158 c 0.681787,-0.92144 1.715637,-1.37816 2.473237,-1.28055 z m -46.732551,0.0548 c 0.268756,-0.0579 0.701709,0.15563 1.358572,0.62736 1.497266,1.07525 2.790589,1.60713 3.907255,1.60713 0.944957,0 1.956933,0.80282 1.646928,1.30586 -0.254214,0.41137 -4.602776,0.33472 -5.598623,-0.0987 -1.06228,-0.46233 -1.687237,-1.36687 -1.687237,-2.44119 0,-0.61333 0.104349,-0.94252 0.373105,-1.00046 z m 30.351634,2.44171 c -0.187047,0.06 -0.32817,0.40787 -0.457335,1.05369 -0.13694,0.6847 -0.07455,0.87751 0.325562,1.00355 0.27241,0.0858 0.852766,0.31808 1.289325,0.51625 0.979141,0.44445 1.118984,0.45936 1.315683,0.14108 0.08599,-0.13912 -0.143134,-0.44912 -0.509013,-0.68885 -0.365879,-0.23973 -0.920422,-0.849 -1.232482,-1.35392 -0.311677,-0.50431 -0.544693,-0.73184 -0.73174,-0.6718 z m -36.651509,0.0868 c -0.147037,0.0376 -0.337589,0.33283 -0.569473,0.8878 -0.497644,1.19103 -0.486106,2.11684 0.03255,2.6355 0.740167,0.74017 0.907439,0.45166 0.907439,-1.56838 0,-1.36379 -0.125455,-2.0176 -0.37052,-1.95492 z m 63.872066,0.50385 c -0.0101,-0.0223 -0.11812,0.0584 -0.33228,0.22634 -0.25465,0.19972 -0.46302,0.48779 -0.46302,0.63975 0,0.15194 0.0332,0.22648 0.0744,0.16588 0.0412,-0.0606 0.24953,-0.34819 0.46302,-0.63923 0.1795,-0.24474 0.26793,-0.37043 0.25786,-0.39274 z m -15.554601,0.52503 c -0.245531,0 -1.644862,1.39276 -1.644862,1.63711 0,0.11828 0.34975,0.21497 0.777732,0.21497 0.427969,0 0.857012,0.12695 0.952913,0.28215 0.09592,0.15512 0.233841,0.22247 0.30644,0.14987 0.175641,-0.17564 -0.186423,-2.2841 -0.392223,-2.2841 z m -19.992578,1.90169 c -1.014241,-0.20361 -4.460672,4.55898 -4.05815,5.60793 0.386778,1.00793 2.246362,0.0523 3.619934,-1.86035 0.69615,-0.96936 0.902205,-1.52302 0.912606,-2.45102 0.01078,-0.95959 -0.08365,-1.21816 -0.47439,-1.29656 z m 29.577519,0.0264 c 0.0277,-0.003 0.0567,0.0102 0.0878,0.0413 0.34465,0.34464 1.11704,2.68064 1.11725,3.37912 2.2e-4,0.73555 -0.88051,1.50259 -1.17616,1.02422 -0.46383,-0.75046 -0.44419,-4.40215 -0.0289,-4.44468 z m -1.98747,0.67076 c 0.19203,0.0236 0.19147,0.46572 -0.002,1.32705 -0.33609,1.49576 -1.04392,2.85774 -2.83859,5.46013 -1.94454,2.81969 -1.99751,2.86379 -1.83296,1.54564 0.18344,-1.4694 1.17204,-3.57508 2.97915,-6.34742 0.88241,-1.35375 1.44757,-2.01575 1.69447,-1.9854 z m -36.505267,0.84077 c 0.248606,0 0.540018,0.65386 0.540018,1.21233 0,0.42949 -0.680019,0.50859 -0.927593,0.108 -0.203136,-0.32867 0.0879,-1.32033 0.387575,-1.32033 z m 22.720059,1.33325 c 0.535543,-1e-4 1.035151,0.0772 1.453142,0.23617 0.3571,0.13576 1.076579,0.6225 1.598869,1.08107 0.773891,0.67949 1.09455,0.8018 1.731161,0.66197 0.6305,-0.13848 0.839957,-0.0618 1.086236,0.39843 0.415632,0.77662 -0.07909,1.93514 -1.013891,2.37453 -0.412689,0.19398 -0.571624,0.38412 -0.379304,0.45372 0.51611,0.18672 0.389737,0.79573 -0.264583,1.27537 l -0.595313,0.43667 0.661459,-0.19327 c 0.363799,-0.1062 0.809439,-0.24888 0.990121,-0.31678 0.54143,-0.20345 0.672086,0.63531 0.324527,2.08411 -0.356079,1.48429 -1.533827,3.00593 -3.054077,3.9455 -0.864511,0.53434 -0.921967,0.53748 -1.680517,0.0894 -1.68733,-0.99673 -2.941664,0.57381 -3.140895,3.93309 -0.06689,1.12779 -0.222256,2.05052 -0.345716,2.05052 -0.123467,0 -0.418002,-0.29525 -0.654222,-0.65577 -1.174059,-1.79184 -0.898398,-4.32964 0.646473,-5.95364 1.165349,-1.22504 2.108523,-1.51442 3.470071,-1.06505 1.12658,0.3718 1.592151,0.21443 1.592151,-0.53744 0,-0.57838 -0.743132,-1.11242 -2.182812,-1.5689 -0.545701,-0.17302 -0.992188,-0.41938 -0.992188,-0.54777 0,-0.23105 1.367825,-0.68449 2.645834,-0.87695 0.363799,-0.0547 -0.114692,-0.11559 -1.063501,-0.13539 -2.98336,-0.0623 -7.469812,1.52313 -9.598382,3.39204 -1.063329,0.93362 -2.488187,3.50391 -2.993099,5.40019 -0.48836,1.83417 -0.46532,5.56343 0.04496,7.28173 0.475588,1.60121 0.430673,1.95101 -0.205156,1.59215 -0.24975,-0.14096 -0.771736,-1.23479 -1.160137,-2.43086 -1.284229,-3.95474 -0.808233,-8.09907 1.340488,-11.66647 2.25566,-3.74494 5.374436,-6.77048 8.634098,-8.37572 2.35331,-1.15891 3.239222,-1.00411 4.790921,0.83612 0.619411,0.7346 1.366594,1.45858 1.660364,1.60869 0.490241,0.25049 -1.13193,-1.6228 -2.376599,-2.74453 -0.921771,-0.83072 -2.294927,-1.0689 -3.569809,-0.61909 -2.294088,0.8094 -2.413518,0.22806 -0.167946,-0.81752 0.88216,-0.41075 1.874699,-0.62615 2.767271,-0.62632 z m 15.393888,2.6355 c 0.1437,0 0.26149,0.66232 0.26149,1.47226 0,1.70404 0.33584,2.49649 1.05833,2.49649 0.83083,0 1.05344,0.84123 1.11725,4.2168 0.0337,1.78216 0.16753,3.15995 0.3023,3.11505 0.38868,-0.12956 2.23165,-3.32391 2.81068,-4.87153 0.29258,-0.78199 0.53389,-1.80422 0.53589,-2.2717 0.002,-0.46749 0.12129,-1.02867 0.26458,-1.24695 0.23158,-0.35278 0.28984,-0.35278 0.52142,0 0.41694,0.63514 0.3103,1.99034 -0.27234,3.46852 -0.29733,0.75434 -0.77829,2.39589 -1.06918,3.64784 -0.62534,2.69142 -1.44485,4.05365 -2.87786,4.78472 -1.2167,0.62071 -3.42688,0.69872 -4.64055,0.16382 -1.86737,-0.823 -3.12778,-2.80643 -3.62458,-5.70353 -0.24946,-1.45499 -0.24972,-2.20144 -0.003,-3.37964 0.35517,-1.69331 1.56764,-3.86056 2.23139,-3.98839 0.37568,-0.0724 0.41676,0.12659 0.29972,1.45366 l -0.1359,1.53737 0.56017,-0.66145 c 0.30793,-0.36381 0.9733,-1.46513 1.47898,-2.4474 0.50567,-0.98226 1.03711,-1.78594 1.1808,-1.78594 z m -18.484139,1.05937 c -0.647769,0.004 -5.066874,3.7229 -5.066874,4.26434 0,0.1318 0.386945,0.074 0.859896,-0.12816 1.72334,-0.73654 2.212888,-0.91446 3.836458,-1.39681 0.9095,-0.2702 1.653646,-0.57404 1.653646,-0.6749 0,-0.30111 -1.096685,-2.06547 -1.283126,-2.06447 z m -40.608374,1.07694 c -0.05024,0.0618 -0.03753,0.97586 0.02791,2.03088 0.06544,1.05503 0.13508,1.9183 0.15503,1.91823 0.01996,-8e-5 0.691533,-0.25009 1.491898,-0.55552 0.800364,-0.30543 2.219198,-0.63291 3.153296,-0.72761 2.032151,-0.20598 2.375329,-0.69054 0.766363,-1.0821 -0.627877,-0.15281 -2.122953,-0.59688 -3.32228,-0.98702 -1.199325,-0.39014 -2.221971,-0.65877 -2.272213,-0.59686 z m 8.746755,0.50953 c 0.572267,0 1.174623,0.72834 1.088821,1.31671 -0.09217,0.63208 -0.597905,1.00752 -0.829405,0.61547 -0.282504,-0.47841 -0.477729,-1.93218 -0.259416,-1.93218 z m 4.027659,0.2837 c 0.111003,0.0342 0.321069,0.17805 0.54002,0.3762 0.539874,0.48858 0.65949,1.07889 0.37052,1.83193 -0.333275,0.8685 -0.844524,0.42089 -0.957048,-0.83819 -0.06177,-0.69122 -0.07413,-1.30559 -0.02791,-1.36529 0.01156,-0.0149 0.03741,-0.0161 0.07441,-0.005 z m -1.62419,0.51005 c 0.816248,0 1.112351,1.54484 0.427366,2.22983 -0.512919,0.51291 -1.43609,0.54579 -1.43609,0.0512 0,-0.54264 0.768723,-2.28099 1.008724,-2.28099 z m 22.35626,0.66145 -0.468188,0.72761 c -0.48283,0.75024 -0.671796,0.89193 -0.671796,0.50384 0,-0.12297 0.256421,-0.45038 0.569992,-0.7276 z m 13.38988,0.16485 c -0.09192,-0.004 -0.196472,0.013 -0.291973,0.0512 -0.211059,0.0844 -0.148551,0.14698 0.159681,0.15968 0.27886,0.0115 0.435165,-0.0511 0.347266,-0.13901 -0.04396,-0.044 -0.123061,-0.068 -0.214974,-0.0718 z m 0.838708,1.15394 c -0.04726,0.006 -0.09964,0.0194 -0.153996,0.0403 -0.2174,0.0834 -0.32798,0.2601 -0.24598,0.39274 0.171471,0.27744 0.641821,0.0548 0.641821,-0.30385 0,-0.0993 -0.100071,-0.14692 -0.241845,-0.12919 z m -25.162288,0.5674 c 0.250508,-0.0445 0.444426,0.1062 0.778764,0.53124 0.725802,0.92271 0.698968,1.07004 -0.31161,1.6862 -1.011058,0.61645 -1.746187,0.67454 -1.946135,0.15348 -0.190886,-0.49745 0.566939,-1.92432 1.202513,-2.26446 0.103293,-0.0553 0.192966,-0.0916 0.276468,-0.10646 z m -19.055686,1.68569 c 0.77293,0 0.45529,0.42579 -0.79168,1.06195 -1.197092,0.61071 -1.616269,0.66387 -1.430923,0.18087 0.18596,-0.48461 1.541862,-1.24282 2.222603,-1.24282 z m 23.531899,0.28163 c 0.467942,-0.0798 0.277487,0.72068 -0.385509,2.64842 -0.371609,1.08052 -0.744055,2.74635 -0.827854,3.70158 -0.139031,1.58508 -0.0456,2.04717 1.072284,5.29322 0.673683,1.95622 1.225249,3.76421 1.225249,4.01785 0,0.91798 -0.497255,0.40879 -2.453595,-2.5151 -1.095372,-1.63711 -2.777273,-3.73083 -3.737758,-4.65243 -0.960485,-0.9216 -1.746147,-1.82195 -1.746147,-2.00091 0,-0.17896 0.357187,-0.66746 0.79375,-1.08572 0.436562,-0.41825 0.79375,-0.9884 0.79375,-1.26659 0,-0.55897 1.443903,-2.0407 1.98851,-2.0407 0.18982,0 0.94723,-0.47626 1.683618,-1.05833 0.794869,-0.62831 1.312934,-0.99338 1.593702,-1.04129 z m 20.87676,2.72852 c 0.740862,-0.13686 1.243946,0.63833 2.366782,3.3538 1.689759,4.0865 1.681462,5.00488 -0.06925,7.54683 -1.12916,1.6395 -2.789645,2.87346 -4.795573,3.5636 -1.091912,0.37567 -2.160297,0.5105 -3.908806,0.493 -3.82024,-0.0382 -6.405674,-0.99145 -7.600053,-2.80293 -0.49706,-0.75387 -0.659726,-1.67098 -0.296106,-1.67019 0.109141,2.6e-4 1.150935,0.71439 2.315104,1.58699 1.882659,1.41116 2.2538,1.58645 3.355351,1.58698 0.681159,2.6e-4 2.16944,-0.28757 3.307291,-0.63975 1.137851,-0.35218 2.60178,-0.78167 3.253031,-0.95447 0.738391,-0.19593 1.560002,-0.69028 2.182813,-1.3131 0.929359,-0.92937 0.998804,-1.1066 0.995804,-2.55126 -0.0034,-1.81919 -0.494723,-3.59865 -1.438153,-5.20847 -0.88582,-1.51158 -0.886931,-2.47671 -0.0031,-2.87941 0.118028,-0.0538 0.229026,-0.0921 0.334862,-0.11162 z m -23.218738,1.2299 c -0.241001,0.0112 -2.659269,2.55312 -2.659269,2.79518 0,0.12332 0.62075,0.85304 1.379763,1.6216 0.75901,0.76857 1.384061,1.39694 1.389062,1.39682 0.005,-1.1e-4 0.01524,-1.3098 0.02274,-2.91042 0.0075,-1.60061 -0.05205,-2.90718 -0.132292,-2.90318 z m 34.530194,0.78703 c -0.3724,0 -0.67696,0.11906 -0.67696,0.26459 0,0.14551 0.23069,0.26458 0.51315,0.26458 0.28245,0 0.58757,-0.11907 0.67747,-0.26458 0.0927,-0.15007 -0.12966,-0.26459 -0.51366,-0.26459 z m -13.960906,0.047 c 0.03557,-0.006 0.07602,-0.003 0.120922,0.0114 0.411541,0.12767 1.191435,1.66699 1.417484,2.79724 0.189151,0.94574 -0.115824,1.09983 -0.762743,0.38499 -0.816036,-0.90171 -1.309182,-3.1053 -0.775663,-3.1936 z m -9.492959,5.50664 c 0.212563,-0.0434 0.48532,0.0419 0.750858,0.30747 0.209918,0.20992 0.223843,0.45756 0.04392,0.79375 -0.33949,0.63434 -0.683779,0.61912 -1.039731,-0.046 -0.295817,-0.55274 -0.109328,-0.98296 0.244949,-1.05523 z m 18.090885,0.81442 c -0.40042,0.002 -0.60565,0.12866 -0.60565,0.37879 0,0.31528 0.36697,0.3934 1.78594,0.3793 l 1.78594,-0.0181 -1.19063,-0.37517 c -0.7796,-0.24564 -1.37519,-0.36714 -1.7756,-0.36483 z m 2.96623,0.77618 1.05833,0.35398 c 2.93006,0.97985 6.08903,3.12257 6.85901,4.65243 0.1886,0.37474 0.55438,1.57458 0.81287,2.66599 0.25849,1.09141 0.52156,2.07542 0.58446,2.18694 0.14504,0.25727 0.6072,-0.0168 0.6072,-0.36018 0,-0.093 0.34779,-0.70795 0.79323,-1.45418 v -6.1128 c -1.07091,0.1979 -1.05781,0.4695 -1.05781,1.55494 0,1.10137 -0.0742,1.29947 -0.45682,1.22577 -0.63877,-0.12302 -1.16103,-1.25209 -0.84904,-1.83503 0.39619,-0.74031 0.28659,-1.78102 -0.2155,-2.04536 -0.25466,-0.13407 -1.71317,-0.32172 -3.24114,-0.41702 -1.52797,-0.0953 -3.25437,-0.22786 -3.83646,-0.29456 z m -36.927466,0.46147 c 0.750617,-0.0104 1.58066,0.17401 2.36833,0.57774 1.408639,0.722 7.82896,7.02585 8.229989,8.08064 0.389742,1.0251 0.02418,1.3498 -1.084689,0.96325 -1.70425,-0.5941 -1.588198,0.35602 0.325562,2.66392 1.079021,1.30125 1.225481,1.76401 0.71882,2.27067 -0.233831,0.23383 -0.122719,0.37758 0.463021,0.59893 0.797949,0.30154 2.22622,1.51734 2.22622,1.89497 0,0.35885 -1.330306,0.19983 -3.836458,-0.45837 -1.30968,-0.34397 -3.008019,-0.70458 -3.773929,-0.80098 -2.412619,-0.30371 -2.010858,-0.73841 1.0635,-1.15135 l 1.387512,-0.18656 -1.058333,-0.31212 c -0.582078,-0.17173 -1.564349,-0.31289 -2.182813,-0.31368 -0.618463,-8.1e-4 -1.124479,-0.0883 -1.124479,-0.1943 0,-0.10596 0.474964,-0.62718 1.055751,-1.15807 0.997741,-0.91202 1.039924,-1.01129 0.764294,-1.80196 -0.276275,-0.79252 -2.524511,-2.89558 -6.316927,-5.90868 -1.561952,-1.24098 -2.031886,-2.09788 -1.754931,-3.20136 0.247658,-0.98674 1.278536,-1.54529 2.52956,-1.56269 z m -17.32039,1.19166 c -0.282345,-0.0176 -0.669949,0.002 -1.148249,0.0589 -0.719198,0.0861 -1.236567,0.14902 -1.621607,0.22014 v 6.11177 c 0.235008,-0.39367 0.461764,-0.77839 0.756025,-1.24127 1.977448,-3.11055 2.74869,-4.63137 2.529046,-4.98677 -0.05597,-0.0905 -0.23287,-0.1452 -0.515215,-0.16278 z m 47.76556,3.27117 c 0,0.0705 -0.168794,0.44988 -0.374653,0.84284 -0.572291,1.09238 -2.008164,2.35103 -3.329514,2.91817 -2.23315,0.9585 -4.707975,0.88176 -7.293094,-0.22635 -1.673291,-0.71725 -1.218279,-1.04051 1.472261,-1.04851 2.989201,-0.008 4.786347,-0.39379 7.271908,-1.55856 1.238981,-0.58061 2.253092,-0.9981 2.253092,-0.92759 z m -2.738851,0.10232 c 0.644621,0 -0.09496,0.78814 -1.155485,1.23144 -0.957189,0.40011 -1.661914,0.46135 -1.661914,0.14418 0,-0.27166 2.260989,-1.37562 2.817399,-1.37562 z m 10.070187,4.83277 c 0.3581,0.002 0.64273,0.19005 1.12861,0.67593 1.12864,1.12868 1.02957,1.37237 -0.48317,1.19321 -1.60208,-0.18974 -2.43456,0.29693 -3.16363,1.84795 -0.50889,1.08261 -1.76888,2.56264 -2.18178,2.56264 -0.11377,0 -0.39561,0.0724 -0.6258,0.16071 -0.827342,0.31748 -0.393397,-0.41455 0.88366,-1.49138 0.90259,-0.76107 1.4773,-1.5302 1.87431,-2.50838 0.64597,-1.59156 1.13217,-2.12512 2.17506,-2.38538 0.14588,-0.0364 0.27337,-0.056 0.39274,-0.0553 z m -51.76635,0.24598 c -0.335947,-0.0655 -0.69184,0.20781 -1.337903,0.87437 -0.976524,1.00752 -0.921945,1.06067 0.661459,0.64544 1.871091,-0.49066 1.842518,-0.46814 1.317749,-1.048 -0.245464,-0.27123 -0.439735,-0.4325 -0.641305,-0.47181 z m 61.63241,1.07022 c -0.31391,1.31697 -0.38575,2.58228 -0.0217,2.58228 0.003,0 0.0183,-0.0133 0.0217,-0.014 z m -22.092188,0.46561 c -1.978761,0 -2.662251,0.36956 -1.256771,0.67954 0.40018,0.0883 0.846669,0.19997 0.992188,0.24857 0.490611,0.16365 0.888121,0.13106 1.569931,-0.12816 1.25825,-0.47839 0.733383,-0.79995 -1.305348,-0.79995 z m -6.513814,1.32292 c 0.145521,0 0.338497,0.11906 0.428397,0.26458 0.08994,0.14552 0.04424,0.26458 -0.101285,0.26458 -0.145521,0 -0.337981,-0.11906 -0.427881,-0.26458 -0.08993,-0.14552 -0.04475,-0.26458 0.100769,-0.26458 z m -26.491922,0.52916 c -0.147595,0 -0.118623,0.17549 0.06511,0.39688 0.181158,0.21828 0.448242,0.39687 0.593762,0.39687 0.147598,0 0.11914,-0.17548 -0.06459,-0.39687 -0.181158,-0.21828 -0.448757,-0.39688 -0.594278,-0.39688 z m 27.731124,0.36329 c 0.168548,-0.0304 0.632881,0.0945 1.346171,0.38292 1.09351,0.4421 2.997994,0.89594 7.448124,1.77508 0.489048,0.0966 0.829162,0.30744 0.772562,0.47904 -0.12234,0.37084 -2.670799,0.46849 -4.615738,0.17674 -1.24015,-0.18603 -2.430769,-0.7825 -4.52324,-2.2655 -0.469048,-0.33243 -0.596429,-0.51788 -0.427879,-0.54828 z m -36.559526,0.81028 c 0.119838,0.0465 0.149198,0.27875 0.06356,0.70694 -0.09147,0.45737 -0.165883,1.27859 -0.165883,1.82521 0,0.82541 -0.157525,1.11407 -0.928624,1.70222 -0.782862,0.59711 -0.953262,0.64327 -1.087273,0.29404 -0.26021,-0.67809 0.121602,-2.09203 0.882118,-3.26492 0.585809,-0.90345 1.036373,-1.34105 1.236099,-1.26349 z m 2.617412,0.43822 c -0.219004,-0.0472 -0.603065,0.27315 -0.603065,0.55294 0,0.17547 0.151619,0.15546 0.403077,-0.0532 0.221795,-0.18407 0.348752,-0.38918 0.282154,-0.45579 -0.02294,-0.0229 -0.05088,-0.0372 -0.08217,-0.0439 z m -6.263701,0.50488 c -0.05611,0 -0.109117,0.0131 -0.160197,0.0336 v 1.65829 c 0.08503,-0.082 0.172579,-0.19738 0.255283,-0.35191 0.384529,-0.71851 0.340204,-1.33997 -0.09509,-1.33997 z m 67.572615,0.0336 c -0.31686,0.12771 -0.52853,0.63188 -0.52865,1.31051 v 5.2e-4 c 2e-4,0.5001 0.25264,0.61361 0.52865,0.34778 z m -6.72775,0.27698 c 0.30293,-0.1017 0.38974,1.44793 0.11575,2.59003 -0.43084,1.79597 -1.53802,3.24248 -3.01273,3.93567 -2.15089,1.01104 -2.281,0.91656 -2.281,-1.64486 0,-2.46037 0.24389,-2.90778 1.50534,-2.76314 0.57921,0.0664 0.79913,0.27537 0.99632,0.94517 0.50205,1.70537 1.78033,0.77704 2.22777,-1.61799 0.12852,-0.68791 0.30179,-1.31879 0.38499,-1.40199 0.0221,-0.0221 0.0434,-0.0361 0.0636,-0.0429 z m -46.526875,0.20309 c -0.251661,8.3e-4 -0.467233,0.61494 -0.574127,1.80144 -0.08849,0.98226 -0.220536,2.24329 -0.293005,2.80241 -0.150418,1.16042 0.204264,1.21437 0.997873,0.15142 0.660496,-0.88466 0.848464,-2.28388 0.487307,-3.6251 -0.204851,-0.76077 -0.422314,-1.13081 -0.618048,-1.13017 z m 5.176943,0.1478 -0.209288,0.92604 c -0.115167,0.50932 -0.28127,2.11666 -0.368969,3.57187 l -0.159165,2.64584 -0.496094,-0.73174 c -1.058564,-1.56116 -0.781942,-4.56396 0.531233,-5.76813 z m -11.178645,0.52916 c 0.886711,0 1.010795,0.95791 0.219625,1.69499 -0.713515,0.66475 -0.854636,0.6792 -1.308965,0.13177 -0.514461,-0.61989 0.205208,-1.82676 1.08934,-1.82676 z m 15.386142,0.13798 c 0.854493,-0.007 1.236078,0.46124 0.561721,0.68936 -2.859958,0.96747 -3.897058,2.112 -3.841109,4.2385 0.0205,0.77896 9.6e-4,1.41646 -0.04289,1.41646 -0.583351,0 -0.596958,-3.41261 -0.01808,-4.53203 0.452022,-0.87412 2.16363,-1.80229 3.340364,-1.81229 z m 11.182779,0.0811 c 0.349924,-0.0333 0.673343,0.12393 0.673343,0.43408 0,0.15009 -0.382844,0.27286 -0.850593,0.27286 -0.78753,0 -0.818565,-0.032 -0.417547,-0.43305 0.165227,-0.16523 0.384842,-0.25389 0.594797,-0.27389 z M 70.91626,209.2896 h 0.684713 l -0.718304,1.22525 c -0.733457,1.25154 -0.729107,1.82765 0.02635,3.60339 0.298924,0.70262 -0.551392,0.5891 -1.316199,-0.1757 -0.752255,-0.75226 -1.049292,-1.73902 -0.810286,-2.6913 0.242422,-0.9659 1.325499,-1.96164 2.133721,-1.96164 z m -17.676957,4.80642 c -0.03578,0.004 -0.0618,0.0122 -0.07648,0.0269 -0.08889,0.0889 -0.05323,0.26022 0.04961,0.45837 h 1.682584 c -0.690991,-0.2797 -1.408388,-0.50952 -1.655712,-0.48525 z" sodipodi:nodetypes="cccsscccccccscccccccccssscccsscccssssscssssscssscssssssssscccssssccssssssscccssssccsssssscccssssssssscsssssssssssssssssssccsssssssssssssssssscscccssccssccsssccssccccscsssssssscssssssssssssssccssssscsssssssssssssssssccssscssccsccssscscccssccsssssccsssscsssssscsssssssssscssssssssccssssssccsssccsssssccccsssccsccccsccssscssccssssssccscssccsscccsscccsssssssssscssscccccscssscssssssssssscsssccsssssssscscsssssssssscccccscscscssccscssssssssscsscsccsscccssccsssssscccccscsscssccsssssscsssssssssssssssscsscsssccsssccccsssccssssscsscsccccssssssssssssccsscssssssssssssssscssssssssccccccssscscsscsssscsssssssscsssscccssccccscccsssccccssccsssscsssscssssssssssscsssssssscssscssssssssssssssssscssssssssssssccsssccsscsccsssssccsssssssssccccsssssssscccsssssssscsssssscsssscssscssssscsccsscsssssssssssssscssssssssssssscsssccsccssscsscccsssssssccsssssscccccccsssssssssssssssscccsssscscccss"/>
  </g>
</svg>