<?xml version="1.0" encoding="UTF-8" standalone="no"?>
<!-- Created with Inkscape (http://www.inkscape.org/) -->
<svg width="75mm" height="75mm" viewBox="0 0 75 75" version="1.1" id="svg5" inkscape:version="1.1.1 (3bf5ae0d25, 2021-09-20)" sodipodi:docname="Inkipedia_background_Halloween.svg" xmlns:inkscape="http://www.inkscape.org/namespaces/inkscape" xmlns:sodipodi="http://sodipodi.sourceforge.net/DTD/sodipodi-0.dtd" xmlns="http://www.w3.org/2000/svg" xmlns:svg="http://www.w3.org/2000/svg">
  <sodipodi:namedview id="namedview7" pagecolor="#ffffff" bordercolor="#666666" borderopacity="1.0" inkscape:pageshadow="2" inkscape:pageopacity="0.0" inkscape:pagecheckerboard="0" inkscape:document-units="mm" showgrid="false" inkscape:snap-bbox="true" inkscape:bbox-paths="true" inkscape:bbox-nodes="true" inkscape:snap-bbox-midpoints="true" inkscape:snap-bbox-edge-midpoints="true" inkscape:object-paths="true" inkscape:snap-intersection-paths="true" inkscape:snap-smooth-nodes="true" inkscape:snap-midpoints="true" inkscape:snap-object-midpoints="true" inkscape:snap-text-baseline="true" inkscape:snap-center="true" inkscape:snap-page="true" showguides="true" inkscape:guide-bbox="true" inkscape:snap-global="false" fit-margin-top="0" fit-margin-left="0" fit-margin-right="0" fit-margin-bottom="0" inkscape:zoom="1.4467452" inkscape:cx="105.75463" inkscape:cy="188.35383" inkscape:window-width="1920" inkscape:window-height="1001" inkscape:window-x="-9" inkscape:window-y="-9" inkscape:window-maximized="1" inkscape:current-layer="layer1"/>
  <defs id="defs2"/>
  <g inkscape:label="Capa 1" inkscape:groupmode="layer" id="layer1" transform="translate(2e-5)">
    <path id="path1825-8" style="fill:#000000;stroke-width:0.170275" d="M 146.875 0 C 146.83813 0.11605311 146.80515 0.2259423 146.7793 0.33007812 C 146.30104 2.2565186 146.47055 3.4809569 148.08398 9.7441406 C 149.18374 14.013151 149.51973 16.021067 149.41602 17.699219 C 149.22288 20.824332 147.66745 21.870618 139.18945 24.580078 C 133.07208 26.535092 132.02687 27.011432 130.66602 28.46875 C 129.19132 30.047976 128.70541 32.447687 129.27148 35.351562 C 129.48951 36.470005 129.79168 37.215168 130.59375 38.607422 C 131.16571 39.600171 131.73055 40.780074 131.84961 41.230469 C 132.04172 41.957536 132.01259 42.161409 131.5918 43.042969 C 131.19 43.884057 130.90416 44.226973 129.71289 45.291016 C 128.9398 45.981724 128.22499 46.689638 128.12695 46.865234 C 127.72793 47.57989 128.01911 48.362572 129.04102 49.322266 C 130.17698 50.389102 132.2938 50.914391 134.38867 50.650391 C 135.87172 50.463519 137.75945 49.723349 138.45117 49.056641 C 139.50954 48.036591 139.81554 45.695829 139.61133 40.169922 C 139.48045 36.626716 139.63796 35.8277 140.82227 34.009766 C 141.69373 32.672353 142.71055 31.906803 143.71875 31.830078 C 145.36199 31.705036 145.84489 32.962285 145.07812 35.369141 C 144.1937 38.145353 144.83909 40.348365 146.72266 40.980469 C 147.03844 41.086371 147.56381 41.119405 147.89062 41.052734 C 148.55138 40.918274 148.71679 40.681429 149.63477 38.560547 C 150.12539 37.427013 150.20137 37.328262 150.92578 36.902344 C 151.81442 36.379896 152.36373 36.28845 153.26367 36.513672 C 154.14761 36.734865 154.8646 37.463725 155.02734 38.308594 C 155.19231 39.166142 154.61212 40.2588 153.3418 41.482422 C 151.27291 43.475253 151.27072 45.945398 153.33789 47.099609 C 155.06368 48.063207 156.01393 47.477244 156.88867 44.912109 C 157.6961 42.544296 159.65375 41.848489 161.93164 43.121094 C 163.24285 43.853664 163.75777 45.099128 163.26562 46.345703 C 162.94221 47.165116 161.52516 48.820122 159.67578 50.539062 C 157.43303 52.623555 156.81646 54.153461 157.12109 56.873047 C 157.4998 60.254363 159.56268 62.664205 161.97852 62.550781 C 162.51009 62.525836 163.1878 62.397127 163.48438 62.263672 L 164.02344 62.021484 L 164.08203 60.185547 C 164.13755 58.461372 164.1829 58.284085 164.77344 57.210938 C 165.32162 56.221159 165.53882 55.979297 166.42188 55.375 C 167.0035 54.976967 168.43886 54.319365 169.77344 53.837891 C 172.6814 52.788739 173.60307 52.185609 174.34766 50.847656 C 175.40536 48.947729 175.22805 47.298241 173.50195 42.984375 C 172.91742 41.523561 172.24591 39.607842 172.00977 38.726562 C 170.82807 34.316842 172.46132 31.208704 177.20508 28.832031 C 177.76197 28.553027 179.34582 27.856934 180.72656 27.287109 C 183.98331 25.943094 185.40347 25.257013 186.9043 24.300781 C 189.25349 22.804005 191.50369 20.262317 192.56641 17.90625 C 195.06808 12.359721 194.43505 6.6479758 190.70898 1.1640625 C 190.44384 0.77384041 190.15627 0.38547237 189.85547 0 L 176.2832 0 C 176.63055 0.50959601 176.75618 1.0528537 176.71289 1.7871094 C 176.59927 3.7150464 174.27331 6.877663 172.03516 8.1464844 C 169.77307 9.428863 168.86408 10.545036 165.72461 15.888672 C 162.97679 20.565686 162.87732 20.68665 161.33398 21.234375 C 160.88351 21.394287 160.09204 21.493025 159.57617 21.455078 C 157.22939 21.282478 155.30335 19.198753 154.33789 15.787109 C 153.8297 13.991301 153.81797 12.629486 154.29492 11.101562 C 154.55191 10.277697 154.70915 10.02011 155.4043 9.296875 C 156.90882 7.7320259 157.74595 7.4316723 163.41602 6.4257812 C 166.09047 5.9512994 167.39589 5.6271524 168.01367 5.28125 L 168.875 4.796875 L 170.20312 2.3320312 C 170.68828 1.4311996 171.19449 0.57217125 171.56445 0 L 146.875 0 z M 174.58594 9.9023438 C 175.1314 9.8815301 175.70837 10.053895 176.33594 10.404297 C 177.06242 10.809935 177.24673 10.995121 177.4043 11.480469 C 177.64354 12.216845 177.56747 12.731098 177.00977 14.167969 C 176.09452 16.525132 176.02158 18.000935 176.76367 19.123047 C 177.22107 19.81464 177.59026 21.38918 177.54102 22.4375 C 177.48458 23.635829 176.94475 24.687672 176.09766 25.246094 C 175.18897 25.845126 171.8116 26.710579 170.76953 26.611328 C 169.75474 26.514731 167.34323 25.396351 166.71094 24.728516 C 166.243 24.234282 165.99878 23.263299 166.14648 22.482422 C 166.2988 21.67547 166.76922 20.867632 168.06445 19.1875 C 169.04177 17.919374 169.23192 17.578582 169.95312 15.804688 C 171.59115 11.77447 172.94956 9.9647848 174.58594 9.9023438 z " transform="matrix(0.26458333,0,0,0.26458333,-2e-5,0)"/>
    <path id="path6630" style="fill:#000000;stroke-width:0.0450519" d="m 38.860657,75 h 6.532416 c 0.04946,-0.07649 0.0923,-0.13925 0.11524,-0.162781 0.283427,-0.290962 0.657862,-0.298879 0.968933,-0.02067 0.06904,0.06175 0.122245,0.121706 0.16433,0.183451 h 3.590996 c -1.41497,-1.813241 -4.259056,-3.392451 -6.352066,-3.480924 -1.543605,-0.06525 -2.955925,0.557397 -4.016293,1.770951 C 39.47349,73.737144 39.007839,74.536731 38.860657,75 Z"/>
    <path id="path2119-6" style="fill:#000000;stroke-width:0.281712" d="M 42 146.10156 C 41.909115 146.10482 41.822402 146.11611 41.740234 146.13672 C 40.244777 146.51179 38.469125 148.85373 38.185547 150.82227 C 38.01187 152.02786 38.208477 152.67546 40.150391 157.2832 C 41.624841 160.7817 41.860901 163.60365 40.916016 166.43164 C 39.603034 170.36126 36.121332 172.7572 33.410156 171.59961 L 32.357422 171.14844 L 33.228516 168.37891 C 34.143475 165.46906 34.418541 162.79314 33.941406 161.46094 C 33.608498 160.53187 33.4728 160.44849 32.617188 160.64453 C 31.991449 160.78819 31.972367 160.834 31.777344 162.56641 C 31.610111 164.05244 31.470755 164.446 30.925781 164.97656 C 29.808481 166.0643 28.769831 165.56454 28.625 163.87109 C 28.560774 163.1198 28.724168 162.80718 30.097656 161.03125 C 30.946791 159.93327 31.772182 158.72218 31.931641 158.33984 C 32.319027 157.41416 31.788155 155.76743 30.695312 154.50586 C 29.234197 152.81908 28.325726 153.27547 28.300781 155.71094 C 28.273508 158.35201 26.389832 160.32449 25.253906 158.90039 C 24.673753 158.17307 24.904292 156.7891 25.835938 155.4082 C 26.988904 153.69918 27.412144 152.59778 27.128906 152.04297 C 26.81756 151.43234 23.574877 150.00141 22.677734 150.07812 C 21.605021 150.16983 21.284248 150.81772 21.080078 153.30859 C 20.880289 155.74671 20.173471 157.47759 18.744141 159.03516 L 18.121094 159.71289 L 16.470703 157.69727 C 13.162252 153.65653 10.48769 151.52134 6.7207031 149.91797 C 4.3752213 148.91923 2.2397243 148.43949 0 148.43945 L 0 166.49219 C 0.78398486 168.34862 1.4759998 169.31062 2.6835938 170.35742 C 4.6690322 172.07848 4.8998524 173.65113 3.3867188 175.13867 C 2.3928767 176.11573 1.3112676 176.43564 0 176.0957 L 0 184.81055 C 1.6951543 185.53994 3.6420961 185.72395 6.6269531 185.55078 C 9.8888253 185.36165 11.511145 185.66733 12.628906 186.68359 C 13.096574 187.10879 14.406543 188.94021 15.539062 190.75195 C 18.441683 195.39525 19.252924 196.16266 22.957031 197.76367 C 26.346731 199.22954 28.311717 199.62857 31.382812 199.4707 C 33.690978 199.35204 36.942243 198.2937 39.390625 196.86523 C 41.257111 195.77631 44.355262 192.94838 45.761719 191.05078 C 46.97257 189.41713 47.967497 186.48908 48.072266 184.25 C 48.147051 182.65156 48.015619 181.69614 47.025391 176.70898 C 46.63879 174.76173 46.906501 172.48149 47.607422 171.75781 C 48.442743 170.89539 49.705157 171.11362 51.404297 172.41016 C 53.920098 174.32993 55.893642 174.84579 58.357422 174.22852 C 59.775357 173.87322 61.673168 172.53598 62.822266 171.08398 C 63.277566 170.5089 63.969386 169.32311 64.355469 168.44727 C 64.985743 167.02465 65.012817 166.76712 64.609375 166.02539 C 64.327959 165.50827 63.777905 165.03241 63.148438 164.76172 C 62.02054 164.27671 61.454914 164.44952 59.210938 165.96094 C 57.339342 167.22152 56.191518 167.44324 54.751953 166.82422 C 53.782183 166.40721 53.527709 166.14663 53.257812 165.28711 C 52.960981 164.34183 53.007957 164.12065 53.785156 162.74023 C 54.505443 161.46091 54.589255 161.13585 54.339844 160.625 C 53.603622 159.11725 52.480726 158.91663 51.427734 160.10547 C 50.511392 161.14002 48.991561 161.74252 48.177734 161.39258 C 47.05529 160.90992 46.843002 160.01493 47.490234 158.50977 C 47.826083 157.72875 47.99595 156.87649 47.904297 156.43555 C 47.72376 155.56661 46.684818 155.02055 45.681641 155.26758 C 44.579871 155.53888 43.644375 154.94935 43.283203 153.75391 C 42.724249 151.90377 43.2688 150.10999 44.857422 148.5625 C 45.581124 147.85749 43.363279 146.05271 42 146.10156 z M 8.6347656 158.32617 C 8.8739881 158.34077 9.0972469 158.39094 9.2949219 158.47852 C 9.5927751 158.61034 10.021124 159.05007 10.248047 159.45703 C 11.463758 161.63467 7.6717638 165.74657 5.3632812 164.75391 C 4.4582168 164.36472 3.7434034 162.56227 4.0429688 161.42578 C 4.4727808 159.79504 6.9602082 158.22399 8.6347656 158.32617 z M 13.839844 163.9707 C 13.980148 163.97112 14.117876 163.98976 14.25 164.0293 C 15.500672 164.40335 15.589928 164.87974 14.998047 168.04688 C 14.788173 169.16988 15.492265 171.07251 16.714844 172.67773 C 17.324311 173.47798 17.80753 174.47381 17.845703 175.00977 C 17.91827 176.02729 17.92327 176.01466 17.158203 177.03906 C 15.936905 178.67436 14.440591 179.08294 12.589844 178.28711 C 8.7376054 176.63062 7.7740985 171.00861 10.591797 166.625 C 11.693708 164.91072 12.857716 163.96778 13.839844 163.9707 z " transform="matrix(0.26458333,0,0,0.26458333,-2e-5,0)"/>
    <path id="path6368" style="fill:#000000;stroke-width:0.0745363" d="m 74.99998,44.051058 v -4.776454 c -0.280413,-5e-6 -0.566966,0.02827 -0.868681,0.08423 -1.075892,0.199559 -1.86005,0.815189 -2.392102,1.878438 -0.515127,1.029425 -0.553904,1.987664 -0.10852,2.690791 0.306482,0.483865 0.660648,0.700294 1.112593,0.680064 0.376341,-0.01685 0.603643,-0.170248 0.747758,-0.505396 0.07161,-0.166537 0.0433,-0.322609 -0.132808,-0.740008 -0.246551,-0.584361 -0.216649,-0.667541 0.288354,-0.80305 0.205724,-0.05531 0.313673,-0.03484 0.57826,0.110069 0.3077,0.168463 0.340398,0.219477 0.606164,0.94878 0.06005,0.164793 0.115088,0.304914 0.168982,0.432533 z"/>
    <path id="path6364" style="fill:#000000;stroke-width:0.0745363" d="m 74.99998,48.897791 v -2.305804 c -0.236082,-0.0612 -0.499949,-0.202809 -0.804602,-0.428398 -0.554856,-0.410874 -0.676474,-0.428323 -0.80977,-0.118337 -0.07296,0.169666 -0.0623,0.385397 0.03876,0.806667 0.174171,0.726101 0.495021,1.292571 0.932243,1.645896 0.214637,0.173445 0.420849,0.304228 0.643372,0.399976 z"/>
    <path style="fill:#000000;stroke-width:0.0745362" d="m 27.356639,16.149904 c 0.489161,0.02733 1.067434,0.234303 1.360331,0.48688 0.508915,0.438886 0.697906,0.944316 0.665961,1.78101 -0.02156,0.565086 0.12413,0.871371 0.437951,0.920657 0.263335,0.04135 0.79736,-0.247998 1.159663,-0.628315 0.927888,-0.97406 1.114022,-1.148081 1.471173,-1.37545 0.500295,-0.318495 1.285714,-0.54962 1.823578,-0.536614 0.624762,0.0151 1.7084,0.254528 2.228328,0.492351 0.682035,0.31196 1.406077,0.854056 1.783428,1.335253 0.502074,0.640251 0.715484,1.126048 0.914876,2.082614 0.218061,1.045167 0.17556,1.337741 -0.38657,2.673076 -0.219341,0.521019 -0.415793,1.083077 -0.436471,1.249038 -0.04952,0.396623 0.131346,0.794024 0.669251,1.470777 0.736466,0.926506 0.948294,1.472491 0.89342,2.302846 -0.03708,0.560914 -0.31542,1.14945 -0.808738,1.70998 -0.286216,0.32521 -0.456967,0.458048 -0.637693,0.496107 -0.330187,0.06954 -0.385615,-0.04008 -0.36923,-0.730304 0.0222,-0.935912 -0.226967,-1.380073 -0.836595,-1.491165 -0.552317,-0.100655 -0.857073,0.188873 -0.926842,0.880568 -0.05347,0.530018 -0.197611,0.858484 -0.683185,1.556678 -0.443191,0.637256 -0.466206,0.693439 -0.426743,1.042007 0.0339,0.299758 0.07907,0.399716 0.242755,0.536054 0.401599,0.334827 0.486865,0.311323 0.822628,-0.226758 0.239823,-0.384345 0.351288,-0.49702 0.528677,-0.534377 0.35699,-0.07518 0.613259,0.02202 0.843766,0.319971 0.276801,0.357834 0.303742,0.771928 0.08465,1.301131 -0.318353,0.769031 -1.123947,1.289289 -2.26219,1.46096 -1.175644,0.177315 -2.130689,-0.109122 -2.913407,-0.873793 -0.683371,-0.6676 -1.064892,-1.36906 -1.273102,-2.340663 -0.227132,-1.059129 -0.172894,-1.963403 0.19706,-3.294712 l 0.184559,-0.66417 -0.241702,-0.03131 c -0.554693,-0.07186 -1.036785,0.03925 -1.594611,0.367514 -0.569904,0.33536 -0.758925,0.364797 -0.942205,0.146732 -0.153292,-0.182367 -0.337717,-1.101984 -0.253072,-1.262371 0.07685,-0.1458 0.379632,-0.222088 0.92498,-0.233086 0.440649,-0.0089 0.775042,-0.169758 0.843975,-0.40607 0.134973,-0.462688 -0.578653,-0.56991 -1.154095,-0.173404 -0.53064,0.365644 -0.767865,0.238976 -0.625622,-0.334085 0.106381,-0.428609 0.38178,-0.79456 0.641035,-0.851807 0.107,-0.02376 0.494747,-0.02956 0.861628,-0.01318 0.59342,0.02651 0.685992,0.01387 0.838718,-0.114494 0.344242,-0.289347 0.293817,-0.589877 -0.111706,-0.665825 -0.1978,-0.03704 -0.303812,-0.0072 -0.650735,0.183007 -0.404449,0.221772 -0.41757,0.224445 -0.543985,0.110982 -0.172771,-0.155209 -0.17534,-0.197241 -0.0251,-0.410811 0.215463,-0.306189 0.836578,-0.654272 1.605411,-0.899716 l 0.731573,-0.23355 -0.06295,-0.296165 c -0.162691,-0.762827 -1.211481,-1.151138 -2.261542,-0.836415 -0.755685,0.226496 -1.33006,0.707505 -1.86216,1.559487 -0.700815,1.122111 -0.810925,1.263437 -1.098169,1.409559 -0.469019,0.238593 -1.246019,0.210917 -1.555005,-0.05541 -0.271639,-0.234135 -0.230705,-1.095888 0.04958,-1.043488 0.576785,0.107851 1.047734,-0.04791 1.36277,-0.450712 0.203551,-0.260271 0.188857,-0.552502 -0.0377,-0.749486 -0.206286,-0.179358 -0.246522,-0.48716 -0.08607,-0.658609 0.08142,-0.08701 0.291695,-0.18001 0.511807,-0.226364 0.424195,-0.08933 0.58506,-0.271835 0.518442,-0.588169 -0.0483,-0.229357 -0.409877,-0.466434 -0.773279,-0.507017 -0.417593,-0.04664 -0.545404,-0.320069 -0.33144,-0.709047 0.0725,-0.131787 0.155845,-0.162817 0.542316,-0.201941 0.417012,-0.04221 0.471809,-0.06603 0.631055,-0.274268 0.144803,-0.189343 0.162632,-0.283926 0.105074,-0.557232 -0.08544,-0.405707 -0.308617,-0.620286 -0.866456,-0.833059 -0.668836,-0.255105 -0.792079,-0.351078 -0.859021,-0.668949 -0.03736,-0.177399 -0.0182,-0.368865 0.05078,-0.50853 0.09898,-0.200278 0.158544,-0.233549 0.562298,-0.313973 0.248278,-0.04994 0.610124,-0.08114 0.803891,-0.07028 z m 7.702061,9.130555 c -0.110114,0.08992 -0.252197,0.346459 -0.332432,0.600222 -0.160946,0.509035 -0.464649,0.951331 -0.739545,1.07704 -0.775261,0.354531 -0.864837,0.446324 -0.755189,0.773847 0.09263,0.276827 0.502934,0.422034 1.118598,0.395924 1.377529,-0.05841 2.447042,-1.123442 2.218409,-2.209105 -0.109843,-0.521589 -0.426479,-0.783144 -0.966289,-0.79816 -0.338157,-0.0094 -0.3345,-0.01048 -0.543544,0.160249 z m -2.206657,4.013316 c -0.05346,0.111089 -0.08325,0.271088 -0.06638,0.355602 0.08941,0.448813 0.959855,0.864419 1.437833,0.686711 0.291475,-0.108361 0.572314,-0.537673 0.518597,-0.792745 -0.137009,-0.65059 -1.604246,-0.844333 -1.890056,-0.249569 z" id="path2119-7"/>
    <path style="fill:#000000;stroke-width:0.0515602" d="m 25.877325,60.970526 c -0.37,-0.07266 -0.86282,-0.332909 -1.10785,-0.585024 -0.49161,-0.50583 -0.52611,-1.270147 -0.0957,-2.120358 0.18484,-0.365127 0.44516,-0.704088 0.99748,-1.298796 0.49924,-0.537558 0.61336,-0.761863 0.61186,-1.20259 -0.002,-0.457617 -0.1325,-0.738058 -0.38325,-0.82081 -0.41355,-0.136485 -0.56628,0.02674 -0.67874,0.7254 -0.0857,0.532431 -0.16662,0.758987 -0.36303,1.016507 -0.27185,0.356407 -0.59567,0.368133 -0.89057,0.03225 -0.31427,-0.357922 -0.30585,-0.601656 0.0519,-1.503206 0.14199,-0.357844 0.1592,-0.444484 0.10984,-0.552849 -0.0681,-0.149546 -0.27779,-0.217614 -0.46617,-0.151362 -0.23952,0.08423 -0.3253,0.320839 -0.36773,1.014219 -0.0507,0.827758 -0.18998,1.154253 -0.57907,1.356687 -0.22314,0.116104 -0.66545,0.09314 -0.87145,-0.04525 -0.39333,-0.264225 -0.3983,-0.812513 -0.012,-1.326363 0.36979,-0.491911 0.47561,-0.999386 0.2765,-1.325927 -0.11229,-0.184178 -0.28342,-0.249184 -0.52749,-0.200373 -0.26125,0.05225 -0.48677,0.265089 -0.66544,0.628006 l -0.16653,0.338275 -0.0399,1.143826 c -0.0537,1.538647 -0.16043,1.914266 -0.59928,2.108388 -0.41834,0.185055 -0.94358,0.04711 -1.42111,-0.373227 -0.29561,-0.260215 -0.51668,-0.606825 -0.69288,-1.086402 -0.12043,-0.327798 -0.14031,-0.461234 -0.14132,-0.948618 -0.002,-0.526176 0.009,-0.584493 0.1398,-0.806974 0.20334,-0.345896 0.50939,-0.588769 1.25712,-0.997635 0.85682,-0.468521 1.13003,-0.685683 1.28716,-1.023167 0.21933,-0.471075 0.14634,-1.016242 -0.1682,-1.25615 -0.27492,-0.209698 -0.73071,-0.191017 -1.48585,0.06089 -0.6535,0.218007 -1.1045,0.276353 -1.39755,0.1808 -0.26252,-0.08559 -0.92971,-0.513709 -1.13863,-0.730617 -0.2844,-0.29527 -0.34076,-0.588351 -0.1888,-0.981724 0.15309,-0.396292 0.55364,-1.032039 0.85432,-1.355925 0.40738,-0.438844 0.72938,-0.595197 1.73158,-0.840797 1.72047,-0.421615 2.48489,-0.986893 3.05604,-2.259871 0.26124,-0.582255 0.31114,-0.826496 0.35639,-1.744572 0.0628,-1.273405 0.23023,-1.858482 0.66007,-2.306334 0.50625,-0.527471 1.48235,-0.424839 1.84501,0.193995 0.21753,0.371174 0.30751,0.660217 0.53579,1.721128 0.32913,1.529632 0.57423,2.109316 1.20095,2.840322 0.18236,0.212686 0.97905,1.04819 1.77045,1.856675 1.89441,1.935305 2.38504,2.526972 2.77105,3.341753 0.14553,0.307177 0.16312,0.394335 0.16312,0.808345 0,0.404395 -0.0186,0.502013 -0.14507,0.75946 -0.25234,0.513861 -0.67987,0.761565 -1.31443,0.761565 -0.27343,0 -0.41882,-0.03684 -0.81739,-0.207129 -0.66143,-0.282595 -0.93214,-0.337034 -1.17384,-0.236045 -0.3458,0.14448 -0.42673,0.618666 -0.23846,1.397041 0.0549,0.226864 0.26318,0.89103 0.46288,1.475922 0.6862,2.009749 0.82755,2.880089 0.56125,3.456095 -0.38295,0.828354 -1.47438,1.284284 -2.56272,1.070545 z m 0.62349,-8.097168 c 1.03751,-0.220136 1.64344,-1.105176 1.34169,-1.959719 -0.12918,-0.365885 -0.38089,-0.732166 -1.04053,-1.514184 -0.58021,-0.687854 -0.78131,-1.051385 -1.03225,-1.865938 -0.24729,-0.802669 -0.44512,-1.018876 -0.74969,-0.819312 -0.31142,0.204049 -0.27022,0.781605 0.13422,1.881878 0.31824,0.865769 0.40433,1.368072 0.31149,1.817545 -0.0822,0.3981 -0.29044,0.809213 -0.59603,1.176793 -0.36756,0.442139 -0.37644,0.757715 -0.0292,1.037169 0.33184,0.26705 1.05526,0.374139 1.66027,0.245768 z m -3.0651,-0.519478 c 0.79118,-0.389499 1.08921,-1.132641 1.02902,-2.565869 -0.0216,-0.514424 -0.0649,-0.832948 -0.16456,-1.211496 -0.0806,-0.306222 -0.16459,-0.837064 -0.20794,-1.314787 -0.04,-0.440666 -0.0966,-0.883663 -0.12588,-0.984441 -0.15076,-0.519559 -0.78265,-0.717289 -1.19187,-0.372956 -0.27393,0.23049 -0.32995,0.397816 -0.30706,0.917109 0.0428,0.971113 0.0272,1.171496 -0.11484,1.481922 -0.0843,0.184058 -0.28996,0.45786 -0.55679,0.741135 -0.28335,0.300823 -0.47416,0.558264 -0.57758,0.779262 -0.14086,0.301009 -0.15236,0.36599 -0.13077,0.738934 0.0202,0.348421 0.0551,0.472259 0.23594,0.837269 0.5444,1.09864 1.20884,1.398704 2.11233,0.953918 z" id="path1973-1-6"/>
    <path style="fill:#000000;stroke-width:0.045052" d="m 13.33144,20.306489 c 0.322292,-0.183595 0.54265,-0.196204 0.692251,-0.03962 0.03676,0.03847 0.160379,0.273977 0.274776,0.523276 0.176203,0.384129 0.240613,0.483422 0.421967,0.65056 0.190107,0.175098 0.239081,0.198275 0.437888,0.206363 0.12316,0.005 0.465712,-0.0459 0.761297,-0.11315 0.414532,-0.0943 0.62629,-0.112771 0.926074,-0.08074 0.778347,0.08317 1.347316,0.393195 1.631696,0.889132 0.262425,0.457655 0.301557,0.75901 0.319145,2.458119 0.02438,2.354779 0.167874,2.829856 0.942996,3.122232 0.416232,0.157003 0.94986,0.228413 2.114966,0.283032 1.709357,0.08014 2.032234,0.132655 2.482056,0.403711 0.391176,0.235713 1.081568,0.973932 1.414458,1.512494 0.847399,1.370771 1.026591,2.903866 0.509582,4.359776 -0.740452,2.085142 -3.317458,4.482096 -5.558293,5.169946 -1.676961,0.514759 -3.170754,0.229917 -4.378217,-0.834865 -0.512904,-0.452312 -0.980134,-1.219401 -1.175515,-1.930031 -0.124819,-0.453999 -0.187735,-0.866424 -0.273764,-1.79462 -0.03648,-0.393523 -0.08854,-0.84848 -0.115683,-1.01103 -0.231249,-1.384657 -0.890063,-2.039446 -2.097133,-2.084311 -0.241233,-0.009 -0.778071,0.01147 -1.192985,0.04543 -1.22526,0.100256 -1.65612,0.01658 -2.054081,-0.398922 C 9.134651,31.350739 9.054146,31.070426 9.01549,30.253397 8.99776,29.878434 8.94305,29.464283 8.887736,29.286204 8.803756,29.015835 8.759485,28.941989 8.551943,28.726248 8.326623,28.493302 8.285311,28.468156 7.853686,28.319752 L 7.3945,28.161769 7.37512,28.00657 c -0.01063,-0.08539 0.0094,-0.266803 0.04451,-0.403157 0.159592,-0.619672 0.930005,-0.953161 1.814471,-0.785408 0.711376,0.134918 1.049706,0.409876 1.401985,1.139391 0.290504,0.601565 0.59871,1.089001 0.780691,1.234633 0.276839,0.221583 0.631827,0.188309 0.919226,-0.08609 0.49929,-0.476781 0.476219,-1.025759 -0.05955,-1.414439 -0.580415,-0.421079 -0.654467,-0.707174 -0.276334,-1.068439 0.452933,-0.432728 1.077106,-0.239982 1.419757,0.43843 0.210391,0.416554 0.441397,0.648343 0.67108,0.673462 0.226303,0.02469 0.466432,-0.09947 0.591245,-0.305735 0.127081,-0.209995 0.146791,-0.355883 0.08395,-0.621286 -0.05124,-0.216357 -0.07026,-0.243591 -0.318635,-0.45598 -0.464718,-0.397389 -0.511465,-0.457321 -0.49397,-0.63487 0.0086,-0.08783 0.05774,-0.218291 0.10914,-0.289878 0.306612,-0.426992 0.914157,-0.418587 1.547187,0.02139 0.54881,0.381441 0.90387,0.357347 1.000312,-0.06788 0.05917,-0.260898 -0.05508,-0.577796 -0.32533,-0.902366 -0.367364,-0.441119 -0.556979,-0.543032 -1.463064,-0.786063 -1.413118,-0.379006 -1.980991,-0.638563 -2.156429,-0.985656 -0.114668,-0.226856 -0.154905,-0.762215 -0.08658,-1.151762 0.09651,-0.550252 0.394301,-1.044203 0.752574,-1.248289 z m 4.666347,9.892283 c -0.0498,0.127478 -0.08619,0.335181 -0.08086,0.461543 0.01822,0.43291 0.04105,0.467459 1.009474,1.526718 1.106457,1.210235 1.317686,1.527187 1.465646,2.199082 0.146396,0.664787 0.764598,1.499377 1.243215,1.678351 0.265754,0.09938 0.456675,0.07995 0.709273,-0.07219 0.35749,-0.215329 0.460103,-0.575545 0.265533,-0.932097 -0.04686,-0.08596 -0.319221,-0.393766 -0.605172,-0.684095 l -0.51986,-0.52792 -0.05487,-0.255756 c -0.03931,-0.18316 -0.01982,-0.538379 0.06863,-1.25158 0.187535,-1.512043 0.176928,-1.746859 -0.10149,-2.249222 -0.128695,-0.232127 -0.181449,-0.292267 -0.369732,-0.421449 -0.349161,-0.239667 -0.694833,-0.342604 -1.188498,-0.354061 -0.93786,-0.02176 -1.614707,0.302703 -1.841234,0.882628 z m -2.176016,2.428188 c -0.1063,0.255748 -0.150702,1.177085 -0.07005,1.453524 0.07518,0.257702 0.298998,0.476437 0.597593,0.584094 0.261225,0.09415 0.688418,0.123483 0.89893,0.06173 0.341553,-0.100188 0.708759,0.03331 1.233433,0.448417 0.319846,0.25299 0.443926,0.312134 0.648759,0.309029 0.134997,-0.002 0.196269,-0.03413 0.355449,-0.18621 0.550017,-0.525481 0.320327,-1.063857 -0.86814,-2.034841 -0.392318,-0.320596 -0.463553,-0.395157 -0.708032,-0.741092 -0.323877,-0.458427 -0.491366,-0.640106 -0.68353,-0.741503 -0.185931,-0.0982 -0.450589,-0.112144 -0.612021,-0.03234 -0.218134,0.107829 -0.688949,0.630209 -0.792456,0.879268 z" id="path1825-6"/>
    <path style="fill:#000000;stroke-width:0.0515602" d="m 12.253643,17.412115 c -0.165601,-0.338757 -0.255899,-0.888709 -0.202996,-1.236276 0.106145,-0.697336 0.694413,-1.186532 1.63197,-1.357112 0.402638,-0.07326 0.830017,-0.07056 1.637599,0.01036 0.729972,0.07314 0.977664,0.02859 1.327987,-0.238838 0.363481,-0.278027 0.508142,-0.551433 0.422619,-0.801251 -0.141044,-0.412017 -0.363383,-0.435133 -0.9881,-0.102717 -0.47608,0.253329 -0.705511,0.325697 -1.029382,0.324732 -0.448248,-0.0014 -0.653202,-0.25233 -0.563667,-0.690242 0.0954,-0.466661 0.294723,-0.607183 1.229302,-0.866681 0.370949,-0.103006 0.450391,-0.141628 0.506934,-0.246424 0.07804,-0.144608 0.0056,-0.352834 -0.160975,-0.462939 -0.211812,-0.14 -0.45219,-0.06543 -1.030397,0.319604 -0.690292,0.459619 -1.034621,0.545849 -1.430984,0.358055 -0.227319,-0.107692 -0.476205,-0.474055 -0.490356,-0.72182 -0.02703,-0.473067 0.406915,-0.808232 1.049771,-0.810779 0.615398,-0.0025 1.083743,-0.224671 1.223697,-0.580602 0.07895,-0.200744 0.02738,-0.3763905 -0.158957,-0.5414122 C 15.028255,9.5911362 14.722407,9.539982 14.325258,9.6168217 l -0.370178,0.071629 -0.935653,0.6591533 c -1.258634,0.886656 -1.622448,1.0285 -2.042246,0.79603 -0.400183,-0.221602 -0.607532,-0.723511 -0.561015,-1.3579824 0.02881,-0.3927689 0.171487,-0.7783232 0.44724,-1.2084407 0.188484,-0.2939872 0.282814,-0.3904349 0.670616,-0.6856539 0.418117,-0.3194411 0.471237,-0.3459025 0.727551,-0.376058 0.398487,-0.046898 0.776916,0.050291 1.554435,0.3991964 0.890958,0.3998069 1.22906,0.4863554 1.592929,0.4077131 0.507905,-0.1097716 0.898274,-0.497259 0.89946,-0.8928468 0.001,-0.3457643 -0.289173,-0.697713 -0.946085,-1.1473364 C 14.793815,5.8931226 14.474883,5.5689513 14.374008,5.2776904 14.283638,5.0167765 14.221789,4.226459 14.268447,3.9289367 c 0.06351,-0.4050113 0.263032,-0.6269674 0.668318,-0.7434912 0.408294,-0.1173856 1.156901,-0.1822107 1.596648,-0.1382397 0.595814,0.059562 0.914928,0.2217253 1.716053,0.8720499 1.375283,1.1164107 2.287534,1.3841331 3.647024,1.0703326 0.621825,-0.143533 0.846611,-0.2513045 1.605589,-0.769826 1.052751,-0.7191784 1.620157,-0.9391758 2.236717,-0.867157 0.726169,0.084817 1.234011,0.9246982 0.959915,1.5875324 -0.164396,0.3975716 -0.34039,0.6438817 -1.047965,1.4666699 -1.020194,1.1862989 -1.334104,1.7317962 -1.538083,2.6728283 -0.05934,0.2738055 -0.24392,1.4134151 -0.410166,2.5324881 -0.397948,2.678775 -0.573091,3.427182 -0.989238,4.22699 -0.156888,0.301534 -0.215721,0.368201 -0.545659,0.618293 -0.322275,0.244283 -0.411306,0.288428 -0.69287,0.343156 -0.561943,0.10931 -1.017604,-0.08177 -1.400923,-0.587471 -0.165171,-0.217905 -0.223637,-0.356025 -0.328693,-0.776524 -0.174342,-0.697822 -0.294485,-0.946444 -0.52097,-1.078058 -0.324028,-0.188303 -0.750809,0.03364 -1.257392,0.653875 -0.147632,0.180793 -0.551111,0.747981 -0.896596,1.260444 -1.187119,1.760883 -1.795334,2.399276 -2.415235,2.535001 -0.89147,0.1952 -1.914115,-0.399181 -2.401213,-1.395627 z m 6.829516,-4.39438 c 0.802162,0.693846 1.873502,0.642104 2.372236,-0.114574 0.213551,-0.323967 0.353401,-0.745822 0.578147,-1.743904 0.197684,-0.877899 0.365916,-1.2577605 0.863472,-1.949789 0.490292,-0.6819416 0.54309,-0.9702027 0.20007,-1.0923735 -0.350732,-0.1249203 -0.786117,0.2567977 -1.418649,1.2437506 -0.497719,0.7766009 -0.846015,1.1486339 -1.260296,1.3461609 -0.366913,0.174972 -0.820333,0.257361 -1.297867,0.235871 -0.574386,-0.02584 -0.831243,0.157716 -0.844191,0.603252 -0.01237,0.425771 0.339288,1.066976 0.80706,1.471582 z M 17.645611,10.26126 c 0.788333,0.395231 1.560597,0.183831 2.666421,-0.7299065 0.396913,-0.327962 0.624599,-0.5548803 0.866074,-0.8629721 0.195349,-0.249212 0.567658,-0.636812 0.922184,-0.9599371 0.327018,-0.2980709 0.645865,-0.6107782 0.708491,-0.6949896 0.322983,-0.4339951 0.09885,-1.057011 -0.422753,-1.1751295 C 22.03687,5.7592541 21.869684,5.8156862 21.46967,6.1476175 20.721614,6.7683467 20.552499,6.8769598 20.219309,6.951283 20.021704,6.995286 19.679269,6.996784 19.292335,6.955253 18.881436,6.911161 18.561011,6.914611 18.322418,6.965691 17.997445,7.035266 17.938713,7.065354 17.654544,7.307844 17.389078,7.5344132 17.31147,7.6370329 17.129823,8.0016415 16.583138,9.0991464 16.745376,9.809919 17.645611,10.261256 Z" id="path1973-1-9"/>
    <path id="path2119-5" style="fill:#000000;stroke-width:0.281712" d="M 0 71.925781 C 1.2425728 74.780664 2.7025616 76.894095 4.7832031 78.955078 C 7.4509675 81.598431 10.109898 83.027509 13.652344 83.726562 C 17.70981 84.527293 21.323008 83.458731 24.675781 80.466797 C 27.921893 77.570054 29.395477 74.259252 28.8125 71.167969 C 28.411364 69.040688 27.46915 67.786288 25.853516 67.226562 C 24.50814 66.760486 23.49545 66.982967 22.521484 67.958984 C 22.037505 68.44397 21.919173 69.030326 21.955078 70.742188 C 22.005444 73.138669 21.783206 73.389044 19.820312 73.160156 C 19.020534 73.067293 18.672388 72.845049 17.945312 71.966797 C 17.099681 70.945625 17.05619 70.719626 17.140625 67.787109 C 17.233144 64.574159 17.008836 63.238556 16.082031 61.451172 C 14.872496 59.118572 15.237847 57.571666 17.193359 56.748047 C 19.351764 55.838946 21.058813 56.729453 22.923828 59.736328 C 24.299221 61.953898 24.700723 62.185943 25.601562 61.283203 C 26.094632 60.789094 26.360704 60.015238 26.59375 58.394531 C 26.995431 55.601105 26.659729 53.163747 25.617188 51.3125 C 24.073814 48.572017 22.275071 47.283373 18.029297 45.875 C 14.928145 44.846201 13.532603 43.962671 12.869141 42.605469 C 12.591549 42.037621 12.051387 39.851909 11.667969 37.75 C 10.685227 32.363013 10.214334 31.349865 7.3632812 28.494141 C 4.7545039 25.880121 3.0744281 24.78428 0.16210938 23.796875 C 0.1097858 23.779136 0.053696037 23.763232 0 23.746094 L 0 71.925781 z M 7.2753906 49.207031 C 8.1654794 49.217869 9.004494 49.623372 9.8066406 50.423828 C 12.77487 53.385806 11.592807 58.966782 7.3554688 62 C 5.4616609 63.355656 3.8635285 63.742851 2.9980469 63.058594 C 1.9739121 62.249125 2.067481 61.773524 3.7871094 59.048828 C 4.3968454 58.082698 4.4418126 56.056529 3.8984375 54.113281 C 3.6275588 53.144535 3.5465403 52.039519 3.7089844 51.527344 L 3.7109375 51.527344 C 4.0192601 50.554939 4.00837 50.565952 5.0976562 49.896484 C 5.8584085 49.42893 6.5830993 49.198602 7.2753906 49.207031 z M 9.7109375 65.058594 C 10.428723 65.042601 11.078754 65.224222 11.523438 65.667969 C 12.220809 66.36387 12.219567 68.302519 11.521484 69.248047 C 10.376752 70.798617 6.7636383 71.283879 5.5527344 70.048828 C 5.3246097 69.816334 5.0879296 69.2491 5.0273438 68.787109 C 4.7831362 66.932616 7.5575812 65.106571 9.7109375 65.058594 z " transform="matrix(0.26458333,0,0,0.26458333,-2e-5,0)"/>
    <path id="path6048" style="fill:#000000;stroke-width:0.0745363" d="M 74.99998,19.030363 V 6.2828206 C 74.419867,6.0976612 73.543606,6.0448157 72.819751,6.1541463 c -0.565328,0.085377 -1.603522,0.4780217 -2.134753,0.8071858 -0.457345,0.283377 -0.988466,0.9066282 -1.233,1.4469401 -0.174567,0.3857199 -0.234722,0.6329527 -0.478524,1.9559528 -0.0952,0.516568 -0.3843,1.051198 -0.627351,1.160653 -0.289655,0.130435 -0.579125,-0.04642 -0.870231,-0.531234 -0.431013,-0.717849 -0.86558,-1.0375961 -1.53169,-1.1265461 -0.383358,-0.051183 -0.980671,0.092186 -1.405082,0.3369301 -0.168139,0.09692 -0.45408,0.321047 -0.634587,0.498678 -0.294008,0.288213 -0.325419,0.348713 -0.298689,0.570508 0.01867,0.154647 0.107317,0.325145 0.235644,0.453202 0.229941,0.229457 0.385776,0.242811 1.085205,0.09043 0.583359,-0.127087 0.887327,-0.06962 1.180807,0.223242 0.197703,0.197288 0.234659,0.286286 0.217041,0.523999 -0.01938,0.26143 -0.0523,0.311163 -0.378272,0.574642 -0.3021,0.244187 -0.355063,0.315625 -0.343648,0.465604 0.0337,0.442662 0.290524,0.601805 0.665592,0.412378 0.326396,-0.164895 0.75858,-0.164528 0.924492,10e-4 0.228829,0.228348 0.194069,0.469327 -0.112138,0.77618 -0.158889,0.159225 -0.283822,0.351849 -0.304374,0.469222 -0.04051,0.231297 0.16173,0.467092 0.432531,0.504362 0.297413,0.04094 0.469312,0.27745 0.441317,0.606681 -0.04333,0.509528 -0.352189,0.89765 -0.894002,1.122929 -0.263285,0.10948 0.173691,0.85334 0.529167,0.90072 0.404352,0.05389 1.07015,-0.348284 1.332218,-0.804602 0.160498,-0.279465 0.175065,-0.457555 0.147795,-1.780253 -0.02071,-1.004279 0.197255,-1.721379 0.7059,-2.324406 0.706789,-0.837932 1.796721,-1.08645 2.350244,-0.536918 l 0.214974,0.213424 -0.484725,0.595312 c -0.509285,0.626079 -0.838778,1.257242 -0.851628,1.631425 -0.0089,0.260967 0.01645,0.294813 0.24598,0.330213 0.167893,0.02581 0.177069,0.01675 0.394291,-0.390157 0.186316,-0.349047 0.259096,-0.43232 0.444934,-0.50953 0.381006,-0.158287 0.587707,0.06607 0.457853,0.496611 -0.05761,0.191005 -0.128518,0.252019 -0.639754,0.554488 -0.316067,0.187006 -0.637081,0.404227 -0.713651,0.482657 -0.185698,0.189759 -0.216242,0.646525 -0.0708,1.063501 0.194452,0.557505 0.462277,0.533852 0.706417,-0.06253 0.264757,-0.646726 0.920759,-0.94742 1.060917,-0.486275 0.07158,0.235521 -0.120211,0.552994 -0.484208,0.801501 -0.450478,0.307564 -0.662429,0.537158 -0.646989,0.701249 0.01689,0.180564 0.6747,0.849501 0.902787,0.91829 0.272721,0.08226 0.41491,-0.04569 0.708484,-0.638204 0.287346,-0.579965 0.63015,-0.936969 1.133781,-1.180289 l 0.219108,-0.105937 0.208773,0.656808 c 0.119182,0.374844 0.241241,0.705552 0.37207,1.00614 z"/>
    <path id="path1973-1-3" style="fill:#000000;stroke-width:0.0515601" d="m 66.838721,24.178369 c -0.510821,0.01009 -0.91073,0.105705 -1.253153,0.30024 -0.553136,0.314259 -0.854928,0.765807 -0.816488,1.221631 0.04032,0.478171 0.360893,0.701421 1.797823,1.254187 l 1.068152,0.411345 0.2651,0.267684 c 0.284762,0.287298 0.412571,0.569539 0.376721,0.833541 -0.03349,0.246639 -0.150999,0.387514 -0.361735,0.433564 -0.373635,0.08168 -0.818375,-0.183967 -1.162719,-0.694015 -0.359696,-0.53281 -0.87971,-0.70676 -1.257805,-0.421164 -0.198028,0.149577 -0.364062,0.559928 -0.327112,0.808739 0.06441,0.433843 0.327553,0.672126 1.093474,0.990119 0.641594,0.266332 0.837208,0.424616 0.838708,0.678513 0.0012,0.199686 -0.131491,0.37561 -0.295072,0.391189 -0.11854,0.01131 -0.194856,-0.03325 -0.486792,-0.284221 -0.735496,-0.632319 -0.963178,-0.719796 -1.404049,-0.539501 -0.413718,0.169177 -0.508141,0.478888 -0.259932,0.852144 0.179347,0.269681 0.36699,0.420174 0.842325,0.674893 0.623737,0.334256 0.727997,0.532112 0.464055,0.878502 -0.160034,0.210031 -0.467493,0.24198 -0.90072,0.09457 -0.417099,-0.142375 -0.592152,-0.323694 -0.937411,-0.971 -0.381963,-0.716129 -0.61743,-1.072475 -0.90227,-1.366324 -0.66326,-0.684252 -1.39699,-0.901189 -2.035535,-0.601514 -0.318264,0.149365 -0.724754,0.53023 -0.914156,0.856279 -0.557128,0.959048 -0.482384,2.139667 0.1757,2.771923 0.457602,0.439655 1.326262,0.589762 3.449918,0.596863 0.61804,0.0021 1.313798,0.0218 1.546159,0.04392 0.797207,0.07599 1.219068,0.307597 1.242818,0.681615 0.0166,0.261419 -0.123233,0.499456 -0.606164,1.032494 -0.291009,0.321201 -0.373294,0.446397 -0.462504,0.704866 -0.207034,0.599837 -0.111958,1.08468 0.291455,1.490866 0.202097,0.203544 0.287976,0.253053 0.670243,0.384987 0.391354,0.135081 0.479673,0.146905 0.817521,0.109556 0.896136,-0.09905 1.615321,-0.369779 4.062801,-1.529106 1.022448,-0.484315 2.07213,-0.964647 2.332674,-1.067636 0.420524,-0.166204 0.783168,-0.262991 1.209229,-0.300239 v -1.953887 c -0.06883,0.01663 -0.14171,0.02498 -0.217558,0.02119 -0.104816,-0.0052 -0.541915,-0.09609 -0.971517,-0.202054 -0.465725,-0.114888 -0.994753,-0.208825 -1.310514,-0.232545 -0.39035,-0.0293 -0.705571,-0.09236 -1.198893,-0.239779 -1.374438,-0.410713 -1.979743,-0.934744 -2.089795,-1.809708 -0.125671,-0.999167 0.374978,-1.529521 1.591117,-1.685684 0.404038,-0.05186 0.532219,-0.04445 0.868164,0.05013 0.359581,0.10127 0.417194,0.133475 0.655774,0.364837 0.175162,0.16986 0.356372,0.434475 0.548287,0.800468 0.180717,0.344649 0.372349,0.628174 0.518832,0.767911 0.247096,0.235548 0.431288,0.31583 1.363224,0.592211 0.09401,0.02788 0.172049,0.05432 0.242879,0.08113 V 29.99869 c -0.225531,-0.600286 -0.27096,-1.308213 -0.181901,-2.273247 0.09482,-1.027488 0.05196,-1.383244 -0.22996,-1.91151 -0.208061,-0.389899 -0.678381,-0.975527 -1.00304,-1.249536 -0.322268,-0.271987 -0.617702,-0.314613 -0.989603,-0.14211 -0.273202,0.126717 -0.895394,0.617961 -1.061951,0.838191 -0.185933,0.245839 -0.278154,0.690894 -0.285254,1.379761 -0.0083,0.796007 -0.139445,1.23326 -0.427364,1.42472 -0.329403,0.219054 -0.868563,0.109874 -1.242301,-0.251147 -0.267752,-0.258641 -0.383403,-0.5875 -0.546737,-1.550294 -0.142536,-0.840211 -0.272676,-1.209054 -0.533301,-1.514119 -0.167632,-0.196231 -0.219234,-0.225544 -0.717269,-0.395325 -0.461044,-0.158063 -0.593425,-0.1826 -0.942578,-0.1757 z m 1.988509,7.692037 c 0.22993,-0.01113 0.433313,0.147196 0.638204,0.485241 0.247763,0.408794 0.568793,0.739642 0.91829,0.947229 0.394587,0.234403 0.897304,0.31705 1.819528,0.298691 1.172018,-0.02333 1.731347,0.126357 1.822627,0.487307 0.08927,0.353015 -0.179631,0.469437 -1.019059,0.441317 -0.851852,-0.02855 -1.261132,0.04286 -2.100647,0.366903 -0.954442,0.3684 -1.382941,0.486677 -1.770951,0.489376 -0.906232,0.0064 -1.544796,-0.854819 -1.414384,-1.907376 0.07605,-0.613786 0.412892,-1.262764 0.773596,-1.489316 0.117954,-0.07408 0.228283,-0.114316 0.332796,-0.119372 z"/>
    <path id="path6256" style="fill:#000000;stroke-width:0.194873" d="M 0 132.91797 C 1.8187496 132.75896 3.9447678 132.88691 7.0585938 133.26367 C 11.130415 133.75633 12.274804 133.79214 13.869141 133.47266 C 16.527241 132.94008 18.096168 129.58021 16.835938 127.12109 C 15.765938 125.03315 13.882222 123.7126 9.4101562 121.91797 C 6.1859396 120.6242 5.3752724 120.14547 3.6171875 118.49414 C 1.8764118 116.85907 0.70561479 115.25896 0 113.38086 L 0 119.89453 C 1.1513266 120.33029 1.5864096 120.78981 1.9804688 121.81445 C 2.6041968 123.43624 1.5931335 125.1483 0 125.5332 L 0 132.91797 z " transform="matrix(0.26458333,0,0,0.26458333,-2e-5,0)"/>
    <path id="path1825-2" style="fill:#000000;stroke-width:0.170275" d="M 28.734375 216.00391 C 20.917642 216.09552 11.930712 218.88429 6.9804688 223.14844 C 2.5562499 226.95945 0.27205689 232.32889 0.48632812 238.41602 C 0.57036758 240.80751 1.4542454 244.52281 2.296875 246.0293 C 3.2658273 247.76165 4.2281599 248.53909 9.6894531 252.00391 C 13.411908 254.36551 15.02925 255.5995 16.101562 256.89453 C 18.098461 259.30618 17.680201 261.13432 13.349609 268.91016 C 10.224817 274.52086 9.7887073 275.58423 9.7929688 277.57812 C 9.7975222 279.70265 11.044679 281.75137 13.367188 283.46484 L 27.59375 283.46484 C 26.791906 282.51106 25.721793 281.38014 24.322266 279.99414 C 21.803022 277.49918 21.371912 276.80804 20.992188 274.67188 C 20.712973 273.1002 20.930364 271.8472 21.613281 271.10156 C 22.726358 269.88627 23.936288 270.47182 25.023438 272.75195 C 26.277421 275.38198 28.256186 276.54811 30.0625 275.7207 C 30.365335 275.58198 30.772065 275.24486 30.964844 274.97266 C 31.354836 274.42258 31.312473 274.13786 30.53125 271.96289 C 30.11371 270.80044 30.102799 270.67536 30.339844 269.86914 C 30.630658 268.88017 30.968787 268.43961 31.779297 267.98828 C 32.575365 267.54496 33.596324 267.58685 34.292969 268.0918 C 34.999912 268.60446 35.323941 269.79707 35.234375 271.55859 C 35.088509 274.42746 36.776843 276.23037 39.074219 275.6582 C 40.992208 275.18052 41.284623 274.10226 40.167969 271.63281 C 39.137186 269.35335 40.09096 267.50691 42.623047 266.87695 C 44.080478 266.51447 45.307024 267.07047 45.800781 268.31641 C 46.125405 269.13534 46.223884 271.31311 46.050781 273.83203 C 45.840802 276.88669 46.43697 278.42387 48.519531 280.19922 C 51.108806 282.40657 54.262681 282.75484 55.947266 281.01953 C 56.317928 280.63768 56.722629 280.0795 56.847656 279.7793 L 57.076172 279.23242 L 55.863281 277.85352 C 54.724332 276.55788 54.637329 276.39963 54.333984 275.21289 C 54.056794 274.11593 54.048557 273.78899 54.279297 272.74414 C 54.43126 272.05594 55.027764 270.59421 55.671875 269.33008 C 57.075338 266.57557 57.336976 265.50481 56.964844 264.01953 C 56.436689 261.91014 55.178762 260.82915 50.96875 258.86328 C 49.54309 258.19759 47.74191 257.25862 46.966797 256.77734 C 43.088314 254.36915 42.151919 250.98644 43.986328 246.00781 C 44.201678 245.42335 44.882652 243.83086 45.5 242.4707 C 46.95615 239.26252 47.522277 237.79057 47.962891 236.06641 C 48.652571 233.36762 48.55528 229.97483 47.71875 227.5293 C 45.749344 221.77223 41.379381 218.03911 34.910156 216.58789 C 33.019173 216.1637 30.92306 215.97826 28.734375 216.00391 z M 22.666016 225.52539 C 23.780204 225.49908 24.44265 225.79316 25.128906 226.61719 C 26.364862 228.10119 26.831008 231.99854 26.066406 234.45508 C 25.293623 236.93788 25.392423 238.37456 26.757812 244.41992 C 27.952868 249.71113 27.963951 249.867 27.212891 251.32227 C 26.993687 251.74705 26.484291 252.36036 26.082031 252.68555 C 24.252165 254.165 21.422778 253.96286 18.384766 252.13477 C 16.785644 251.17249 15.843784 250.18686 15.146484 248.74609 C 14.770361 247.96936 14.710335 247.67299 14.722656 246.66992 C 14.749633 244.49929 15.153787 243.70811 18.601562 239.0957 C 20.22779 236.92011 20.957863 235.79014 21.171875 235.11523 L 21.470703 234.17383 L 20.751953 231.4668 C 20.357046 229.97812 20.039694 228.45783 20.046875 228.08789 C 20.075989 226.55298 21.089144 225.56281 22.666016 225.52539 z M 31.640625 233.01953 C 31.862741 233.02751 32.040206 233.09173 32.263672 233.21484 C 32.941907 233.58831 33.238344 234.01377 33.814453 235.44336 C 34.759306 237.78881 35.714543 238.91571 37.023438 239.22656 C 37.830162 239.41814 39.178183 240.31492 39.859375 241.11328 C 40.637924 242.02598 40.962443 243.1636 40.726562 244.15039 C 40.47372 245.20812 38.602395 248.14751 37.773438 248.79102 C 36.965013 249.41458 34.442697 250.24598 33.525391 250.19141 C 32.845976 250.151 32.004553 249.61008 31.578125 248.93945 C 31.137218 248.24665 30.927204 247.33616 30.722656 245.22461 C 30.568049 243.63107 30.474502 243.25407 29.787109 241.4668 C 27.704372 236.05323 27.958219 233.85497 30.748047 233.16016 C 31.151747 233.05962 31.418509 233.01155 31.640625 233.01953 z " transform="matrix(0.26458333,0,0,0.26458333,-2e-5,0)"/>
    <path id="path6478" style="fill:#000000;stroke-width:0.0450519" d="M 7.3008263,0 H 3.5367151 c 0.010462,0.00772054 0.020378,0.01558925 0.031006,0.02325423 0.2445057,0.17639241 0.4376127,0.26559668 0.8443929,0.38912535 0.2900629,0.0880745 0.6127726,0.21316156 0.717269,0.27853481 0.1686676,0.10555022 0.1996749,0.15006372 0.2780191,0.39635901 0.074687,0.2350453 0.081247,0.35315 0.043925,0.7741127 -0.024185,0.2732246 -0.03353,0.5390303 -0.020671,0.5906611 C 5.4829933,2.6621925 5.68089,2.7608159 6.0518069,2.7610726 6.4641294,2.7613636 6.9675656,2.4795903 7.3240808,2.0494889 7.5764768,1.7450011 7.8068297,1.2600067 7.8196578,1.0061416 7.8322977,0.75608126 7.6842726,0.45610462 7.3008263,0 Z"/>
    <path style="fill:#000000;stroke-width:0.045052" d="m 38.505842,57.854188 c -0.369858,0.028 -0.574413,-0.05491 -0.642608,-0.260454 -0.01676,-0.0505 -0.0277,-0.316255 -0.0244,-0.590528 0.0051,-0.422582 -0.01058,-0.539888 -0.102956,-0.76856 -0.09688,-0.239612 -0.131226,-0.281519 -0.307445,-0.373911 -0.109173,-0.05722 -0.440551,-0.157825 -0.736481,-0.223543 -0.41501,-0.09218 -0.614299,-0.166109 -0.871534,-0.323358 -0.667872,-0.408275 -1.049424,-0.931972 -1.094202,-1.501902 -0.04132,-0.525935 0.05228,-0.815046 0.763547,-2.35822 0.985724,-2.138673 1.059354,-2.629455 0.483929,-3.225428 -0.308997,-0.320031 -0.760726,-0.612945 -1.790369,-1.160933 -1.510612,-0.803977 -1.779953,-0.989618 -2.070497,-1.427104 -0.252666,-0.380446 -0.560708,-1.343109 -0.631087,-1.972324 -0.179234,-1.601553 0.314923,-3.063845 1.405272,-4.158429 1.561584,-1.567655 4.916482,-2.631143 7.236114,-2.293821 1.735928,0.252443 2.964109,1.149173 3.59972,2.628269 0.269987,0.628303 0.363981,1.521552 0.23644,2.247432 -0.08149,0.463741 -0.201125,0.863414 -0.520607,1.739131 -0.135447,0.371275 -0.283101,0.804743 -0.328131,0.963273 -0.383583,1.350413 -0.06838,2.224157 1.003368,2.781289 0.214188,0.111342 0.708127,0.322617 1.097656,0.469498 1.15029,0.433757 1.503888,0.693777 1.685744,1.239618 0.128114,0.384335 0.08091,0.672134 -0.233813,1.427104 -0.144443,0.34648 -0.272244,0.744199 -0.298461,0.928819 -0.03981,0.280298 -0.0314,0.365988 0.06385,0.649793 0.103951,0.306965 0.130527,0.347372 0.457116,0.666219 l 0.347398,0.3393 -0.04891,0.14856 c -0.02694,0.08172 -0.122674,0.237115 -0.212763,0.345324 -0.409436,0.491757 -1.248454,0.463453 -1.976037,-0.06668 -0.585199,-0.426381 -0.773308,-0.819681 -0.779489,-1.629775 -0.0051,-0.668018 -0.07506,-1.240462 -0.177206,-1.449965 -0.155376,-0.318743 -0.490453,-0.440592 -0.867637,-0.315584 -0.655302,0.217234 -0.869394,0.723271 -0.551509,1.303849 0.34437,0.628966 0.288859,0.919229 -0.207505,1.083911 -0.594552,0.197258 -1.076188,-0.244069 -1.095537,-1.003856 -0.01188,-0.46652 -0.121465,-0.774873 -0.318301,-0.895871 -0.193964,-0.119169 -0.464131,-0.109713 -0.665209,0.02329 -0.204726,0.135407 -0.284974,0.258825 -0.34176,0.52559 -0.04628,0.21747 -0.04075,0.250224 0.09284,0.548477 0.249941,0.558041 0.266543,0.632214 0.174746,0.785194 -0.04537,0.0757 -0.145602,0.172582 -0.222698,0.215283 -0.459852,0.254693 -1.005352,-0.01291 -1.389188,-0.681472 -0.332769,-0.579615 -0.663982,-0.709792 -0.933129,-0.366744 -0.165133,0.210476 -0.197492,0.545783 -0.09215,0.954784 0.143239,0.5559 0.270997,0.729157 0.985903,1.336579 1.114969,0.947309 1.517129,1.424925 1.527145,1.813707 0.0066,0.254106 -0.186198,0.755181 -0.414662,1.078011 -0.32271,0.456015 -0.80325,0.775 -1.214396,0.806123 z m 0.01612,-10.937633 c 0.09957,-0.0939 0.221343,-0.26605 0.270608,-0.382533 0.168805,-0.39906 0.162959,-0.440055 -0.258976,-1.811861 -0.482073,-1.567329 -0.537337,-1.944187 -0.383514,-2.614764 0.152193,-0.663484 -0.04936,-1.682352 -0.405338,-2.048938 -0.197655,-0.203557 -0.378525,-0.267699 -0.671933,-0.238298 -0.41525,0.04162 -0.662151,0.323266 -0.638891,0.728785 0.0056,0.09774 0.119992,0.492499 0.254183,0.877274 l 0.243916,0.699614 -0.05986,0.254633 c -0.04285,0.182365 -0.212495,0.495067 -0.597661,1.101801 -0.816594,1.28632 -0.9075,1.503085 -0.870861,2.076271 0.01697,0.264873 0.03891,0.341803 0.153797,0.539136 0.213001,0.366039 0.481365,0.607008 0.922634,0.828634 0.838322,0.421035 1.58891,0.417456 2.041832,-0.0097 z m 3.005852,-1.263327 c 0.205525,-0.185652 0.639955,-0.999349 0.685371,-1.283708 0.04234,-0.265085 -0.06633,-0.558562 -0.290129,-0.78365 -0.195801,-0.196888 -0.569344,-0.406222 -0.786032,-0.4405 -0.351571,-0.05562 -0.626319,-0.333427 -0.922865,-0.933143 -0.180804,-0.365534 -0.267635,-0.47209 -0.454092,-0.556945 -0.122871,-0.05595 -0.191994,-0.05315 -0.400944,0.01618 -0.72199,0.23954 -0.744803,0.82442 -0.08622,2.210613 0.217372,0.457652 0.249844,0.555526 0.322755,0.972808 0.09653,0.552933 0.170151,0.788812 0.300435,0.962695 0.126016,0.168326 0.359246,0.294191 0.5393,0.291154 0.243296,-0.0041 0.892376,-0.274735 1.092514,-0.455536 z" id="path1825-7"/>
    <path id="path2119-8" style="fill:#000000;stroke-width:0.0745363" d="m 22.919511,0 h -1.410767 c 0.07683,0.03678237 0.155837,0.06881548 0.237195,0.09508596 C 22.229359,0.25118483 22.606897,0.22117843 22.919511,0 Z"/>
    <path id="path6739" style="fill:#000000;stroke-width:0.0745363" d="m 35.637598,0 h -9.622669 c -0.217729,0.09685073 -0.503282,0.15304029 -0.867647,0.17363281 -0.689287,0.0389493 -0.794426,0.10329069 -0.698665,0.42684964 0.05241,0.17709621 0.198614,0.33657645 0.545703,0.59582845 0.598237,0.4468415 1.207318,0.677209 1.769402,0.669208 0.83208,-0.011803 1.359087,-0.2665651 2.223635,-1.07486983 0.631496,-0.59037801 1.013518,-0.80256326 1.412835,-0.78496317 0.167071,0.0073607 0.743111,0.15795624 1.280025,0.33486195 1.376066,0.45337676 1.671095,0.47211985 2.695443,0.17105048 C 34.913354,0.35366854 35.295928,0.20340902 35.637598,0 Z"/>
    <path id="path6737" style="fill:#000000;stroke-width:0.281712" d="M 113.66406 232.82031 C 112.76342 232.84978 111.74954 233.15014 111.34961 233.69727 C 110.43975 234.94195 110.57048 237.87751 111.61133 239.57227 C 112.24878 240.61019 112.81434 240.98067 117.25391 243.28125 C 120.62472 245.02798 122.61131 247.04778 123.69336 249.82617 C 125.19691 253.68689 124.05118 257.75578 121.22656 258.59961 L 120.13086 258.92578 L 119.0293 256.24023 C 117.87189 253.41804 116.37109 251.18391 115.15234 250.46484 C 114.30227 249.96348 114.14571 249.98571 113.61328 250.68359 C 113.22409 251.19419 113.23738 251.24263 114.19531 252.69922 C 115.01704 253.94862 115.1617 254.3393 115.08203 255.0957 C 114.91866 256.64646 113.80171 256.9261 112.60742 255.7168 C 112.07761 255.18028 112.00162 254.83546 111.92188 252.5918 C 111.87255 251.20466 111.73322 249.74553 111.61133 249.34961 C 111.31718 248.39021 109.85592 247.46439 108.20898 247.19336 C 106.007 246.83095 105.60053 247.76195 107.13867 249.65039 C 108.80667 251.69828 108.61993 254.41921 106.83594 254.05078 C 105.9248 253.86262 105.21761 252.65155 105.05078 250.99414 C 104.84427 248.94293 104.46513 247.82548 103.89258 247.58008 C 103.26272 247.30974 99.853539 248.2833 99.212891 248.91602 C 98.446841 249.67251 98.614837 250.37634 100.05078 252.42188 C 101.45634 254.42405 102.02077 256.20686 101.91797 258.31836 L 101.87305 259.23828 L 99.314453 258.74414 C 94.186912 257.75338 90.765142 257.82175 86.84375 258.99805 C 83.246373 260.07656 80.718412 261.7273 78.410156 264.50391 C 75.766263 267.68417 74.976118 271.36871 76 275.74414 C 76.889481 279.54524 78.756444 282.25053 81.292969 283.46484 L 86.625 283.46484 C 86.775631 283.35827 86.923448 283.24149 87.066406 283.11133 C 88.119197 282.15275 88.406919 281.1581 88.015625 279.83594 C 87.821191 279.17895 87.362361 278.79303 85.841797 278.00586 C 83.712997 276.90379 83.598425 276.58894 84.738281 274.97461 C 85.202369 274.31666 85.566508 274.11689 86.685547 273.89844 C 87.986797 273.64423 88.20529 273.71463 90.740234 275.19141 C 93.517586 276.8094 94.797582 277.25196 96.810547 277.29297 C 99.437549 277.34643 100.62219 278.40632 100.41016 280.51758 C 100.26738 281.93948 99.612276 282.8919 98.324219 283.46484 L 134.69336 283.46484 C 135.6536 282.89317 136.52832 282.2116 137.49219 281.32227 C 139.19081 279.75498 141.01361 276.86314 141.98242 274.19922 C 142.72101 272.16846 143.29627 268.01259 143.16406 265.6543 C 143.05025 263.62402 141.94118 260.73566 140.58984 258.94727 C 139.62515 257.67056 138.91343 257.02118 134.96289 253.82031 C 133.42042 252.5705 132.16806 250.64717 132.24414 249.64258 C 132.33482 248.44537 133.44466 247.80269 135.58008 247.71289 C 138.7419 247.57997 140.58849 246.71615 142.08789 244.66602 C 142.95049 243.48652 143.55443 241.24529 143.50977 239.39453 C 143.50977 239.39453 143.50977 239.39258 143.50977 239.39258 C 143.49172 238.65889 143.26502 237.30622 143.00195 236.38672 C 142.57674 234.88997 142.43293 234.67551 141.64844 234.36328 C 141.10139 234.14562 140.37578 234.13172 139.71875 234.32617 C 138.54147 234.67459 138.21565 235.16669 137.45703 237.76367 C 136.82429 239.92968 136.08462 240.83656 134.58203 241.28125 C 133.56981 241.58081 133.20833 241.54094 132.45117 241.05273 C 131.61847 240.51583 131.5118 240.31803 131.22656 238.75977 C 130.96218 237.31562 130.81922 237.01058 130.30078 236.77734 C 128.77058 236.089 127.77975 236.65288 127.73047 238.24023 C 127.68758 239.6216 126.90414 241.05523 126.05469 241.30664 C 124.8831 241.65337 124.14659 241.10232 123.68164 239.53125 C 123.44038 238.71603 123.02627 237.95228 122.67383 237.67188 C 121.97935 237.11928 120.832 237.36386 120.21875 238.19531 C 119.54521 239.10845 118.44841 239.25254 117.40625 238.56445 C 115.79338 237.49952 115.0632 235.77203 115.29492 233.56641 C 115.3512 233.0305 114.56471 232.79085 113.66406 232.82031 z M 94.580078 263.89453 C 94.90469 263.88273 95.330223 263.95034 95.65625 264.07617 C 97.983479 264.97289 97.696664 270.55838 95.287109 271.27148 C 94.34242 271.55107 92.641002 270.6239 92.144531 269.55859 C 91.330349 267.81166 92.633082 264.40628 94.296875 263.93359 C 94.375196 263.91131 94.471874 263.89846 94.580078 263.89453 z M 102.43359 264.82812 C 103.11864 264.83101 103.62304 265.53254 104.80078 267.64258 C 105.35759 268.64016 107.11558 269.65126 109.08203 270.10352 C 110.06234 270.32899 111.07126 270.78621 111.44336 271.17383 C 112.14986 271.90969 112.14596 271.89701 112.21289 273.17383 C 112.31972 275.21205 111.42982 276.48298 109.49805 277.05469 C 105.47715 278.24467 101.14096 274.53919 100.50391 269.36719 C 100.21919 267.05564 100.64138 265.46599 101.65625 265.0332 C 101.95643 264.90515 102.20524 264.82716 102.43359 264.82812 z " transform="matrix(0.26458333,0,0,0.26458333,-2e-5,0)"/>
    <path style="fill:#000000;stroke-width:0.0515602" d="m 62.231147,61.701802 c -0.109177,0.360916 -0.417241,0.825346 -0.692521,1.044031 -0.552305,0.43875 -1.316256,0.396906 -2.119339,-0.116093 -0.344888,-0.220309 -0.656218,-0.513114 -1.19292,-1.121954 -0.485127,-0.550327 -0.696943,-0.686234 -1.135625,-0.728664 -0.455538,-0.04362 -0.747588,0.05828 -0.854918,0.299539 -0.17702,0.397889 -0.02983,0.566126 0.654145,0.747655 0.521239,0.13834 0.738602,0.241432 0.975267,0.462529 0.327539,0.306016 0.306935,0.629393 -0.05667,0.88935 -0.38746,0.277034 -0.629141,0.244365 -1.490554,-0.201415 -0.341912,-0.176946 -0.426406,-0.202705 -0.53915,-0.164395 -0.155588,0.05285 -0.244215,0.25472 -0.197067,0.448765 0.05994,0.246722 0.286822,0.355656 0.972521,0.466977 0.818584,0.132946 1.129574,0.304068 1.292223,0.711396 0.09329,0.233599 0.02636,0.671419 -0.131878,0.862601 -0.302108,0.365039 -0.848162,0.315342 -1.320955,-0.120245 -0.452609,-0.416974 -0.947011,-0.572842 -1.29177,-0.407266 -0.194451,0.09338 -0.276189,0.257175 -0.251945,0.504894 0.02596,0.265157 0.215257,0.510765 0.558561,0.724715 l 0.319994,0.199413 1.13415,0.15374 c 1.525634,0.20678 1.888747,0.350404 2.038166,0.80642 0.142442,0.4347 -0.04716,0.943577 -0.512998,1.376838 -0.28838,0.268205 -0.655296,0.453632 -1.150046,0.581159 -0.338168,0.08716 -0.472921,0.09364 -0.957979,0.04608 -0.523756,-0.05045 -0.580686,-0.06721 -0.789024,-0.219527 -0.323909,-0.236801 -0.535072,-0.565532 -0.867383,-1.350287 -0.380797,-0.899247 -0.569649,-1.19274 -0.889794,-1.382722 -0.446871,-0.265185 -0.996598,-0.24689 -1.266659,0.04218 -0.236053,0.252653 -0.262889,0.708035 -0.08749,1.48452 0.151794,0.671974 0.164902,1.126544 0.04062,1.408612 -0.111329,0.252682 -0.603807,0.873884 -0.840456,1.060147 -0.322144,0.253558 -0.619382,0.280428 -0.995653,0.09002 -0.379062,-0.191822 -0.971724,-0.653737 -1.264032,-0.985198 -0.396059,-0.449088 -0.519543,-0.785067 -0.66404,-1.806754 -0.248053,-1.753923 -0.734335,-2.570873 -1.944053,-3.266046 -0.553322,-0.317967 -0.791373,-0.39196 -1.700369,-0.528481 -1.260807,-0.189393 -1.826285,-0.414301 -2.229069,-0.886634 -0.474392,-0.556299 -0.274992,-1.517311 0.376904,-1.816491 0.391005,-0.179456 0.687577,-0.240182 1.765957,-0.361594 1.554818,-0.175048 2.156042,-0.361155 2.945869,-0.911903 0.229801,-0.160255 1.140544,-0.869713 2.023876,-1.576599 2.114468,-1.692104 2.752086,-2.121326 3.60128,-2.424212 0.320152,-0.114192 0.408629,-0.123008 0.820577,-0.08175 0.402382,0.04031 0.497661,0.06854 0.741222,0.220036 0.486154,0.302296 0.690017,0.752384 0.626776,1.383785 -0.02724,0.27207 -0.07839,0.413063 -0.287559,0.792678 -0.347106,0.629973 -0.428254,0.89391 -0.351855,1.144471 0.109297,0.358478 0.573057,0.486263 1.36632,0.376503 0.231206,-0.03202 0.912822,-0.173069 1.514705,-0.313484 2.068131,-0.48249 2.948225,-0.536399 3.494823,-0.214018 0.786065,0.463597 1.130952,1.595032 0.809813,2.656652 z m -7.994719,-1.427356 c -0.11564,-1.054283 -0.935887,-1.745401 -1.816248,-1.530317 -0.376938,0.09207 -0.766481,0.306026 -1.610345,0.884445 -0.742254,0.50877 -1.124018,0.672638 -1.959524,0.84115 -0.823317,0.166064 -1.058165,0.341362 -0.889947,0.664305 0.171996,0.330205 0.750783,0.34677 1.885885,0.054 0.893175,-0.230373 1.401556,-0.265975 1.83954,-0.128803 0.387925,0.121471 0.776238,0.369641 1.111533,0.710343 0.403307,0.409794 0.716427,0.450081 1.029095,0.132417 0.298792,-0.303573 0.477446,-1.012719 0.410008,-1.627511 z m -0.822361,2.998069 c -0.308711,-0.826059 -1.018451,-1.196667 -2.450542,-1.279613 -0.514016,-0.02977 -0.83527,-0.01843 -1.221866,0.043 -0.31273,0.04968 -0.849298,0.08035 -1.328964,0.07587 -0.442458,-0.0041 -0.888891,0.0081 -0.992085,0.02714 -0.531997,0.09823 -0.791717,0.707269 -0.489882,1.148767 0.202042,0.295538 0.362953,0.367955 0.881942,0.396931 0.970543,0.0542 1.168373,0.08969 1.463099,0.261959 0.17474,0.102224 0.426683,0.334147 0.681955,0.627881 0.271086,0.311919 0.508229,0.527436 0.71782,0.652365 0.285473,0.170159 0.348984,0.188077 0.722222,0.203762 0.348701,0.01462 0.475399,-0.0078 0.856615,-0.151322 1.147426,-0.432199 1.512214,-1.063427 1.159686,-2.006747 z" id="path1973-1-5"/>
    <path id="path2119-70" style="fill:#000000;stroke-width:0.0745363" d="m 65.779944,0 h -7.397999 c 0.01462,0.1021477 0.03233,0.2071661 0.05426,0.3178122 0.118891,0.59983955 0.519846,1.4110917 0.98702,1.9978106 0.356132,0.4472754 1.213864,1.1508819 1.764234,1.44694 0.473816,0.254889 1.278885,0.4039923 1.869136,0.3462311 0.42137,-0.041235 0.66612,-0.1121807 1.934249,-0.561205 0.495144,-0.1753209 1.10263,-0.1921642 1.318782,-0.036174 0.257587,0.1859016 0.248991,0.5248355 -0.02584,1.0190586 -0.406939,0.7317634 -0.467238,1.2681929 -0.211873,1.8898076 0.146979,0.3577431 0.56932,0.8039232 0.993222,1.0495492 0.1679,0.09733 0.504749,0.2329762 0.748792,0.3007545 0.396468,0.1109027 0.464513,0.1085347 0.643372,-0.025321 0.124693,-0.093361 0.228515,-0.255868 0.275434,-0.4309798 0.08408,-0.3137773 0.01758,-0.4549114 -0.463537,-0.9849538 -0.401251,-0.4420817 -0.50315,-0.7343352 -0.395841,-1.1348138 0.07229,-0.269785 0.130932,-0.3462152 0.345716,-0.4495853 0.236212,-0.1136835 0.295769,-0.1101513 0.686779,0.040823 0.362376,0.1399117 0.450889,0.1498547 0.575159,0.065114 0.36677,-0.2501345 0.376145,-0.551905 0.0248,-0.7823809 -0.305747,-0.2005674 -0.521096,-0.575101 -0.460438,-0.8015023 0.08367,-0.3122559 0.309909,-0.4026191 0.728639,-0.2904225 0.217275,0.058211 0.446656,0.070744 0.558622,0.029972 0.22065,-0.08033 0.32403,-0.3730519 0.221176,-0.6263164 -0.112958,-0.2781564 0.0061,-0.5456952 0.305406,-0.6857471 0.463161,-0.2167466 0.953923,-0.1426183 1.419553,0.2144581 0.226272,0.1735084 0.652608,-0.5762731 0.516247,-0.9079548 C 72.639907,0.6236837 71.959042,0.2474012 71.432823,0.2480468 71.11055,0.2484437 70.948442,0.3244348 69.815867,1.0082079 68.955944,1.5273786 68.226533,1.6968152 67.450121,1.557012 66.471912,1.3808683 65.755957,0.6894115 65.779939,-1e-7 Z"/>
    <path id="path6900" style="fill:#000000;stroke-width:0.281712" d="M 253.34766 234.33594 C 251.0733 234.29245 249.10566 234.91922 247.61328 236.19922 C 245.97009 237.60852 245.35253 239.04913 245.67383 240.72852 C 245.94141 242.12696 246.63884 242.89314 247.9707 243.25 C 248.63251 243.42733 249.20056 243.23907 250.66602 242.35352 C 252.71768 241.11375 253.04681 241.17895 253.82812 242.99414 C 254.14681 243.73354 254.12669 244.14842 253.72852 245.2168 C 253.26566 246.45923 253.09309 246.60959 250.50977 248 C 247.67941 249.52337 246.63123 250.3849 245.54492 252.08008 C 244.12727 254.29238 242.60569 254.74638 240.91602 253.46289 C 239.05099 252.04624 238.96972 250.12268 240.64453 247.00586 C 241.87963 244.70725 241.88031 244.24413 240.64844 243.91406 C 239.97418 243.73339 239.17113 243.88917 237.65039 244.49609 C 235.02927 245.54218 233.08583 247.0496 232.00195 248.87695 C 230.39746 251.5821 230.17759 253.78393 231.07617 258.16602 C 231.7324 261.36678 231.66332 263.0153 230.81836 264.26758 C 230.46483 264.79153 228.84099 266.35114 227.21094 267.73242 C 223.0333 271.27259 222.3896 272.18619 221.33789 276.08203 C 220.50824 279.15304 220.31297 281.06609 220.65625 283.46484 L 248.61719 283.46484 C 248.62651 283.19673 248.66583 282.92991 248.73633 282.66406 L 249.0293 281.55859 L 251.89453 282.02148 C 254.90571 282.50848 257.59401 282.39617 258.84375 281.73242 C 259.71529 281.26937 259.77996 281.12322 259.46289 280.30469 C 259.23074 279.70612 259.1819 279.69387 257.43945 279.75 C 255.94482 279.7982 255.53506 279.71692 254.93164 279.25391 C 253.69453 278.30464 254.03834 277.20519 255.69336 276.81836 C 256.42761 276.64676 256.76182 276.76336 258.7168 277.86719 C 259.92547 278.5496 261.24324 279.19208 261.64453 279.29492 C 262.6163 279.54516 264.17041 278.78243 265.26172 277.51953 C 266.72085 275.83104 266.13642 274.99884 263.72266 275.32422 C 261.10511 275.67703 258.88297 274.09453 260.12891 272.76562 C 260.76525 272.08689 262.16745 272.11646 263.66797 272.83984 C 265.52503 273.73507 266.67723 273.99679 267.18555 273.63672 C 267.74506 273.24079 268.6952 269.82405 268.49023 268.94727 C 268.24522 267.8989 267.55684 267.67586 265.0625 267.83203 C 262.62099 267.98492 260.80746 267.53619 259.06055 266.3457 L 258.29883 265.82617 L 260.05664 263.90234 C 263.57961 260.04721 265.30852 257.09317 266.35352 253.13477 C 267.31267 249.50374 267.22472 246.48696 266.0625 243.06836 C 264.73135 239.15272 262.00231 236.55274 257.73633 235.14062 C 256.18747 234.62793 254.71227 234.36203 253.34766 234.33594 z M 254.35547 252.12695 C 254.43199 252.12695 254.50514 252.13036 254.57812 252.13867 C 256.49309 252.35677 258.71784 255.2464 258.25195 256.91211 C 258.16433 257.22582 257.79001 257.71496 257.41992 257.99805 C 255.43974 259.51427 250.82619 256.35302 251.47656 253.92578 C 251.71561 253.03363 253.2077 252.12706 254.35547 252.12695 z M 246.32422 258.44141 C 247.65449 258.46453 249.04292 258.76024 250.37695 259.36719 C 252.49687 260.33169 253.63171 261.52374 253.4707 262.61523 C 253.28039 263.90662 252.8209 264.06192 249.60156 263.93164 C 248.46004 263.88544 246.68031 264.85812 245.26758 266.29883 C 244.56329 267.01704 243.64599 267.63905 243.12109 267.75391 C 242.12458 267.97205 242.1394 267.97308 241.01562 267.36328 C 239.2217 266.38984 238.60163 264.96744 239.12305 263.02148 C 239.90311 260.11025 242.92464 258.3823 246.32422 258.44141 z " transform="matrix(0.26458333,0,0,0.26458333,-2e-5,0)"/>
    <path style="fill:#000000;stroke-width:0.0515602" d="m 62.453838,25.01525 c -0.335916,0.171289 -0.884268,0.270846 -1.232678,0.223811 -0.699026,-0.09437 -1.198071,-0.674307 -1.384434,-1.608856 -0.08004,-0.401345 -0.08454,-0.828709 -0.01725,-1.63754 0.06082,-0.731102 0.0121,-0.978008 -0.261196,-1.323772 -0.284116,-0.358742 -0.559922,-0.498772 -0.808262,-0.40905 -0.409581,0.147971 -0.428945,0.370668 -0.08604,0.989692 0.26132,0.471741 0.337546,0.699919 0.342042,1.02376 0.0062,0.448208 -0.241281,0.657365 -0.68064,0.575226 -0.468204,-0.08752 -0.612067,-0.284444 -0.887285,-1.214515 -0.109247,-0.369159 -0.149202,-0.447939 -0.254937,-0.502707 -0.145903,-0.07559 -0.352878,3.32e-4 -0.460159,0.168757 -0.136409,0.214143 -0.0578,0.45323 0.336932,1.024863 0.471193,0.682444 0.563216,1.02527 0.382132,1.424744 -0.103844,0.229103 -0.465958,0.48413 -0.713449,0.502457 -0.472545,0.035 -0.814979,-0.393231 -0.828365,-1.035952 -0.01283,-0.615269 -0.242911,-1.079801 -0.601151,-1.213734 -0.202047,-0.07555 -0.376799,-0.02103 -0.538656,0.168063 -0.173247,0.202403 -0.219237,0.50907 -0.135712,0.904867 l 0.07786,0.368917 0.674836,0.924407 c 0.907751,1.243505 1.055709,1.604877 0.83035,2.028535 -0.214823,0.403862 -0.713164,0.619644 -1.34833,0.583831 -0.393198,-0.02218 -0.781104,-0.15834 -1.215809,-0.426801 -0.297124,-0.1835 -0.395148,-0.276191 -0.696864,-0.65896 -0.326446,-0.412672 -0.353799,-0.465338 -0.388272,-0.721107 -0.05361,-0.39764 0.03719,-0.777654 0.372931,-1.560945 0.384728,-0.897573 0.465563,-1.237086 0.380797,-1.599577 -0.11832,-0.505982 -0.512334,-0.889762 -0.907886,-0.884278 -0.345733,0.0048 -0.692738,0.300895 -1.131223,0.965293 -0.379462,0.574976 -0.698209,0.89933 -0.987729,1.0051 -0.259352,0.09476 -1.048515,0.169923 -1.346782,0.128288 -0.406024,-0.05668 -0.631313,-0.252424 -0.754653,-0.655687 -0.124254,-0.406258 -0.201692,-1.153665 -0.165141,-1.594091 0.04951,-0.596734 0.206267,-0.918536 0.842991,-1.730512 1.093064,-1.393911 1.345367,-2.310547 1.008689,-3.664553 -0.153997,-0.619316 -0.265543,-0.842253 -0.796788,-1.59238 -0.736827,-1.040476 -0.96636,-1.604092 -0.904747,-2.221779 0.07256,-0.727495 0.90376,-1.249427 1.571122,-0.986546 0.400287,0.15767 0.649529,0.329486 1.484131,1.023088 1.203331,1.000047 1.754044,1.304715 2.698381,1.492798 0.274768,0.05471 1.417328,0.220054 2.539045,0.367408 2.685103,0.352725 3.436357,0.515224 4.243068,0.917827 0.304136,0.151782 0.371786,0.209483 0.627405,0.535156 0.249682,0.318111 0.295322,0.406384 0.35479,0.686986 0.11877,0.56002 -0.0646,1.018838 -0.563767,1.410629 -0.215089,0.168821 -0.352204,0.229609 -0.770872,0.341739 -0.694783,0.186083 -0.941344,0.310401 -1.06912,0.539073 -0.182813,0.327157 0.0463,0.750135 0.674982,1.246189 0.183257,0.144562 0.757167,0.53842 1.275382,0.875216 1.78065,1.15726 2.429207,1.754625 2.575365,2.37215 0.210202,0.888052 -0.366852,1.920573 -1.354942,2.424403 z m -4.508906,-6.754453 c 0.680222,-0.813747 0.610424,-1.884062 -0.154555,-2.369967 -0.327523,-0.208059 -0.751676,-0.340776 -1.753405,-0.548661 -0.881108,-0.182855 -1.263751,-0.344657 -1.964071,-0.830475 -0.690112,-0.478723 -0.979222,-0.526654 -1.095592,-0.181623 -0.118988,0.352789 0.270016,0.781676 1.267494,1.397477 0.784882,0.484554 1.162736,0.826528 1.367219,1.237419 0.181134,0.363911 0.271156,0.815878 0.25772,1.293706 -0.01615,0.57474 0.17171,0.828465 0.617401,0.833899 0.425918,0.0052 1.061103,-0.35723 1.457765,-0.831756 z m -2.731845,1.48382 c 0.381883,-0.794884 0.157491,-1.563474 -0.774761,-2.653736 -0.334608,-0.391326 -0.565333,-0.615153 -0.877452,-0.851399 -0.252471,-0.19112 -0.646293,-0.556841 -0.97535,-0.905868 -0.303542,-0.321945 -0.621581,-0.635475 -0.706836,-0.696672 -0.43938,-0.31562 -1.058528,-0.08102 -1.167835,0.442506 -0.07317,0.350441 -0.01393,0.516653 0.324699,0.911013 0.633254,0.737484 0.744703,0.904744 0.824633,1.236633 0.04733,0.196835 0.0546,0.539195 0.0196,0.926775 -0.03716,0.411584 -0.02831,0.731905 0.02679,0.969603 0.07504,0.323754 0.106119,0.38197 0.353366,0.66201 0.231013,0.261608 0.334926,0.337475 0.702546,0.512949 1.106566,0.528102 1.814503,0.353903 2.250597,-0.553814 z" id="path1973-1-7"/>
    <path style="fill:#000000;stroke-width:0.0745362" d="m 53.308696,45.428147 c 0.442593,-0.210087 1.049401,-0.305075 1.427451,-0.223458 0.656886,0.141831 1.064701,0.495196 1.437042,1.245156 0.251481,0.506501 0.525979,0.705721 0.82512,0.59882 0.251013,-0.08971 0.581458,-0.599325 0.717587,-1.106645 0.348622,-1.29932 0.428784,-1.541195 0.633581,-1.911751 0.28688,-0.519069 0.865928,-1.097866 1.344433,-1.343835 0.555809,-0.285713 1.621888,-0.594044 2.192227,-0.634026 0.748157,-0.05246 1.643328,0.07706 2.204939,0.319002 0.74724,0.321919 1.167101,0.646356 1.799934,1.390868 0.691626,0.813376 0.794316,1.090613 0.939738,2.532127 0.05673,0.562452 0.153238,1.14998 0.214459,1.305607 0.146318,0.371959 0.495303,0.634351 1.291471,0.971177 1.090034,0.461107 1.537309,0.839149 1.886483,1.594514 0.235865,0.510264 0.273099,1.160235 0.108167,1.888489 -0.09569,0.422521 -0.182053,0.620873 -0.322529,0.740776 -0.256651,0.219064 -0.357775,0.149342 -0.673689,-0.464565 -0.428377,-0.832416 -0.859711,-1.103183 -1.448166,-0.908998 -0.533137,0.175924 -0.662184,0.575987 -0.392442,1.216728 0.206688,0.490976 0.237302,0.848371 0.14505,1.693797 -0.0842,0.771636 -0.07752,0.831983 0.123937,1.119164 0.173211,0.246985 0.260706,0.31314 0.469678,0.354522 0.512857,0.10182 0.576483,0.04034 0.613809,-0.592768 0.02662,-0.452248 0.07061,-0.604521 0.208493,-0.72221 0.277485,-0.236846 0.549017,-0.274138 0.894004,-0.122804 0.414286,0.181742 0.636103,0.532452 0.696974,1.10197 0.08847,0.827603 -0.369924,1.669932 -1.287226,2.365365 -0.947442,0.718285 -1.923105,0.923802 -2.976308,0.626931 -0.919519,-0.259178 -1.590195,-0.692534 -2.237967,-1.446029 -0.706272,-0.821293 -1.091377,-1.64126 -1.403618,-2.987276 l -0.15577,-0.671504 -0.227215,0.08817 c -0.521445,0.202345 -0.891583,0.530605 -1.224304,1.085785 -0.339929,0.56719 -0.491816,0.68349 -0.757101,0.579722 -0.221869,-0.08677 -0.823881,-0.806003 -0.826308,-0.987339 -0.0023,-0.1648 0.227064,-0.376677 0.700653,-0.647305 0.382672,-0.218661 0.599303,-0.519947 0.546745,-0.760431 -0.102903,-0.470861 -0.780819,-0.223511 -1.096352,0.400019 -0.290962,0.574992 -0.559876,0.577289 -0.70921,0.006 -0.111699,-0.427255 -0.045,-0.880372 0.155244,-1.054704 0.08259,-0.07207 0.420276,-0.262711 0.750262,-0.423893 0.533747,-0.260697 0.608983,-0.316094 0.68166,-0.501892 0.163803,-0.418798 -0.02428,-0.658553 -0.416709,-0.531182 -0.191407,0.06212 -0.27023,0.139031 -0.483812,0.472094 -0.249007,0.388275 -0.259249,0.396901 -0.424545,0.357768 -0.225978,-0.05361 -0.248349,-0.08928 -0.218625,-0.34871 0.04267,-0.371963 0.421476,-0.97483 0.979107,-1.558262 l 0.530608,-0.555159 -0.197004,-0.229927 c -0.507895,-0.59196 -1.614624,-0.431035 -2.38604,0.34781 -0.555153,0.560504 -0.829311,1.257723 -0.888823,2.260451 -0.07839,1.320654 -0.107448,1.49744 -0.289737,1.763202 -0.297654,0.433944 -0.993155,0.781469 -1.391915,0.695472 -0.350561,-0.0756 -0.726999,-0.85186 -0.455816,-0.939977 0.558066,-0.181314 0.897054,-0.54345 0.980919,-1.047894 0.05418,-0.325942 -0.09856,-0.575508 -0.391759,-0.640058 -0.266963,-0.05877 -0.449589,-0.309789 -0.390745,-0.537115 0.02985,-0.115358 0.169987,-0.297649 0.341078,-0.443683 0.329722,-0.281434 0.383638,-0.518663 0.173764,-0.764546 -0.152168,-0.178277 -0.583106,-0.213418 -0.921619,-0.07515 -0.38899,0.158886 -0.632065,-0.02004 -0.630332,-0.463984 5.96e-4,-0.15041 0.05893,-0.217541 0.379553,-0.436836 0.345964,-0.236621 0.382679,-0.283762 0.42286,-0.542811 0.03653,-0.235548 0.0069,-0.32713 -0.174394,-0.539568 -0.269168,-0.315353 -0.567818,-0.396966 -1.159459,-0.316847 -0.70936,0.09606 -0.863501,0.07077 -1.074395,-0.176304 -0.117697,-0.137891 -0.1925,-0.315177 -0.198766,-0.47082 -0.0089,-0.223222 0.02746,-0.280941 0.343485,-0.544771 0.194109,-0.162658 0.4969,-0.363217 0.672239,-0.446403 z m 11.132247,4.331495 c -0.05366,0.13165 -0.05566,0.4249 -0.0047,0.686117 0.102272,0.523985 0.04726,1.057684 -0.13396,1.299613 -0.511073,0.682295 -0.545801,0.805761 -0.292791,1.040878 0.213812,0.198742 0.643569,0.129902 1.17167,-0.187644 1.181609,-0.710492 1.611053,-2.157462 0.890767,-3.001335 -0.34605,-0.405425 -0.749241,-0.483566 -1.230418,-0.238431 -0.301425,0.15356 -0.298729,0.150865 -0.400581,0.400816 z m -0.01706,4.57993 c 0.0062,0.123123 0.05664,0.277869 0.111888,0.344004 0.29328,0.351304 1.256475,0.29969 1.591131,-0.08508 0.20408,-0.23463 0.245233,-0.745986 0.076,-0.94425 -0.431637,-0.505698 -1.812681,0.02631 -1.779024,0.685328 z" id="path2119-79"/>
    <path style="fill:#000000;stroke-width:0.045052" d="m 54.933992,44.041338 c -0.310208,0.203352 -0.529337,0.229715 -0.688424,0.08279 -0.03907,-0.03612 -0.177185,-0.26342 -0.30693,-0.505094 -0.199855,-0.372367 -0.270339,-0.467447 -0.461783,-0.62293 -0.200675,-0.16288 -0.250999,-0.182949 -0.449918,-0.178607 -0.123256,0.0027 -0.461939,0.0749 -0.752743,0.160486 -0.407828,0.120017 -0.618023,0.151673 -0.919224,0.138426 -0.78202,-0.03438 -1.369246,-0.308256 -1.684054,-0.785462 -0.290497,-0.440364 -0.34838,-0.738685 -0.472073,-2.433375 -0.171442,-2.348658 -0.344332,-2.813845 -1.136204,-3.057229 -0.425228,-0.13069 -0.962274,-0.168629 -2.128516,-0.150357 -1.711025,0.0268 -2.036553,-0.0054 -2.502428,-0.247867 -0.405138,-0.210813 -1.140296,-0.904464 -1.506181,-1.421179 -0.931373,-1.315159 -1.20599,-2.834063 -0.780942,-4.319428 0.608747,-2.127325 3.030983,-4.680584 5.224471,-5.507076 1.641529,-0.618513 3.150199,-0.427544 4.421819,0.559728 0.540159,0.419389 1.054397,1.15579 1.293789,1.852827 0.152936,0.445316 0.241494,0.853004 0.385339,1.774014 0.06099,0.390475 0.141368,0.841291 0.178617,1.001827 0.317296,1.367507 1.01573,1.979864 2.223245,1.949235 0.241316,-0.0061 0.775832,-0.06006 1.187817,-0.119866 1.216604,-0.1766 1.651847,-0.120006 2.07499,0.269826 0.297998,0.274448 0.395857,0.54919 0.485474,1.362204 0.04112,0.373119 0.121595,0.78305 0.187923,0.957321 0.100703,0.264601 0.149505,0.335532 0.370122,0.537885 0.239435,0.218411 0.282234,0.240931 0.72229,0.362086 l 0.468152,0.12899 0.02903,0.153686 c 0.01592,0.08453 0.0073,0.266871 -0.01924,0.40515 -0.120567,0.628436 -0.868645,1.009397 -1.761863,0.897223 -0.718411,-0.09021 -1.07326,-0.343499 -1.470421,-1.049579 -0.327517,-0.582244 -0.665568,-1.04947 -0.856296,-1.183453 -0.290142,-0.20386 -0.642353,-0.148468 -0.912053,0.143349 -0.468527,0.507045 -0.411207,1.053508 0.147798,1.407962 0.605587,0.383998 0.697361,0.664902 0.34254,1.049091 -0.425013,0.460181 -1.060017,0.306793 -1.444373,-0.348884 -0.236004,-0.4026 -0.481044,-0.619506 -0.71184,-0.630222 -0.22741,-0.01052 -0.459307,0.128416 -0.571007,0.342052 -0.113691,0.217554 -0.124281,0.364355 -0.04497,0.625316 0.06465,0.21274 0.08534,0.238734 0.346498,0.435185 0.488635,0.367585 0.539038,0.42448 0.532665,0.602778 -0.0031,0.08821 -0.04399,0.221472 -0.09082,0.29613 -0.27934,0.445312 -0.886228,0.474872 -1.545503,0.07531 -0.571567,-0.346411 -0.924429,-0.300189 -0.994117,0.130241 -0.04276,0.264085 0.09107,0.573223 0.381064,0.880278 0.394201,0.417311 0.589816,0.507179 1.509309,0.693127 1.43404,0.289996 2.017013,0.513564 2.213795,0.849027 0.128618,0.219248 0.20222,0.75105 0.158358,1.1441 -0.06194,0.555206 -0.328301,1.066795 -0.673121,1.292865 z m -5.275205,-9.581457 c 0.04178,-0.130329 0.06508,-0.339909 0.05187,-0.465693 -0.04522,-0.430927 -0.07017,-0.463982 -1.102872,-1.460677 -1.1799,-1.13875 -1.410516,-1.441887 -1.600161,-2.103226 -0.18764,-0.654343 -0.856771,-1.448685 -1.345629,-1.597413 -0.271446,-0.08259 -0.460779,-0.05126 -0.703379,0.116359 -0.343338,0.237243 -0.42325,0.603162 -0.206786,0.946862 0.05213,0.08286 0.343198,0.373055 0.646726,0.644955 l 0.551824,0.494413 0.07074,0.251828 c 0.05068,0.180344 0.05341,0.53609 0.0097,1.253423 -0.09271,1.520806 -0.06746,1.754501 0.241802,2.23849 0.142944,0.223634 0.199348,0.280364 0.395338,0.397529 0.36345,0.217388 0.714879,0.298527 1.208295,0.279123 0.937388,-0.03687 1.592643,-0.402983 1.7825,-0.995926 z m 2.020077,-2.559382 c 0.09016,-0.261874 0.07688,-1.1842 -0.02088,-1.455061 -0.09113,-0.252501 -0.328179,-0.456825 -0.632912,-0.54562 -0.266598,-0.07765 -0.694788,-0.08024 -0.901032,-0.0055 -0.334627,0.121329 -0.709455,0.01103 -1.259036,-0.370489 -0.335024,-0.232516 -0.462557,-0.283793 -0.666798,-0.267895 -0.134605,0.01045 -0.193754,0.04632 -0.343122,0.208051 -0.516117,0.558815 -0.253242,1.081789 0.99356,1.976634 0.41158,0.295461 0.487334,0.365426 0.752945,0.695413 0.351886,0.437298 0.530397,0.608158 0.728517,0.697354 0.191701,0.08639 0.456715,0.08378 0.612847,-0.006 0.210972,-0.121244 0.648233,-0.672017 0.73598,-0.927056 z" id="path1825-67"/>
  </g>
</svg>