<?xml version="1.0" encoding="UTF-8"?>
<svg id="Layer_1" xmlns="http://www.w3.org/2000/svg" xmlns:xlink="http://www.w3.org/1999/xlink" viewBox="0 0 1000 1000">
  <defs>
    <style>
      .cls-1 {
        opacity: .9;
      }

      .cls-2 {
        fill: url(#linear-gradient-15);
      }

      .cls-3 {
        fill: url(#linear-gradient-13);
      }

      .cls-4 {
        fill: url(#linear-gradient-28);
      }

      .cls-5 {
        fill: url(#linear-gradient-42);
      }

      .cls-6 {
        fill: url(#linear-gradient-2);
      }

      .cls-7 {
        fill: url(#linear-gradient-43);
      }

      .cls-8 {
        fill: url(#linear-gradient-25);
      }

      .cls-9 {
        fill: url(#linear-gradient-10);
      }

      .cls-10 {
        fill: url(#linear-gradient-12);
      }

      .cls-11 {
        fill: url(#linear-gradient-40);
      }

      .cls-12 {
        fill: url(#linear-gradient-27);
      }

      .cls-13 {
        fill: url(#linear-gradient-37);
      }

      .cls-14 {
        fill: url(#linear-gradient-39);
      }

      .cls-15 {
        fill: url(#linear-gradient-26);
      }

      .cls-16 {
        fill: none;
      }

      .cls-17 {
        fill: url(#linear-gradient-4);
      }

      .cls-18 {
        fill: url(#linear-gradient-35);
      }

      .cls-19 {
        fill: url(#linear-gradient-30);
      }

      .cls-20 {
        fill: url(#linear-gradient-44);
      }

      .cls-21 {
        fill: url(#linear-gradient-3);
      }

      .cls-22 {
        fill: url(#linear-gradient-34);
      }

      .cls-23 {
        fill: url(#linear-gradient-5);
      }

      .cls-24 {
        fill: url(#linear-gradient-38);
      }

      .cls-25 {
        fill: url(#linear-gradient-22);
      }

      .cls-26 {
        fill: url(#linear-gradient-24);
      }

      .cls-27 {
        fill: url(#linear-gradient-33);
      }

      .cls-28 {
        fill: url(#linear-gradient-8);
      }

      .cls-29 {
        fill: url(#linear-gradient-14);
      }

      .cls-30 {
        fill: url(#linear-gradient-29);
      }

      .cls-31 {
        fill: url(#linear-gradient-20);
      }

      .cls-32 {
        fill: url(#linear-gradient-17);
      }

      .cls-33 {
        fill: url(#linear-gradient-7);
      }

      .cls-34 {
        fill: url(#linear-gradient-9);
      }

      .cls-35 {
        fill: url(#linear-gradient-11);
      }

      .cls-36 {
        fill: url(#linear-gradient-19);
      }

      .cls-37 {
        fill: url(#linear-gradient-6);
      }

      .cls-38 {
        fill: url(#linear-gradient-36);
      }

      .cls-39 {
        fill: url(#linear-gradient-21);
      }

      .cls-40 {
        fill: url(#linear-gradient-45);
      }

      .cls-41 {
        fill: url(#linear-gradient-32);
      }

      .cls-42 {
        fill: url(#linear-gradient-41);
      }

      .cls-43 {
        fill: url(#linear-gradient-16);
      }

      .cls-44 {
        fill: url(#linear-gradient);
      }

      .cls-45 {
        fill: url(#linear-gradient-23);
      }

      .cls-46 {
        fill: url(#linear-gradient-31);
      }

      .cls-47 {
        clip-path: url(#clippath);
      }

      .cls-48 {
        fill: url(#linear-gradient-18);
      }
    </style>
    <clipPath id="clippath">
      <rect class="cls-16" width="999.999999999998181" height="1000.000000000005457"/>
    </clipPath>
    <linearGradient id="linear-gradient" x1="-172.936702777007667" y1="1815.9235140345736" x2="-172.936702777007667" y2="1736.940278322526865" gradientTransform="translate(-1005.81310850518912 -414.040829670110156) rotate(-53.00000147485936)" gradientUnits="userSpaceOnUse">
      <stop offset="0" stop-color="#a91ab3"/>
      <stop offset=".68609865470852" stop-color="#f73465"/>
    </linearGradient>
    <linearGradient id="linear-gradient-2" x1="-1928.534171542605691" y1="846.472909386779065" x2="-1928.534171542605691" y2="763.669374357732522" gradientTransform="translate(2442.406980478167043 85.322491053236945)" gradientUnits="userSpaceOnUse">
      <stop offset="0" stop-color="#603bde"/>
      <stop offset=".68609865470852" stop-color="#516bff"/>
    </linearGradient>
    <linearGradient id="linear-gradient-3" x1="223.787275372291333" y1="-305.199652265840086" x2="223.787275372291333" y2="-388.920322937933634" gradientTransform="translate(174.335882612149277 605.853548418436276)" gradientUnits="userSpaceOnUse">
      <stop offset="0" stop-color="#ae36f5"/>
      <stop offset=".68609865470852" stop-color="#fc50a7"/>
    </linearGradient>
    <linearGradient id="linear-gradient-4" x1="-1542.813023008132404" y1="1448.912751059815491" x2="-1542.813023008132404" y2="1357.178660766914618" gradientTransform="translate(-1227.490145065220986 1145.067791913166275) rotate(-151.000004201957807)" gradientUnits="userSpaceOnUse">
      <stop offset="0" stop-color="#3b1ab8"/>
      <stop offset=".68609865470852" stop-color="#73f"/>
    </linearGradient>
    <linearGradient id="linear-gradient-5" x1="-448.790733111409281" y1="-705.848707624702911" x2="-448.790733111409281" y2="-799.891797591889372" gradientTransform="translate(-91.284422192991315 983.556872258216799) rotate(81.999992263945245)" xlink:href="#linear-gradient-4"/>
    <linearGradient id="linear-gradient-6" x1="-92.283103186688095" y1="-520.761398722651393" x2="-92.283103186688095" y2="-605.133292498998344" gradientTransform="translate(-77.0475216851612 752.817031932512577) rotate(42.999991178671372)" xlink:href="#linear-gradient-4"/>
    <linearGradient id="linear-gradient-7" x1="555.98554791994502" y1="-234.965719236021869" x2="555.98554791994502" y2="-311.21085748187943" gradientTransform="translate(219.949955989208974 697.873237977673625)" xlink:href="#linear-gradient-2"/>
    <linearGradient id="linear-gradient-8" x1="-388.600924776723332" y1="-1106.892507254452539" x2="-388.600924776723332" y2="-1192.565677131866323" gradientTransform="translate(-278.892393161928567 356.752943702109405) rotate(96.999992681358279)" xlink:href="#linear-gradient-4"/>
    <linearGradient id="linear-gradient-9" x1="-1559.527749013275752" y1="-848.219357333473454" x2="-1559.527749013275752" y2="-956.47872666733565" gradientTransform="translate(-1261.897866034278877 1418.398976194532452) rotate(106.999992959633602)" xlink:href="#linear-gradient-4"/>
    <linearGradient id="linear-gradient-10" x1="-1662.105638922632352" y1="-849.873164314747555" x2="-1662.105638922632352" y2="-949.054775247491307" gradientTransform="translate(-1468.288027695876281 987.45591076338178) rotate(122.999993404874161)" xlink:href="#linear-gradient"/>
    <linearGradient id="linear-gradient-11" x1="326.414708914702715" y1="916.616105534087183" x2="326.414708914702715" y2="829.111147099294612" gradientTransform="translate(275.937676309727408 -783.792250474407183)" xlink:href="#linear-gradient-3"/>
    <linearGradient id="linear-gradient-12" x1="-1502.668343036504666" y1="360.728652487137879" x2="-1502.668343036504666" y2="284.51992986840196" gradientTransform="translate(2164.553233100855323 529.249193718721699)" xlink:href="#linear-gradient-3"/>
    <linearGradient id="linear-gradient-13" x1="-867.292292724250728" y1="-603.685428187960497" x2="-867.292292724250728" y2="-716.099561018610075" gradientTransform="translate(-375.543638800084977 1529.835549296871932) rotate(74.999992069152484)" xlink:href="#linear-gradient"/>
    <linearGradient id="linear-gradient-14" x1="-1433.028204247048961" y1="1224.21386543641529" x2="-1433.028204247048961" y2="1105.499265827036652" gradientTransform="translate(-741.778481663644243 1873.475680888088391) rotate(-170.330827940941077)" gradientUnits="userSpaceOnUse">
      <stop offset="0" stop-color="#3b9c75"/>
      <stop offset=".68609865470852" stop-color="#9ee650"/>
    </linearGradient>
    <linearGradient id="linear-gradient-15" x1="-1265.069211713743243" y1="2210.007813161497324" x2="-1265.069211713743243" y2="2091.293213552120505" xlink:href="#linear-gradient-14"/>
    <linearGradient id="linear-gradient-16" x1="579.625565050664591" y1="569.895873419811323" x2="579.625565050664591" y2="479.826688155397278" gradientTransform="translate(76.335161853088721 85.675718062289405) rotate(6.999990176880075)" xlink:href="#linear-gradient"/>
    <linearGradient id="linear-gradient-17" x1="-285.420836937975764" y1="2100.881449906608395" x2="-285.420836937975764" y2="1985.381449906604757" gradientTransform="translate(-1306.608271053444241 -247.84617493126143) rotate(-62.000001725307179)" xlink:href="#linear-gradient-14"/>
    <linearGradient id="linear-gradient-18" x1="597.526782499620822" y1="1631.409907092867797" x2="597.526782499620822" y2="1515.909907092865978" gradientTransform="translate(-1306.608271053444241 -247.84617493126143) rotate(-62.000001725307179)" xlink:href="#linear-gradient-14"/>
    <linearGradient id="linear-gradient-19" x1="-279.297441963417441" y1="1668.261633646385235" x2="-279.297441963417441" y2="1560.002264312523039" gradientTransform="translate(-1306.608271053444241 -247.84617493126143) rotate(-62.000001725307179)" xlink:href="#linear-gradient-14"/>
    <linearGradient id="linear-gradient-20" x1="135.324902709358867" y1="1254.639994733668573" x2="135.324902709358867" y2="1131.011218642430322" gradientTransform="translate(614.903697751482923 -916.734843820410674)" xlink:href="#linear-gradient-2"/>
    <linearGradient id="linear-gradient-21" x1="-1496.290989665538291" y1="-408.3163616499005" x2="-1496.290989665538291" y2="-475.355517621961553" gradientTransform="translate(1662.011063730514252 1200.547720630365347)" xlink:href="#linear-gradient-2"/>
    <linearGradient id="linear-gradient-22" x1="-1809.69798296864974" y1="-279.00640272700366" x2="-1809.69798296864974" y2="-346.045558699066532" gradientTransform="translate(2002.485797616859372 733.284589880889484)" xlink:href="#linear-gradient-2"/>
    <linearGradient id="linear-gradient-23" x1="-298.373714752142405" y1="-550.789424661585144" x2="-298.373714752142405" y2="-632.479828350712523" gradientTransform="translate(-134.355519266743158 1134.700555230306918) rotate(60.99999167956701)" xlink:href="#linear-gradient"/>
    <linearGradient id="linear-gradient-24" x1="-1496.082928949856978" y1="-849.834273837748697" x2="-1496.082928949856978" y2="-941.955160737452388" gradientTransform="translate(1920.112437385130306 1003.966880563117115)" xlink:href="#linear-gradient-2"/>
    <linearGradient id="linear-gradient-25" x1="-1501.790852188520148" y1="1272.478456659300718" x2="-1501.790852188520148" y2="1159.355873468644859" gradientTransform="translate(-1561.487749044247039 -1083.027981262095636) rotate(-107.000002977546259)" xlink:href="#linear-gradient"/>
    <linearGradient id="linear-gradient-26" x1="-2458.095594978886766" y1="980.106701621358297" x2="-2458.095594978886766" y2="866.984118430702438" gradientTransform="translate(-1561.487749044247039 -1083.027981262095636) rotate(-107.000002977546259)" xlink:href="#linear-gradient"/>
    <linearGradient id="linear-gradient-27" x1="-1841.29007421984079" y1="1210.338429649847967" x2="-1841.29007421984079" y2="1122.938797367240113" gradientTransform="translate(-1808.34285355791144 223.32157769483581) rotate(-142.000003951509996)" xlink:href="#linear-gradient-14"/>
    <linearGradient id="linear-gradient-28" x1="-2207.798945288407594" y1="1635.532016770333939" x2="-2207.798945288407594" y2="1548.132384487729723" gradientTransform="translate(-1808.34285355791144 223.32157769483581) rotate(-142.000003951509996)" xlink:href="#linear-gradient-14"/>
    <linearGradient id="linear-gradient-29" x1="779.930417408091671" y1="507.847409073030576" x2="779.930417408091671" y2="452.177132616011477" gradientTransform="translate(40.521608495058899 325.025481728362024)" xlink:href="#linear-gradient-3"/>
    <linearGradient id="linear-gradient-30" x1="-277.324281128247094" y1="1569.08134563911517" x2="-277.324281128247094" y2="1492.042845639112784" gradientTransform="translate(1168.677222304906309 -1046.587601153779588)" xlink:href="#linear-gradient-3"/>
    <linearGradient id="linear-gradient-31" x1="-1971.716055985447383" y1="1029.099679441729677" x2="-1971.716055985447383" y2="952.061179441723652" gradientTransform="translate(2393.581161987490759 -354.086973234828974)" xlink:href="#linear-gradient-3"/>
    <linearGradient id="linear-gradient-32" x1="522.89311697512494" y1="883.607352030534457" x2="522.89311697512494" y2="806.568852030530252" gradientTransform="translate(-147.456397901034507 -226.388812037123671) rotate(-36.000001001791262)" xlink:href="#linear-gradient"/>
    <linearGradient id="linear-gradient-33" x1="-1647.592229559309999" y1="888.408295769268079" x2="-1647.592229559309999" y2="811.369795769265693" gradientTransform="translate(-1242.848514725206996 -80.326804846492678) rotate(-142.000006455988881)" xlink:href="#linear-gradient"/>
    <linearGradient id="linear-gradient-34" x1="-1309.62041294215669" y1="2205.226422745170566" x2="-1309.62041294215669" y2="2132.008243510048487" gradientTransform="translate(1366.079799762840594 -1259.152019243953418)" gradientUnits="userSpaceOnUse">
      <stop offset="0" stop-color="#ff8f75"/>
      <stop offset=".68609865470852" stop-color="#ffd950"/>
    </linearGradient>
    <linearGradient id="linear-gradient-35" x1="-1799.421386688832172" y1="1919.197046841843985" x2="-1799.421386688832172" y2="1841.935453427613538" gradientTransform="translate(2025.227050751475417 -922.949062634586653)" xlink:href="#linear-gradient-34"/>
    <linearGradient id="linear-gradient-36" x1="-1663.357250069024303" y1="1045.519378978133318" x2="-1663.357250069024303" y2="970.669780085565435" gradientTransform="translate(2367.601590208280868 -419.054128056645368)" xlink:href="#linear-gradient-34"/>
    <linearGradient id="linear-gradient-37" x1="75.192959484913445" y1="569.315251636227913" x2="75.192959484913445" y2="497.10625229053403" gradientTransform="translate(10.756161694471579 108.717985094380737)" xlink:href="#linear-gradient-3"/>
    <linearGradient id="linear-gradient-38" x1="-1602.721094913047637" y1="562.543913375728152" x2="-1602.721094913047637" y2="485.247945945835454" gradientTransform="translate(-945.426565629195011 -195.460274515706601) rotate(-155.000004313267965)" xlink:href="#linear-gradient-4"/>
    <linearGradient id="linear-gradient-39" x1="-2025.339272582559715" y1="-343.763871499051675" x2="-2025.339272582559715" y2="-421.059838928943464" gradientTransform="translate(-945.426565629195011 -195.460274515706601) rotate(-155.000004313267965)" xlink:href="#linear-gradient-4"/>
    <linearGradient id="linear-gradient-40" x1="-144.132986365648321" y1="-224.463670302857281" x2="-144.132986365648321" y2="-303.226590374862099" gradientTransform="translate(175.031208171785238 630.572505455385112)" xlink:href="#linear-gradient-3"/>
    <linearGradient id="linear-gradient-41" x1="-1851.899338665260075" y1="-1804.524157195657608" x2="-1851.899338665260075" y2="-1912.783526529521623" gradientTransform="translate(-1261.897866034278877 1418.398976194532452) rotate(106.999992959633602)" xlink:href="#linear-gradient-4"/>
    <linearGradient id="linear-gradient-42" x1="-608.473111760942629" y1="-1569.611226704888395" x2="-608.473111760942629" y2="-1682.025359535537973" gradientTransform="translate(-375.543638800084977 1529.835549296871932) rotate(74.999992069152484)" xlink:href="#linear-gradient"/>
    <linearGradient id="linear-gradient-43" x1="190.174098149138445" y1="2551.209248003788161" x2="190.174098149138445" y2="2442.949878669925965" gradientTransform="translate(-1306.608271053444241 -247.84617493126143) rotate(-62.000001725307179)" xlink:href="#linear-gradient-14"/>
    <linearGradient id="linear-gradient-44" x1="-1794.162609046149555" y1="2228.783205401596206" x2="-1794.162609046149555" y2="2115.660622210940346" gradientTransform="translate(-1561.487749044247039 -1083.027981262095636) rotate(-107.000002977546259)" xlink:href="#linear-gradient"/>
    <linearGradient id="linear-gradient-45" x1="-2757.458436531225743" y1="1934.274060878533419" x2="-2757.458436531225743" y2="1821.151477687877559" gradientTransform="translate(-1561.487749044247039 -1083.027981262095636) rotate(-107.000002977546259)" xlink:href="#linear-gradient"/>
  </defs>
  <g class="cls-47">
    <g class="cls-1">
      <path class="cls-44" d="M314.146723758776716,761.586548078661508l-34.266318949234119,6.208862507577578c-2.140475208143471.387889512381662-3.62331100380834,2.355679181720916-3.406179296318442,4.520152838776994l3.476661032029369,34.650395779215614c.591482799391088,5.895110803754505,8.110553286871436,7.999442540345626,11.676130346026184,3.267761714487278l2.517504214894871-3.340841110704787,18.533144507746329,13.965725356989424,15.77220120162383,11.88520545798383,3.406332489747001-4.520356133332825-15.77220120162383-11.88520545798383,3.406332489747001-4.520356133329187,15.77220120162383,11.885205457980192,3.406332489747001-4.520356133332825-15.77220120162383-11.88520545798383,3.406332489747001-4.520356133332825,15.77220120162383,11.88520545798383,3.406332489747001-4.520356133332825-15.77220120162383-11.88520545798383,3.40625589303454-4.52025448605491,15.772201201620192,11.88520545798383,3.406332489747001-4.520356133332825-15.772201201620192-11.885205457980192-18.533144507749967-13.965725356993062,2.517580811607331-3.34094275798634c3.565577059154748-4.731680825858348-.529773484387988-11.379442628054676-6.359628990518104-10.322997685314476Z"/>
      <rect class="cls-6" x="504.318554836420503" y="848.991865410726177" width="19.10850819807888" height="82.803535029046088" transform="translate(1088.604645785961566 1742.772305246120823) rotate(175.999994879726216)"/>
      <rect class="cls-21" x="388.463080748697621" y="216.933225480508213" width="19.320154471500757" height="83.72067067209332" transform="translate(190.153474459406453 -168.084368781726994) rotate(30.999990844739465)"/>
      <path class="cls-17" d="M764.926446211409711,664.897722858930138l12.679994735033688,38.407339046363631c.792113439169043,2.399135441744875,3.295023026417766,3.786520640962408,5.749361353133281,3.186922486915137l39.290513539952372-9.599620883444004c6.684691423521144-1.63310416780223,7.889566453010048-10.621192203310784,1.87115427849858-13.95725197001957l-4.249477365239727-2.355523360092775,13.066747404362104-23.573040400668106,11.120151198640087-20.061287277927477-5.749619931528287-3.187065819234704-11.120151198640087,20.061287277927477-5.749490642330784-3.18699415307492,11.120151198640087-20.061287277927477-5.749619931531925-3.187065819234704-11.120151198640087,20.061287277927477-5.749619931528287-3.187065819231066,11.120151198640087-20.061287277931115-5.749619931531925-3.187065819234704-11.120151198640087,20.061287277931115-5.749619931528287-3.187065819234704,11.120151198640087-20.061287277927477-5.749619931528287-3.187065819234704-11.120151198640087,20.061287277927477-13.066747404365742,23.573040400668106-4.249348076038586-2.355451693929353c-6.018412174515106-3.336059766708786-13.002255783510918,2.448694231155969-10.84498823382819,8.982975442686438Z"/>
      <path class="cls-23" d="M613.904436707436616,465.40780271276617l23.622443161042611-34.0774993043633c1.475578685789515-2.128561019155313,1.067259138824738-5.033902714363649-.937869504879927-6.673281740833772l-32.100388663795457-26.246158335439759c-5.461270635078108-4.465293025803476-13.563519572871883.093549180106493-12.58173884397911,7.079275208619038l.69319413998528,4.932327763243848-27.361835214829625,3.845458927437903-23.285652905444294,3.272588302043005.937932777538663,6.673731948744717,23.285652905444294-3.272588302043914.937932777538663,6.673731948744717-23.285652905444294,3.272588302039367.937932777538663,6.673731948740169,23.285652905444294-3.272588302043005.937911686654843,6.673581879441372-23.285652905447932,3.272588302042095.937932777542301,6.673731948740169,23.285652905444294-3.272588302039367.937932777538663,6.673731948740169-23.285652905444294,3.272588302043005.937932777538663,6.673731948740169,23.285652905444294-3.272588302043005,27.361835214829625-3.845458927436994.69319413998528,4.932327763246576c.981780728892772,6.985726028509816,10.026750075270684,9.13468150299741,14.045657219754503,3.337035073636798Z"/>
      <path class="cls-37" d="M272.335120818059295,287.33707082487399l-2.770059627604496-37.097002564403738c-.172979040675273-2.317203098421487-2.098032914629584-4.112344323398247-4.421657834038342-4.123261363234633l-37.199865776383376-.175544361530228c-6.328854392881112-.02987135175681-9.404018697916399,7.723220617139305-4.775338024744997,12.039533841449156l3.268117028681445,3.047567491801601-16.906224100075633,18.129711325761491-14.387648461630306,15.428868783582402,4.421956137843154,4.123539535946293,14.387648461628487-15.428868783583312,4.421956137844973,4.123539535946293-14.387648461632125,15.428868783582402,4.421956137843154,4.123539535946293,14.387648461630306-15.428868783583312,4.421856703240337,4.123446811708163-14.387648461630306,15.428868783583312,4.421956137841335,4.123539535946293,14.387648461630306-15.428868783583312,4.421956137841335,4.123539535945383-14.387648461628487,15.428868783583312,4.421956137839516,4.123539535945383,14.387648461630306-15.428868783583312,16.906224100075633-18.129711325761491,3.268117028681445,3.047567491801601c4.628680673169583,4.316313224309852,12.148372770458082.707809193119829,11.677093675116339-5.603544563266041Z"/>
      <rect class="cls-33" x="767.137987957665132" y="386.662380495702564" width="17.595031902887399" height="76.245138245854378" transform="translate(383.97289675172442 -368.236786678409203) rotate(34.999993460538782)"/>
      <path class="cls-28" d="M921.755000778748581,143.702922269181727l28.821673742062558-24.41696083590432c1.800327076438407-1.525125630527327,2.126056071210769-4.177978207014348.748167197296425-6.093339275371363l-22.058557239604852-30.664261058490411c-3.752842029971362-5.216948177595441-11.957378872401023-3.115740553938849-12.740575396510394,3.262889995413389l-.552982173103373,4.503683142116643-24.983950926776743-3.06764020474202-21.262009836689685-2.610643784876629-.748217671833117,6.093750357899808,21.262009836693323,2.610643784876629-.74821767182948,6.093750357898898-21.262009836693323-2.610643784876629-.74821767182948,6.093750357898898,21.262009836693323,2.610643784876629-.748200846988766,6.093613330389417-21.262009836689685-2.610643784876629-.74821767182948,6.093750357901627,21.262009836689685,2.610643784876629-.74821767182948,6.093750357898898-21.262009836693323-2.61064378487572-.74821767182948,6.093750357898898,21.262009836693323,2.61064378487572,24.983950926776743,3.06764020474202-.552982173099736,4.503683142117552c-.783196524113009,6.378630549352238,6.669303406721156,10.402278528162242,11.572762920925015,6.248189412332067Z"/>
      <path class="cls-34" d="M64.939394410410387,233.989036274605496l41.224441818534615-24.061047725023855c2.575043878880024-1.502878124799281,3.562500936732249-4.7327060475709,2.268090932260748-7.418594425087576l-20.721854604720647-42.99992282104995c-3.525425406660361-7.315627785630568-14.196498379546028-6.501112479675612-16.570781749538583,1.26482191107516l-1.676381772751483,5.483200120748734-30.417771304773851-9.299641862435237-25.886336175881297-7.914243721353159-2.268243947304654,7.419094914955167,25.886336175883116,7.91424372135225-2.268243947299197,7.419094914956986-25.886336175883116-7.914243721353159-2.268243947306473,7.419094914954258,25.886336175881297,7.914243721350431-2.268192942285168,7.418928085002335-25.886336175883116-7.914243721353159-2.268243947302835,7.419094914956986,25.886336175879478,7.914243721353159-2.268243947306473,7.419094914955167L-.450611125266732,193.558010411256873l-2.268243947301016,7.419094914954258,25.886336175883116,7.91424372135134,30.417771304770213,9.299641862437056-1.676381772749664,5.483200120747824c-2.374283369992554,7.7659343907535,6.016967517563899,14.408384399473107,13.030523775074471,10.314845243858144Z"/>
      <path class="cls-9" d="M187.421936029999415,123.391368650351069l42.380555129642744-10.779232294418762c2.647333813754813-.673393623796073,4.332469780158135-3.268276111637533,3.870877178062074-5.960629647804126l-7.390328901430621-43.10100472816066c-1.257318137981201-7.33282288585815-10.860569349506477-9.31022241442588-14.912590592140987-3.07065529789088l-2.860962023238244,4.405496292572934-24.439265997667462-15.871040911559248-20.798468407452674-13.506679906995487-3.871051271346005,5.960897728022246,20.798468407452674,13.506679906995487-3.871051271347824,5.960897728023156-20.798468407452674-13.506679906995487-3.871051271347824,5.960897728024065,20.798468407452674,13.506679906995487-3.871051271347824,5.960897728023156-20.798468407450855-13.506679906995487-3.871051271347824,5.960897728023156,20.798468407450855,13.506679906996396-3.87096422470313,5.960763687911822-20.798468407452674-13.506679906995487-3.871051271347824,5.960897728024065,20.798468407450855,13.506679906995487,24.439265997669281,15.871040911558339-2.861049069881119,4.40563033268154c-4.05202124263451,6.239567116536819,1.660419109530267,14.208291478077626,8.870770131774407,12.374245286968289Z"/>
      <rect class="cls-35" x="592.25565876893404" y="45.318896624856862" width="20.193452911151439" height="87.504958434789145" transform="translate(83.669717151022041 408.023403301328642) rotate(-40.000001113096097)"/>
      <rect class="cls-10" x="653.091575827023121" y="813.769123587061927" width="17.586628474627673" height="76.208722618733418" transform="translate(1680.951840642733259 1205.826295598524439) rotate(146.999996577211249)"/>
      <path class="cls-3" d="M68.141774377038018,554.925423015845809l23.062311501691511-43.871862272211729c1.44055387284061-2.740535436540085.532916253352596-6.127883271816245-2.084908171957068-7.78097891869038l-41.908532977073264-26.463154861686235c-7.129941070794303-4.502212413342932-16.078635501482495,2.086871809289732-13.896160622254683,10.231974435056145l1.540953852963867,5.750914887243198-31.902905852619369,8.548362592453486-27.150225360494005,7.274884987607948,2.085001941013616,7.781328869394201,27.150225360494005-7.274884987607948,2.085001941013616,7.781328869401477-27.150225360494005,7.27488498760431,2.085001941015435,7.781328869405115,27.150225360492186-7.27488498760431,2.085001941013616,7.781328869401477-27.150225360490367,7.274884987607948,2.085001941011797,7.781328869386925,27.150225360497643-7.27488498760431,2.084955056483523,7.781153894047748-27.150225360495824,7.274884987607948,2.085001941017254,7.781328869397839,27.150225360495824-7.27488498760431,31.902905852619369-8.54836259244621,1.541000737497598,5.751089862591471c2.182474879231449,8.145102625763684,13.226814039286182,9.377066677392577,17.150368976557729,1.912889757248195Z"/>
      <path class="cls-29" d="M820.71996626854343,980.54694756302888l31.937069451214484,41.469530375678005c1.995040122314094,2.590397215240955,5.645818089673412,3.212414616315073,8.386096669793915,1.42881821418996l43.867820797109744-28.55393779714359c7.463285450870899-4.857906270986859,5.084300927894219-16.349928517636727-3.694236929462932-17.845610630356532l-6.198156901351467-1.056038324353722,5.858318424394383-34.383957414298493,4.985585519720189-29.26166653584005-8.386473835758807-1.428882475505816-4.985585519720189,29.261666535843688-8.386473835755169-1.428882475502178,4.985585519720189-29.261666535843688-8.386473835758807-1.428882475502178-4.985585519720189,29.261666535843688-8.386473835758807-1.428882475502178,4.985585519720189-29.26166653584005-8.386473835755169-1.428882475505816-4.985585519720189,29.261666535843688-8.386285252770904-1.42885034484425,4.985585519716551-29.261666535843688-8.386473835762445-1.428882475502178-4.985585519716551,29.26166653584005-5.858318424394383,34.383957414302131-6.198345484328456-1.05607045501165c-8.778537857360789-1.495682112719805-14.828835507272743,8.560163999147335-9.395119335655181,15.615453814854845Z"/>
      <path class="cls-2" d="M820.71996626854343-19.453017709074629l31.937069451214484,41.469530375679824c1.995040122314094,2.590397215239136,5.645818089673412,3.212414616315073,8.386096669793915,1.428818214188141l43.867820797109744-28.553937797141771c7.463285450870899-4.857906270988678,5.084300927894219-16.349928517638546-3.694236929462932-17.845610630356532l-6.198156901351467-1.056038324353722,5.858318424394383-34.383957414298493,4.985585519720189-29.261666535841869-8.386473835758807-1.428882475503997-4.985585519720189,29.261666535843688-8.386473835755169-1.428882475502178,4.985585519720189-29.261666535843688-8.386473835758807-1.428882475502178-4.985585519720189,29.261666535841869-8.386473835758807-1.428882475502178,4.985585519720189-29.26166653584005-8.386473835755169-1.428882475503997-4.985585519720189,29.261666535841869-8.386285252770904-1.42885034484425,4.985585519716551-29.261666535841869-8.386473835762445-1.428882475502178-4.985585519716551,29.26166653584005-5.858318424394383,34.383957414300312-6.198345484328456-1.05607045501165c-8.778537857360789-1.495682112717986-14.828835507272743,8.560163999149154-9.395119335655181,15.615453814854845Z"/>
      <path class="cls-43" d="M621.8831472251386,664.511161380682097l-25.66968631677446-30.300536870439828c-1.60352608879839-1.892722091477481-4.392356197186018-2.235146886428993-6.40614112763069-.786574110574293l-32.237686352178571,23.190415621891589c-5.484636944103841,3.945406106711744-3.275613100573537,12.570929589575826,3.430313938293693,13.394312729455123l4.734773447613406.581356254744605-3.22504415277217,26.265914054049063-2.744598750650766,22.352994713437511,6.406429244798346.786609486862289,2.744598750654404-22.352994713433873,6.406429244794708.786609486865927-2.744598750650766,22.352994713430235,6.406429244798346.786609486865927,2.744598750654404-22.352994713433873,6.406429244798346.786609486865927-2.744598750650766,22.352994713433873,6.406429244798346.786609486862289,2.744598750650766-22.352994713433873,6.406285186214518.786591798718291-2.744598750650766,22.352994713433873,6.406429244798346.786609486865927,2.744598750650766-22.352994713437511,3.225044152768533-26.265914054049063,4.734917506197235.581373942888604c6.705927038863592.823383139879297,10.936033738478727-7.011515647252963,6.568648249474791-12.166596287868742Z"/>
      <path class="cls-32" d="M363.826396990532885,916.545094420927853l-48.071685718601657,16.806574814756459c-3.002823030285072,1.049895628817467-4.694379020842462,4.231249978984124-3.885624430196913,7.307797231136647l12.948153868743248,49.251185890399938c2.202773861336027,8.37935318655218,13.544193159184942,9.698646269069286,17.611651775878272,2.048868646244955l2.871949082993524-5.401351039894507,29.962806090738013,15.931505440159526,25.499148621580389,13.558136836512858,3.885799186744407-7.308125900421146-25.499148621580389-13.558136836516496,3.885711808474298-7.307961565777077,25.499148621576751,13.558136836512858,3.885799186744407-7.308125900424784-25.499148621576751-13.558136836512858,3.885799186744407-7.308125900424784,25.499148621576751,13.558136836512858,3.885799186744407-7.308125900421146-25.499148621576751-13.558136836512858,3.885799186744407-7.308125900424784,25.499148621576751,13.558136836516496,3.885799186744407-7.308125900424784-25.499148621576751-13.558136836512858-29.962806090734375-15.931505440163164,2.871861704719777-5.401186705250439c4.06745861669333-7.649777622824331-3.368326626394264-16.314500569682423-11.546813212480629-13.455171869070909Z"/>
      <path class="cls-48" d="M363.826396990532885-83.45491967029011l-48.071685718601657,16.806574814756459c-3.002823030285072,1.049895628817467-4.694379020842462,4.231249978984124-3.885624430196913,7.307797231136647l12.948153868743248,49.251185890401757c2.202773861336027,8.37935318655218,13.544193159184942,9.698646269069286,17.611651775878272,2.048868646243136l2.871949082993524-5.401351039894507,29.962806090738013,15.931505440161345,25.499148621580389,13.558136836512858,3.885799186744407-7.308125900422965-25.499148621580389-13.558136836514677,3.885711808474298-7.307961565778896,25.499148621576751,13.558136836512858,3.885799186744407-7.308125900422965-25.499148621576751-13.558136836512858,3.885799186744407-7.308125900424784,25.499148621576751,13.558136836512858,3.885799186744407-7.308125900422965-25.499148621576751-13.558136836512858,3.885799186744407-7.308125900422965,25.499148621576751,13.558136836514677,3.885799186744407-7.308125900424784-25.499148621576751-13.558136836512858-29.962806090734375-15.931505440161345,2.871861704719777-5.401186705250439c4.06745861669333-7.64977762282615-3.368326626394264-16.314500569682423-11.546813212480629-13.455171869072728Z"/>
      <path class="cls-36" d="M-12.111362188778003,712.6700482942706l-45.058098516981772,15.752980000936077c-2.814577727096548.984078256646171-4.400091014811551,3.965995274622401-3.642036798972185,6.849675493180257l12.136441314873082,46.16365647999919c2.064683194923418,7.85405620261372,12.69511523419169,9.090643536641437,16.507587135791255,1.920426212040184l2.691908194667121-5.062743351772951,28.084454466285024,14.932768238009885,23.900621197595683,12.708184790160885,3.64220060012849-6.849983558378881-23.900621197593864-12.708184790153609,3.642118699553976-6.849829525781388,23.900621197592045,12.708184790157247,3.642200600130309-6.849983558371605-23.900621197595683-12.708184790157247,3.642200600130309-6.849983558375243,23.900621197599321,12.708184790153609,3.642200600130309-6.849983558371605-23.900621197595683-12.708184790157247,3.642200600130309-6.849983558375243,23.900621197592045,12.708184790157247,3.642200600130309-6.849983558378881-23.900621197593864-12.708184790149971-28.084454466285024-14.932768238013523,2.691826294088969-5.062589319179096c3.812471901601384-7.170217324601253-3.157168106356039-15.291753616198548-10.822949923800479-12.611674639178091Z"/>
      <rect class="cls-31" x="735.963741628048524" y="214.276374822029055" width="28.529717665449084" height="123.628776091235608" transform="translate(182.945102891729221 839.347805145861116) rotate(-65.000001808793044)"/>
      <rect class="cls-39" x="157.984787068900999" y="725.192203008331376" width="15.470573992188122" height="67.039155972059575" transform="translate(916.972583376529315 955.501965761960832) rotate(116.999993237906196)"/>
      <rect class="cls-25" x="185.052527652131147" y="387.239031181735299" width="15.470573992186502" height="67.039155972062872" transform="translate(655.210319112302614 440.003765202497732) rotate(116.999993237906196)"/>
      <path class="cls-45" d="M266.038297119737763,605.208420919074342l8.548579936141323-34.988716554282291c.533949497719732-2.185620403106441-.701535601896467-4.414493760399637-2.837997153510514-5.119880640810152l-34.202238749996468-11.291693193321407c-5.818863050797518-1.921073613673798-10.970260564299679,4.298131320720131-7.999454665903613,9.657605197571684l2.097561277394561,3.784099418051483-20.992097344273134,11.636113552023744-17.864835771364596,9.902643562221783,2.838124792859162,5.120110908213974,17.864835771366415-9.902643562221783,2.838124792859162,5.120110908213974-17.864835771362777,9.902643562221783,2.838124792859162,5.120110908213974,17.864835771366415-9.902643562221783,2.838124792859162,5.120110908213974-17.864835771364596,9.902643562221783,2.838124792860981,5.120110908217612,17.864835771366415-9.902643562225421,2.838060973183019,5.119995774512063-17.864835771364596,9.902643562225421,2.838124792860981,5.120110908213974,17.864835771362777-9.902643562225421,20.992097344274953-11.636113552020106,2.097625097070704,3.784214551757032c2.970805898396065,5.359473876847915,10.974815271118132,4.286515201260045,12.429114528455102-1.666290002765891Z"/>
      <rect class="cls-26" x="413.400175331447031" y="62.0117198256862" width="21.258666207622525" height="92.120886899704615" transform="translate(755.77034369982789 -177.284866981063317) rotate(124.999993460530078)"/>
      <path class="cls-8" d="M8.274964539526991-35.092165987508452L-13.377800083693728,9.839223400899755c-1.352503542888371,2.80671807696217-.320740770250268,6.181461416252205,2.370032477740097,7.752025494851296l43.076325420830472,25.141907519350752c7.328619100188007,4.277427319600974,16.09681949941114-2.66341552537142,13.615877453516077-10.77820980420347l-1.751688984368229-5.72951543635736,31.784192926063042-9.717404769047789,27.049197487853235-8.269771117955315-2.370139070309961-7.752374143370616-27.049197487853235,8.269771117953496-2.370139070306323-7.752374143366978,27.049197487853235-8.269771117958044-2.370139070309961-7.752374143368797-27.049197487853235,8.269771117954406-2.370139070304504-7.752374143370616,27.049197487851416-8.269771117957134-2.370139070308142-7.752374143366069-27.049197487853235,8.269771117952587-2.370085774020481-7.752199819109592,27.049197487849597-8.269771117956225-2.370139070306323-7.752374143371526-27.049197487853235,8.269771117953496-31.784192926059404,9.717404769053246-1.75174228065589-5.729689760618385c-2.480942045884149-8.114794278826594-13.631379772008586-8.965897184129062-17.315119267974296-1.321462722099568Z"/>
      <path class="cls-15" d="M8.274964539526991,964.907836126150869l-21.652764623220719,44.931389388406387c-1.352503542888371,2.806718076961261-.320740770250268,6.181461416254024,2.370032477740097,7.752025494850386l43.076325420830472,25.141907519351662c7.328619100188007,4.277427319600974,16.09681949941114-2.66341552537051,13.615877453516077-10.77820980420438l-1.751688984368229-5.729515436356451,31.784192926063042-9.71740476904597,27.049197487853235-8.269771117957134-2.370139070309961-7.752374143368797-27.049197487853235,8.269771117953496-2.370139070306323-7.752374143368797,27.049197487853235-8.269771117957134-2.370139070309961-7.752374143368797-27.049197487853235,8.269771117953496-2.370139070304504-7.752374143368797,27.049197487851416-8.269771117957134-2.370139070308142-7.752374143368797-27.049197487853235,8.269771117953496-2.370085774020481-7.752199819107773,27.049197487849597-8.269771117957134-2.370139070306323-7.752374143372435-27.049197487853235,8.269771117953496-31.784192926059404,9.717404769053246-1.75174228065589-5.729689760617475c-2.480942045884149-8.114794278826594-13.631379772008586-8.965897184130881-17.315119267974296-1.321462722098659Z"/>
      <path class="cls-12" d="M326.042465328004255,431.119801234971419l6.207785325674195,38.03193088304397c.387820351916162,2.375692911860824,2.536327997124317,4.054290814878186,4.935274883766397,3.855858781411371l38.403907770672959-3.17746124752739c6.533829778909421-.540477562706656,9.007251780854858-8.81886854894401,3.841022591099318-12.855168584355852l-3.647768442726374-2.849948647985002,15.809462741359312-20.235192421831016,13.454275238720584-17.220689457052686-4.935496848498587-3.856032199245419-13.454275238720584,17.220689457057233-4.935385866130673-3.855945490326121,13.454275238720584-17.220689457057233-4.935496848498587-3.856032199241781-13.454275238720584,17.220689457058143-4.935496848498587-3.856032199241781,13.454275238720584-17.220689457057233-4.935496848498587-3.856032199241781-13.454275238720584,17.220689457058143-4.935496848498587-3.856032199245419,13.454275238720584-17.220689457054505-4.935496848498587-3.856032199239962-13.454275238720584,17.220689457052686-15.809462741355674,20.235192421833744-3.64765746035846-2.849861939070252c-5.166229189755541-4.036300035409113-12.600341037537873.366375827674347-11.544197711009474,6.836789440258144Z"/>
      <path class="cls-4" d="M876.630700622119548,321.708036529083984l6.207785325677833,38.03193088304397c.387820351912524,2.375692911861734,2.536327997124317,4.054290814879096,4.935274883762759,3.855858781410461l38.403907770672959-3.177461247525571c6.533829778909421-.540477562709384,9.007251780854858-8.818868548945829,3.841022591099318-12.855168584355852l-3.647768442726374-2.849948647986821,15.809462741359312-20.235192421829197,13.454275238720584-17.220689457053595-4.935496848498587-3.856032199242691-13.454275238720584,17.220689457053595-4.935385866130673-3.855945490324302,13.454275238720584-17.220689457053595-4.935496848498587-3.856032199240872-13.454275238720584,17.220689457052686-4.935496848498587-3.856032199240872,13.454275238720584-17.220689457053595-4.935496848498587-3.856032199241781-13.454275238720584,17.220689457053595-4.935496848498587-3.856032199241781,13.454275238720584-17.220689457053595-4.935496848498587-3.856032199239962-13.454275238720584,17.220689457053595-15.809462741355674,20.235192421829197-3.64765746035846-2.849861939071161c-5.166229189755541-4.036300035409113-12.600341037537873.366375827675256-11.544197711009474,6.836789440258144Z"/>
      <rect class="cls-30" x="814.028532189824091" y="777.202614344337576" width="12.846987426696501" height="55.670276457017508" transform="translate(259.131845021296954 -198.031020947144043) rotate(16.311808561273121)"/>
      <rect class="cls-19" x="882.463883723607864" y="445.455244485300341" width="17.778114905722987" height="77.03850000000034" transform="translate(361.391944930856198 1348.776621861616604) rotate(-87.000002421002705)"/>
      <rect class="cls-46" x="412.976048549073028" y="597.974206206674808" width="17.77811490571969" height="77.038500000003182" transform="translate(751.041939309097984 1325.504849341658883) rotate(-172.000004786342515)"/>
      <path class="cls-41" d="M786.262865064976722,122.02177781899627l-33.732797773678612-3.980457322876646c-2.107161908061244-.248598348656742-4.051449725124257,1.164009489061755-4.466167412414507,3.244860681621503l-6.638467173517711,33.311899294862997c-1.129414971670485,5.667389336747874,5.283963325251534,9.774457869991238,9.95913238792491,6.377748595450612l3.300940528093633-2.398273764260011,13.304301538497384,18.311799428780432,11.322316114485147,15.583830624842449,4.466368278972368-3.245006619720698-11.322316114488785-15.583830624842449,4.466368278976006-3.245006619722517,11.322316114485147,15.583830624842449,4.466368278972368-3.245006619722517-11.322316114485147-15.583830624842449,4.46636827896873-3.245006619721607,11.322316114488785,15.583830624842449,4.46636827896873-3.245006619720698-11.322316114485147-15.583830624842449,4.466267845695256-3.244933650672465,11.322316114485147,15.583830624842449,4.466368278976006-3.245006619722517-11.322316114488785-15.583830624842449-13.304301538493746-18.311799428780432,3.301040961370745-2.398346733310063c4.675169062673376-3.396709274538807,2.750957398693572-10.76534840183831-2.988159037307923-11.442457382485372Z"/>
      <path class="cls-27" d="M548.018936324488095,258.590474068497315l5.471761217046151,33.523208607212837c.341844665719691,2.094056988301418,2.235648965193832,3.573658723250446,4.350203181635152,3.39875042881431l33.851262082880567-2.800702847660432c5.759153196439001-.476481408315522,7.939353529793152-7.773478024911128,3.385575434826023-11.331278570490213l-3.215231463957025-2.512013545252557,13.935267179622315-17.83633276151977,11.859284735164692-15.179195786022319-4.350398832677456-3.398903288130896-11.859284735164692,15.179195786024138-4.350398832681094-3.398903288131805,11.859284735164692-15.179195786022319-4.350398832681094-3.398903288130896-11.859284735164692,15.179195786022319-4.350398832681094-3.398903288129077,11.85928473516833-15.179195786022319-4.350398832677456-3.398903288129077-11.85928473516833,15.179195786022319-4.350301007158123-3.398826858473512,11.85928473516833-15.179195786022319-4.350398832681094-3.398903288132715-11.85928473516833,15.179195786024138-13.935267179622315,17.836332761517042-3.215329289479996-2.512089974909031c-4.553778094967129-3.557800545579994-11.106583654716815.322943250687786-10.17554715971346,6.026372489542155Z"/>
      <rect class="cls-22" x="48.011135670629109" y="872.856224266082791" width="16.896502300049569" height="73.218179235118328" transform="translate(-832.976696382052864 1107.501354579933604) rotate(-99.000002754926712)"/>
      <rect class="cls-18" x="216.890864445612692" y="918.986390792890916" width="17.829599233774587" height="77.261593414229083" transform="translate(-348.77530600934324 1756.288324169803218) rotate(-131.000003645411482)"/>
      <rect class="cls-38" x="695.607847828982585" y="551.615652029085595" width="17.272984620748161" height="74.84959889256686" transform="translate(1164.553911891045118 1383.42313145171488) rotate(-160.000004452399992)"/>
      <rect class="cls-13" x="77.617313786981029" y="605.824237384921275" width="16.663614784748319" height="72.208999345690813" transform="translate(56.274726674212431 -5.048221730439309) rotate(4.999990121221756)"/>
      <path class="cls-24" d="M697.238885100736297,8.404307755237824l12.915735897830018,31.53823787901274c.806718179639574,1.969997663832146,2.992214740319469,2.989111246648463,5.01986885642691,2.340802830613029l32.461765315507364-10.378365714141182c5.522757750833989-1.765677812080867,6.00722643455083-9.391492363792167.752326388079382-11.841892016689599l-3.710264228302549-1.730124283390069,9.597775606809591-20.582500255667583,8.167963504267391-17.516257704087366-5.020207518082316-2.340960751107559-8.167963504267391,17.516257704087366-5.020207518078678-2.34096075110574,8.167963504267391-17.516257704088275-5.020207518082316-2.34096075110665-8.167963504271029,17.516257704087366-5.020094630861422-2.340908110942109,8.167963504267391-17.516257704087366-5.020207518082316-2.340960751108469-8.167963504267391,17.516257704087366-5.020207518082316-2.34096075110574,8.167963504267391-17.516257704087366-5.020207518078678-2.34096075110665-8.167963504267391,17.516257704087366-9.597775606809591,20.582500255667583-3.710264228302549-1.730124283390978c-5.254900046471448-2.450399652897431-10.78520164699512,2.822504830387516-8.587828261886898,8.188138205569885Z"/>
      <path class="cls-14" d="M697.238885100736297,1008.404270265900777l12.915735897830018,31.53823787901274c.806718179639574,1.969997663833055,2.992214740319469,2.989111246650282,5.01986885642691,2.340802830614848l32.461765315507364-10.378365714143001c5.522757750833989-1.765677812079957,6.00722643455083-9.391492363789439.752326388079382-11.84189201668778l-3.710264228302549-1.730124283389159,9.597775606809591-20.582500255670311,8.167963504267391-17.516257704086456-5.020207518082316-2.34096075110574-8.167963504267391,17.516257704086456-5.020207518078678-2.34096075110574,8.167963504267391-17.516257704090094-5.020207518082316-2.34096075110574-8.167963504271029,17.516257704086456-5.020094630861422-2.340908110942109,8.167963504267391-17.516257704086456-5.020207518082316-2.340960751109378-8.167963504267391,17.516257704090094-5.020207518082316-2.34096075110574,8.167963504267391-17.516257704090094-5.020207518078678-2.34096075110574-8.167963504267391,17.516257704086456-9.597775606809591,20.582500255670311-3.710264228302549-1.730124283392797c-5.254900046471448-2.450399652898341-10.78520164699512,2.822504830386606-8.587828261886898,8.188138205568976Z"/>
      <rect class="cls-11" x="21.810192567095442" y="327.345915080503914" width="18.176058478152072" height="78.762920072000497" transform="translate(193.291784948786301 36.466874268355355) rotate(30.999990844743426)"/>
      <path class="cls-42" d="M1064.939402747952045,233.989036274605496l41.224441818532796-24.061047725023855c2.575043878881843-1.502878124799281,3.562500936732249-4.7327060475709,2.268090932262567-7.418594425087576l-20.721854604722466-42.99992282104995c-3.525425406660361-7.315627785630568-14.196498379544209-6.501112479675612-16.570781749534945,1.26482191107516l-1.676381772751483,5.483200120748734-30.41777130477567-9.299641862435237-25.886336175881297-7.914243721353159-2.268243947306473,7.419094914955167,25.886336175884935,7.91424372135225-2.268243947299197,7.419094914956986-25.886336175884935-7.914243721353159-2.268243947306473,7.419094914954258,25.886336175881297,7.914243721350431-2.268192942283349,7.418928085002335-25.886336175884935-7.914243721353159-2.268243947302835,7.419094914956986,25.886336175881297,7.914243721353159-2.268243947306473,7.419094914955167-25.886336175881297-7.914243721353159-2.268243947299197,7.419094914954258,25.886336175881297,7.91424372135134,30.417771304772032,9.299641862437056-1.676381772751483,5.483200120747824c-2.374283369990735,7.7659343907535,6.016967517563899,14.408384399473107,13.03052377507629,10.314845243858144Z"/>
      <path class="cls-5" d="M1068.141782714579676,554.925423015845809l23.062311501689692-43.871862272211729c1.440553872842429-2.740535436540085.532916253352596-6.127883271816245-2.08490817195343-7.78097891869038l-41.908532977075083-26.463154861686235c-7.129941070794303-4.502212413342932-16.078635501482495,2.086871809289732-13.896160622254683,10.231974435056145l1.540953852963867,5.750914887243198-31.902905852621188,8.548362592453486-27.150225360492186,7.274884987607948,2.085001941013616,7.781328869394201,27.150225360492186-7.274884987607948,2.085001941013616,7.781328869401477-27.150225360492186,7.27488498760431,2.085001941013616,7.781328869405115,27.150225360492186-7.27488498760431,2.085001941017254,7.781328869401477-27.150225360492186,7.274884987607948,2.085001941013616,7.781328869386925,27.150225360495824-7.27488498760431,2.084955056485342,7.781153894047748-27.150225360495824,7.274884987607948,2.085001941017254,7.781328869397839,27.150225360492186-7.27488498760431,31.902905852621188-8.54836259244621,1.541000737495779,5.751089862591471c2.182474879231449,8.145102625763684,13.226814039288001,9.377066677392577,17.150368976559548,1.912889757248195Z"/>
      <path class="cls-7" d="M987.888646148761836,712.6700482942706l-45.058098516979953,15.752980000936077c-2.814577727098367.984078256646171-4.400091014809732,3.965995274622401-3.642036798970366,6.849675493180257l12.136441314869444,46.16365647999919c2.064683194927056,7.85405620261372,12.695115234193509,9.090643536641437,16.507587135794893,1.920426212040184l2.691908194665302-5.062743351772951,28.084454466286843,14.932768238009885,23.900621197593864,12.708184790160885,3.642200600126671-6.849983558378881-23.900621197593864-12.708184790153609,3.642118699553976-6.849829525781388,23.900621197593864,12.708184790157247,3.642200600130309-6.849983558371605-23.900621197593864-12.708184790157247,3.642200600126671-6.849983558375243,23.90062119760114,12.708184790153609,3.642200600130309-6.849983558371605-23.900621197597502-12.708184790157247,3.642200600130309-6.849983558375243,23.900621197593864,12.708184790157247,3.642200600130309-6.849983558378881-23.900621197593864-12.708184790149971-28.084454466286843-14.932768238013523,2.691826294088969-5.062589319179096c3.812471901601384-7.170217324601253-3.15716810635422-15.291753616198548-10.822949923800479-12.611674639178091Z"/>
      <path class="cls-20" d="M1008.27497287706683-35.092165987508452l-21.652764623220719,44.931389388408206c-1.352503542886552,2.80671807696217-.320740770250268,6.181461416252205,2.370032477741915,7.752025494851296l43.076325420828653,25.141907519350752c7.328619100189826,4.277427319600974,16.096819499412959-2.66341552537142,13.615877453517896-10.77820980420347l-1.751688984368229-5.72951543635736,31.784192926061223-9.717404769047789,27.049197487853235-8.269771117955315-2.370139070309961-7.752374143370616-27.049197487853235,8.269771117953496-2.370139070302685-7.752374143366978,27.049197487849597-8.269771117958044-2.370139070309961-7.752374143368797-27.049197487853235,8.269771117954406-2.370139070302685-7.752374143370616,27.049197487853235-8.269771117957134-2.370139070309961-7.752374143366069-27.049197487853235,8.269771117952587-2.3700857740223-7.752199819109592,27.049197487849597-8.269771117956225-2.370139070306323-7.752374143371526-27.049197487849597,8.269771117953496-31.784192926061223,9.717404769053246-1.75174228065589-5.729689760618385c-2.480942045884149-8.114794278826594-13.631379772010405-8.965897184129062-17.315119267976115-1.321462722099568Z"/>
      <path class="cls-40" d="M1008.27497287706683,972.218355876460919l-21.652764623220719,44.931389388406387c-1.352503542886552,2.806718076961261-.320740770250268,6.181461416254024,2.370032477741915,7.752025494854024l43.076325420828653,25.141907519348024c7.328619100189826,4.277427319600974,16.096819499412959-2.663415525374148,13.615877453517896-10.77820980420438l-1.751688984368229-5.729515436356451,31.784192926061223-9.71740476904597,27.049197487853235-8.269771117957134-2.370139070309961-7.752374143372435-27.049197487853235,8.269771117957134-2.370139070302685-7.752374143372435,27.049197487849597-8.269771117953496-2.370139070309961-7.752374143368797-27.049197487853235,8.269771117957134-2.370139070302685-7.752374143372435,27.049197487853235-8.269771117957134-2.370139070309961-7.752374143372435-27.049197487853235,8.269771117953496-2.3700857740223-7.752199819107773,27.049197487849597-8.269771117953496-2.370139070306323-7.752374143368797-27.049197487849597,8.269771117949858-31.784192926061223,9.717404769049608-1.75174228065589-5.729689760610199c-2.480942045884149-8.114794278830232-13.631379772010405-8.965897184130881-17.315119267976115-1.321462722102297Z"/>
    </g>
  </g>
</svg>