<svg enable-background="new 0 0 760.3 760.3" height="760.3" viewBox="0 0 760.3 760.3" width="760.3" xmlns="http://www.w3.org/2000/svg"><path d="m-53.8-153.6h107.5v1827.8h-107.5z" fill="#383838" transform="matrix(.7071 -.7071 .7071 .7071 -537.5798 222.6722)"/><path d="m-15.7-191.6h107.5v1827.8h-107.5z" fill="#414141" transform="matrix(.7071 -.7071 .7071 .7071 -499.5681 238.4186)"/><path d="m22.3-229.7h107.5v1827.8h-107.5z" fill="#383838" transform="matrix(.7071 -.7071 .7071 .7071 -461.5554 254.164)"/><path d="m60.3-267.7h107.5v1827.8h-107.5z" fill="#414141" transform="matrix(.7071 -.7071 .7071 .7071 -423.5427 269.9094)"/><path d="m98.3-305.7h107.5v1827.8h-107.5z" fill="#383838" transform="matrix(.7071 -.7071 .7071 .7071 -385.5299 285.6547)"/><path d="m136.3-343.7h107.5v1827.8h-107.5z" fill="#414141" transform="matrix(.7071 -.7071 .7071 .7071 -347.5172 301.4001)"/><path d="m174.3-381.7h107.5v1827.8h-107.5z" fill="#383838" transform="matrix(.7071 -.7071 .7071 .7071 -309.5045 317.1454)"/><path d="m212.3-419.7h107.5v1827.8h-107.5z" fill="#414141" transform="matrix(.7071 -.7071 .7071 .7071 -271.4918 332.8908)"/><path d="m250.3-457.7h107.5v1827.8h-107.5z" fill="#383838" transform="matrix(.7071 -.7071 .7071 .7071 -233.4791 348.6362)"/><path d="m288.4-495.7h107.5v1827.8h-107.5z" fill="#414141" transform="matrix(.7071 -.7071 .7071 .7071 -195.4664 364.3816)"/><path d="m326.4-533.8h107.5v1827.8h-107.5z" fill="#383838" transform="matrix(.7071 -.7071 .7071 .7071 -157.4537 380.127)"/><path d="m364.4-571.8h107.5v1827.8h-107.5z" fill="#414141" transform="matrix(.7071 -.7071 .7071 .7071 -119.441 395.8723)"/><path d="m402.4-609.8h107.5v1827.8h-107.5z" fill="#383838" transform="matrix(.7071 -.7071 .7071 .7071 -81.4284 411.6177)"/><path d="m440.4-647.8h107.5v1827.8h-107.5z" fill="#414141" transform="matrix(.7071 -.7071 .7071 .7071 -43.4157 427.3631)"/><path d="m478.4-685.8h107.5v1827.8h-107.5z" fill="#383838" transform="matrix(.7071 -.7071 .7071 .7071 -5.403 443.1085)"/><path d="m516.4-723.8h107.5v1827.8h-107.5z" fill="#414141" transform="matrix(.7071 -.7071 .7071 .7071 32.6098 458.8539)"/><path d="m554.4-761.8h107.5v1827.8h-107.5z" fill="#383838" transform="matrix(.7071 -.7071 .7071 .7071 70.6225 474.5993)"/><path d="m592.5-799.8h107.5v1827.8h-107.5z" fill="#414141" transform="matrix(.7071 -.7071 .7071 .7071 108.6352 490.3446)"/><path d="m630.5-837.9h107.5v1827.8h-107.5z" fill="#383838" transform="matrix(.7071 -.7071 .7071 .7071 146.6478 506.09)"/><path d="m668.5-875.9h107.5v1827.8h-107.5z" fill="#414141" transform="matrix(.7071 -.7071 .7071 .7071 184.6606 521.8354)"/><path d="m706.5-913.9h107.5v1827.8h-107.5z" fill="#383838" transform="matrix(.7071 -.7071 .7071 .7071 222.6743 537.5817)"/><path d="m752.4-932.9h53.8v1827.8h-53.8z" fill="#414141" transform="matrix(.7071 -.7071 .7071 .7071 241.6817 545.4554)"/><path d="m0 0h760.3v760.3h-760.3z" fill="none"/></svg>