<?xml version="1.0" encoding="UTF-8" standalone="no"?>
<!-- Created with Inkscape (http://www.inkscape.org/) -->

<svg
   width="69.849998mm"
   height="95.25mm"
   viewBox="0 0 69.849998 95.25"
   version="1.1"
   id="svg1"
   inkscape:version="1.4 (86a8ad7, 2024-10-11)"
   sodipodi:docname="FLCL Back.svg"
   inkscape:export-filename="FLCL back.png"
   inkscape:export-xdpi="1000"
   inkscape:export-ydpi="1000"
   xml:space="preserve"
   xmlns:inkscape="http://www.inkscape.org/namespaces/inkscape"
   xmlns:sodipodi="http://sodipodi.sourceforge.net/DTD/sodipodi-0.dtd"
   xmlns:xlink="http://www.w3.org/1999/xlink"
   xmlns="http://www.w3.org/2000/svg"
   xmlns:svg="http://www.w3.org/2000/svg"><sodipodi:namedview
     id="namedview1"
     pagecolor="#505050"
     bordercolor="#ffffff"
     borderopacity="1"
     inkscape:showpageshadow="0"
     inkscape:pageopacity="0"
     inkscape:pagecheckerboard="1"
     inkscape:deskcolor="#505050"
     inkscape:document-units="mm"
     inkscape:zoom="2.8284271"
     inkscape:cx="113.13709"
     inkscape:cy="172.00373"
     inkscape:window-width="2560"
     inkscape:window-height="1351"
     inkscape:window-x="-9"
     inkscape:window-y="-9"
     inkscape:window-maximized="1"
     inkscape:current-layer="layer8" /><defs
     id="defs1"><linearGradient
       id="linearGradient30"
       inkscape:collect="always"><stop
         style="stop-color:#333a2d;stop-opacity:1;"
         offset="0"
         id="stop30" /><stop
         style="stop-color:#282d1b;stop-opacity:1;"
         offset="0.13434343"
         id="stop32" /><stop
         style="stop-color:#030102;stop-opacity:1;"
         offset="1"
         id="stop31" /></linearGradient><linearGradient
       id="linearGradient26"
       inkscape:collect="always"><stop
         style="stop-color:#333a2d;stop-opacity:1;"
         offset="0"
         id="stop26" /><stop
         style="stop-color:#282d1b;stop-opacity:1;"
         offset="0.12626263"
         id="stop28" /><stop
         style="stop-color:#030102;stop-opacity:1;"
         offset="1"
         id="stop27" /></linearGradient><linearGradient
       inkscape:collect="always"
       xlink:href="#linearGradient3"
       id="linearGradient4"
       x1="24.858698"
       y1="13.302065"
       x2="37.908806"
       y2="74.697929"
       gradientUnits="userSpaceOnUse"
       gradientTransform="matrix(1.1128371,0,0,1.0823863,-1.8908737e-6,-9.6911624e-8)" /><linearGradient
       id="linearGradient3"
       inkscape:collect="always"><stop
         style="stop-color:#e3d3af;stop-opacity:1;"
         offset="0"
         id="stop3" /><stop
         style="stop-color:#e2e3d0;stop-opacity:1;"
         offset="0.26986301"
         id="stop5" /><stop
         style="stop-color:#e3e7e6;stop-opacity:1;"
         offset="1"
         id="stop4" /></linearGradient><linearGradient
       inkscape:collect="always"
       xlink:href="#linearGradient6"
       id="linearGradient7"
       x1="46.110424"
       y1="6.5565104"
       x2="60.404369"
       y2="6.5565104"
       gradientUnits="userSpaceOnUse"
       gradientTransform="matrix(3.1036168,-4.6898563e-8,4.6898562e-8,3.1036168,-106.49388,-25.902848)" /><linearGradient
       id="linearGradient6"
       inkscape:collect="always"><stop
         style="stop-color:#606853;stop-opacity:1;"
         offset="0.08607595"
         id="stop6" /><stop
         style="stop-color:#282d1b;stop-opacity:1;"
         offset="0.45822784"
         id="stop8" /><stop
         style="stop-color:#030102;stop-opacity:1;"
         offset="0.91139239"
         id="stop7" /></linearGradient><linearGradient
       inkscape:collect="always"
       xlink:href="#linearGradient6"
       id="linearGradient10"
       gradientUnits="userSpaceOnUse"
       gradientTransform="matrix(1.0356077,-1.5270048e-8,1.5270048e-8,1.0356077,21.807076,19.648993)"
       x1="46.110424"
       y1="6.5565104"
       x2="60.404369"
       y2="6.5565104" /><linearGradient
       inkscape:collect="always"
       xlink:href="#linearGradient6"
       id="linearGradient11"
       gradientUnits="userSpaceOnUse"
       gradientTransform="matrix(0.49897243,0,0,0.49897243,56.570001,6.6536991)"
       x1="46.110424"
       y1="6.5565104"
       x2="60.404369"
       y2="6.5565104" /><linearGradient
       inkscape:collect="always"
       xlink:href="#linearGradient6"
       id="linearGradient12"
       gradientUnits="userSpaceOnUse"
       gradientTransform="matrix(0.28412357,0,0,0.28412357,73.00747,-15.614612)"
       x1="46.110424"
       y1="6.5565104"
       x2="60.404369"
       y2="6.5565104" /><linearGradient
       inkscape:collect="always"
       xlink:href="#linearGradient6"
       id="linearGradient14"
       gradientUnits="userSpaceOnUse"
       gradientTransform="matrix(0.84322764,1.3144734e-8,-1.3144735e-8,0.84322764,47.914938,-4.9999795)"
       x1="46.110424"
       y1="6.5565104"
       x2="60.404369"
       y2="6.5565104" /><linearGradient
       inkscape:collect="always"
       xlink:href="#linearGradient6"
       id="linearGradient18"
       gradientUnits="userSpaceOnUse"
       gradientTransform="matrix(0.84322764,1.3144734e-8,-1.3144735e-8,0.84322764,-19.917377,-16.984286)"
       x1="46.110424"
       y1="6.5565104"
       x2="60.404369"
       y2="6.5565104" /><linearGradient
       inkscape:collect="always"
       xlink:href="#linearGradient6"
       id="linearGradient19"
       gradientUnits="userSpaceOnUse"
       gradientTransform="matrix(0.28412357,0,0,0.28412357,14.542923,0.96188807)"
       x1="46.110424"
       y1="6.5565104"
       x2="60.404369"
       y2="6.5565104" /><linearGradient
       inkscape:collect="always"
       xlink:href="#linearGradient6"
       id="linearGradient20"
       gradientUnits="userSpaceOnUse"
       gradientTransform="matrix(0.49897243,0,0,0.49897243,8.0958141,-24.123742)"
       x1="46.110424"
       y1="6.5565104"
       x2="60.404369"
       y2="6.5565104" /><linearGradient
       inkscape:collect="always"
       xlink:href="#linearGradient6"
       id="linearGradient21"
       gradientUnits="userSpaceOnUse"
       gradientTransform="matrix(1.0356077,-1.5270048e-8,1.5270048e-8,1.0356077,-14.300854,-44.155951)"
       x1="46.110424"
       y1="6.5565104"
       x2="60.404369"
       y2="6.5565104" /><linearGradient
       inkscape:collect="always"
       xlink:href="#linearGradient26"
       id="linearGradient27"
       x1="6.2785606"
       y1="42.314728"
       x2="46.733479"
       y2="58.659569"
       gradientUnits="userSpaceOnUse" /><linearGradient
       inkscape:collect="always"
       xlink:href="#linearGradient30"
       id="linearGradient31"
       x1="29.614729"
       y1="27.81431"
       x2="57.073238"
       y2="61.722752"
       gradientUnits="userSpaceOnUse" /></defs><g
     inkscape:label="Template"
     inkscape:groupmode="layer"
     id="layer1"
     style="display:none"><g
       id="g9"
       inkscape:label="artwork"
       transform="translate(3.0540088,1.644291)"><rect
         style="fill:#8c8c8c;fill-opacity:1;stroke:none;stroke-width:22.7351;stroke-opacity:0.727963"
         id="artwork_common_size"
         width="58.419998"
         height="45.720001"
         x="2.6610005"
         y="6.1047659"
         inkscape:highlight-color="#47ee3b" /><text
         xml:space="preserve"
         style="font-style:normal;font-variant:normal;font-weight:normal;font-stretch:normal;font-size:7.05556px;line-height:5.61111px;font-family:Helvetica;-inkscape-font-specification:Helvetica;text-align:center;writing-mode:lr-tb;direction:ltr;text-anchor:middle;fill:#000000;fill-opacity:1;stroke:none;stroke-width:20;stroke-opacity:0.727963"
         x="32.913391"
         y="30.34341"
         id="10"
         inkscape:label="art_label"><title
           id="title9">art_label</title><tspan
           sodipodi:role="line"
           style="font-style:normal;font-variant:normal;font-weight:bold;font-stretch:normal;font-size:7.05556px;line-height:5.61111px;font-family:Helvetica;-inkscape-font-specification:Helvetica;fill:#000000;fill-opacity:1;stroke-width:20"
           x="32.913391"
           y="30.34341"
           id="tspan8">ARTWORK</tspan><tspan
           sodipodi:role="line"
           style="font-style:normal;font-variant:normal;font-weight:bold;font-stretch:normal;font-size:7.05556px;line-height:5.61111px;font-family:Helvetica;-inkscape-font-specification:Helvetica;fill:#000000;fill-opacity:1;stroke-width:20"
           x="32.913391"
           y="35.954521"
           id="tspan9">(53×45 mm)</tspan></text></g><g
       id="g1"
       inkscape:label="textbox"
       transform="translate(2.5400089,1.7134743)"><rect
         style="fill:#dadada;fill-opacity:1;stroke:none;stroke-width:21.1651;stroke-opacity:0.727963"
         id="rect12"
         width="58.419998"
         height="32.512001"
         x="3.1749985"
         y="51.755585" /><text
         xml:space="preserve"
         style="font-style:normal;font-variant:normal;font-weight:normal;font-stretch:normal;font-size:7.27948px;line-height:5.78919px;font-family:Helvetica;-inkscape-font-specification:Helvetica;text-align:center;writing-mode:lr-tb;direction:ltr;text-anchor:middle;fill:#000000;fill-opacity:1;stroke:none;stroke-width:20.6347;stroke-opacity:0.727963"
         x="31.929399"
         y="66.533684"
         id="text14"
         inkscape:label="art_label"
         transform="scale(1.031737,0.96923927)"><title
           id="title13">art_label</title><tspan
           sodipodi:role="line"
           style="font-style:normal;font-variant:normal;font-weight:bold;font-stretch:normal;font-size:7.27948px;line-height:5.78919px;font-family:Helvetica;-inkscape-font-specification:Helvetica;fill:#000000;fill-opacity:1;stroke-width:20.6347"
           x="31.929399"
           y="66.533684"
           id="tspan13" /><tspan
           sodipodi:role="line"
           style="font-style:normal;font-variant:normal;font-weight:bold;font-stretch:normal;font-size:7.27948px;line-height:5.78919px;font-family:Helvetica;-inkscape-font-specification:Helvetica;fill:#000000;fill-opacity:1;stroke-width:20.6347"
           x="31.929399"
           y="72.322876"
           id="tspan14">TEXTBOX</tspan><tspan
           sodipodi:role="line"
           style="font-style:normal;font-variant:normal;font-weight:bold;font-stretch:normal;font-size:7.27948px;line-height:5.78919px;font-family:Helvetica;-inkscape-font-specification:Helvetica;fill:#000000;fill-opacity:1;stroke-width:20.6347"
           x="31.929399"
           y="78.112061"
           id="tspan15">(53×32.5 mm)</tspan></text></g><g
       id="g3"
       inkscape:label="types"
       transform="matrix(1.0354942,0,0,1,2.4273134,6.2425194)"><rect
         style="fill:#58a96f;fill-opacity:1;stroke:none;stroke-width:45.8667;stroke-opacity:0.727963"
         id="rect13"
         width="56.417503"
         height="5"
         x="3.175"
         y="47.22654"
         inkscape:label="type" /><text
         xml:space="preserve"
         style="font-style:normal;font-variant:normal;font-weight:bold;font-stretch:normal;font-size:3px;line-height:2.38582px;font-family:Helvetica;-inkscape-font-specification:'Helvetica Bold';text-align:center;writing-mode:lr-tb;direction:ltr;text-anchor:middle;fill:#000000;fill-opacity:1;stroke:none;stroke-width:20;stroke-opacity:0.727963"
         x="47.737366"
         y="50.369038"
         id="text16"
         inkscape:label="type"><tspan
           sodipodi:role="line"
           id="tspan16"
           style="font-style:normal;font-variant:normal;font-weight:bold;font-stretch:normal;font-size:3px;line-height:2.38582px;font-family:Helvetica;-inkscape-font-specification:'Helvetica Bold';fill:#ffffff;fill-opacity:1;stroke-width:20"
           x="47.737366"
           y="50.369038">TYPE (5 mm)</tspan></text></g><g
       id="g2"
       inkscape:label="title"
       transform="matrix(1.0354943,0,0,1,2.4273092,2.4977611)"><rect
         style="fill:#ffffff;fill-opacity:1;stroke:none;stroke-width:45.8668;stroke-opacity:0.727963"
         id="rect11"
         width="56.417503"
         height="5"
         x="3.175"
         y="3.2265403"
         inkscape:label="title" /><text
         xml:space="preserve"
         style="font-style:normal;font-variant:normal;font-weight:bold;font-stretch:normal;font-size:3px;line-height:2.38582px;font-family:Helvetica;-inkscape-font-specification:'Helvetica Bold';text-align:center;writing-mode:lr-tb;direction:ltr;text-anchor:middle;fill:#000000;fill-opacity:1;stroke:none;stroke-width:20;stroke-opacity:0.727963"
         x="15.987335"
         y="6.4481797"
         id="text17"
         inkscape:label="title"><tspan
           sodipodi:role="line"
           id="tspan17"
           style="font-style:normal;font-variant:normal;font-weight:bold;font-stretch:normal;font-size:3px;line-height:2.38582px;font-family:Helvetica;-inkscape-font-specification:'Helvetica Bold';fill:#000000;fill-opacity:1;stroke-width:20"
           x="15.987335"
           y="6.4481797">TITLE (5 mm)</tspan></text></g><g
       id="g4"
       inkscape:label="margin"
       style="fill:#a11616;fill-opacity:1"
       transform="translate(3.1106327,3.3641555)"><g
         id="margin"
         style="fill:#a11616;fill-opacity:1"
         inkscape:highlight-color="#ffffff"
         transform="translate(0.06437085,-0.18708867)"><rect
           style="fill:#a11616;fill-opacity:1;stroke:none;stroke-width:80.4083;stroke-opacity:0.727963"
           id="rect1"
           width="2.54"
           height="88.900002"
           x="4.4408921e-16"
           y="0" /><rect
           style="fill:#a11616;fill-opacity:1;stroke:none;stroke-width:80.4081;stroke-opacity:0.727963"
           id="rect2"
           width="2.54"
           height="88.899994"
           x="60.960003"
           y="-4.4408921e-16" /><rect
           style="fill:#a11616;fill-opacity:1;stroke:none;stroke-width:26.5766;stroke-opacity:0.727963"
           id="rect4"
           width="63.5"
           height="2.54"
           x="1.9073486e-06"
           y="0" /><rect
           style="fill:#a11616;fill-opacity:1;stroke:none;stroke-width:26.5767;stroke-opacity:0.727963"
           id="rect5"
           width="63.5"
           height="2.54"
           x="2.8610229e-06"
           y="86.359993"
           inkscape:label="rect5" /></g><text
         xml:space="preserve"
         style="font-style:normal;font-variant:normal;font-weight:bold;font-stretch:normal;font-size:2px;line-height:1.59055px;font-family:Helvetica;-inkscape-font-specification:'Helvetica Bold';text-align:center;writing-mode:lr-tb;direction:ltr;text-anchor:middle;fill:#ffffff;fill-opacity:1;stroke:none;stroke-width:20;stroke-opacity:0.727963"
         x="53.69836"
         y="1.668407"
         id="text5"
         inkscape:label="margin"><tspan
           sodipodi:role="line"
           id="tspan5"
           style="font-style:normal;font-variant:normal;font-weight:bold;font-stretch:normal;font-size:2px;line-height:1.59055px;font-family:Helvetica;-inkscape-font-specification:'Helvetica Bold';fill:#ffffff;fill-opacity:1;stroke-width:20"
           x="53.69836"
           y="1.668407">MARGIN (2.54 mm)</tspan></text></g></g><g
     id="g5"
     inkscape:label="Card"
     style="display:inline"><g
       inkscape:groupmode="layer"
       id="layer5"
       inkscape:label="Background"
       style="display:inline"><rect
         style="display:inline;fill:url(#linearGradient4);stroke-width:0.0548752"
         id="rect3"
         width="69.849998"
         height="95.25"
         x="-2.2723434e-06"
         y="-1.9073487e-07" /><circle
         style="display:inline;fill:url(#linearGradient10);stroke-width:0.0383176;stroke-dasharray:none"
         id="circle10"
         cx="76.960846"
         cy="26.438965"
         r="7.4014602"
         transform="rotate(59.142332)"
         inkscape:label="ball1" /><circle
         style="display:inline;fill:url(#linearGradient11);stroke-width:0.018462;stroke-dasharray:none"
         id="circle11"
         cx="83.143974"
         cy="9.9252157"
         r="3.5661423"
         transform="rotate(59.142332)"
         inkscape:label="ball1" /><circle
         style="display:inline;fill:url(#linearGradient12);stroke-width:0.0105126;stroke-dasharray:none"
         id="circle12"
         cx="88.139153"
         cy="-13.751754"
         r="2.0306234"
         transform="rotate(59.142332)"
         inkscape:label="ball1" /><circle
         style="display:inline;fill:url(#linearGradient14);stroke-width:0.0311995;stroke-dasharray:none"
         id="circle14"
         cx="92.823036"
         cy="0.52864712"
         r="6.0265245"
         transform="rotate(59.142332)"
         inkscape:label="ball1" /><circle
         style="display:inline;fill:url(#linearGradient21);stroke-width:0.0383176;stroke-dasharray:none"
         id="circle15"
         cx="40.852913"
         cy="-37.365978"
         r="7.4014602"
         transform="rotate(59.14233)"
         inkscape:label="ball1" /><circle
         style="display:inline;fill:url(#linearGradient20);stroke-width:0.018462;stroke-dasharray:none"
         id="circle16"
         cx="34.669785"
         cy="-20.852226"
         r="3.5661423"
         transform="rotate(59.14233)"
         inkscape:label="ball1" /><circle
         style="display:inline;fill:url(#linearGradient19);stroke-width:0.0105126;stroke-dasharray:none"
         id="circle17"
         cx="29.674604"
         cy="2.824744"
         r="2.0306234"
         transform="rotate(59.14233)"
         inkscape:label="ball1" /><circle
         style="display:inline;fill:url(#linearGradient18);stroke-width:0.0311995;stroke-dasharray:none"
         id="circle18"
         cx="24.990721"
         cy="-11.455659"
         r="6.0265245"
         transform="rotate(59.14233)"
         inkscape:label="ball1" /></g><g
       inkscape:groupmode="layer"
       id="layer2"
       inkscape:label="Logo"><path
         id="path6"
         style="display:inline;fill:url(#linearGradient7);stroke-width:0.114834;stroke-dasharray:none"
         inkscape:label="backdorp"
         d="M 40.136302 -17.546016 A 22.181465 22.181465 0 0 0 36.615032 -5.5540074 A 22.181465 22.181465 0 0 0 58.796632 16.627692 A 22.181465 22.181465 0 0 0 80.978331 -5.5539068 A 22.181465 22.181465 0 0 0 58.796732 -27.735607 A 22.181465 22.181465 0 0 0 40.136302 -17.546016 z M 55.19664 -16.481162 L 55.953645 -17.739082 L 57.320418 -16.922456 L 58.68719 -16.105831 L 57.770495 -14.554445 C 56.870747 -13.03198 56.852807 -13.000671 56.804266 -12.855674 C 56.576623 -12.175528 56.59357 -11.539562 56.854243 -10.992791 C 57.032881 -10.618092 57.301687 -10.308173 57.714674 -10.000726 C 57.904757 -9.8592205 59.988917 -8.6124058 60.155526 -8.5405488 C 60.65356 -8.3257241 61.093896 -8.2802621 61.539399 -8.396349 C 62.02677 -8.5233461 62.490827 -8.8648292 62.842264 -9.3558174 C 62.903836 -9.4419072 63.335299 -10.15105 63.856144 -11.022506 L 64.762357 -12.53922 L 66.182807 -11.690523 L 67.602813 -10.842091 L 66.909604 -9.6869165 C 66.528166 -9.0514345 66.118543 -8.377624 65.999543 -8.1899588 C 65.831239 -7.9244525 65.744296 -7.8013723 65.607434 -7.6344434 C 65.052092 -6.9570743 64.515559 -6.4615792 63.889991 -6.048607 C 63.277228 -5.6440889 62.714031 -5.3940888 62.07415 -5.2421296 C 60.992256 -4.985201 59.849761 -5.1189494 58.742743 -5.6319354 C 58.400081 -5.7907268 57.837504 -6.1096071 56.879316 -6.6893204 C 55.831578 -7.3232491 55.683165 -7.4249904 55.301835 -7.7708976 C 54.234674 -8.7389133 53.573 -10.047994 53.46706 -11.399067 C 53.416903 -12.038717 53.48989 -12.729359 53.678982 -13.39803 C 53.782541 -13.764236 53.93316 -14.171624 54.106226 -14.554396 C 54.286908 -14.954011 54.436616 -15.218384 55.19664 -16.481162 z M 47.303452 -2.6135625 L 48.650705 -1.8085992 L 49.998402 -1.0033709 L 49.142549 0.42905642 C 48.603133 1.3318675 48.261899 1.9151451 48.218725 2.0074855 C 47.974457 2.5295885 47.89877 3.0844873 48.006692 3.5633267 C 48.122938 4.0791046 48.431433 4.5026227 48.962541 4.874263 C 49.070138 4.9495006 50.401229 5.7518227 52.434292 6.9666402 L 55.731226 8.9365075 L 54.882529 10.356957 C 54.203071 11.494156 54.029727 11.776914 54.013 11.773989 C 54.001514 11.772019 52.510803 10.88309 50.700723 9.7985669 L 47.409724 7.8268275 L 47.227148 7.6780105 C 46.116007 6.7743945 45.408685 5.8299011 45.021059 4.7327605 C 44.937539 4.4963654 44.821591 4.0173355 44.788771 3.7734759 C 44.672283 2.907976 44.812488 1.9602248 45.190275 1.064279 C 45.352663 0.67915802 45.377869 0.6342701 46.34266 -0.99341142 L 47.303452 -2.6135625 z M 50.743238 -2.0374027 L 51.56861 -3.4188145 L 52.393982 -4.8002262 L 54.173304 -3.7431286 C 56.096974 -2.6002887 56.002154 -2.6527683 56.396677 -2.5194416 C 56.716662 -2.4113012 57.100199 -2.3481034 57.423173 -2.3503856 C 58.167403 -2.3556453 58.787326 -2.6797098 59.216437 -3.28834 C 59.284857 -3.3853052 59.469804 -3.6804277 59.627681 -3.944391 L 59.914732 -4.4248242 L 60.034235 -4.4051935 C 60.243852 -4.3709991 60.800195 -4.331592 61.058248 -4.3327336 C 61.60668 -4.3351594 62.060663 -4.3927681 62.601369 -4.5286151 C 63.053952 -4.642322 63.292195 -4.7268554 63.681878 -4.9124101 L 63.957788 -5.0437307 L 63.512766 -4.298904 C 63.268026 -3.8892485 62.9876 -3.4149044 62.889472 -3.244625 C 62.791344 -3.0743455 62.488076 -2.5715652 62.215779 -2.127152 C 61.677734 -1.2491206 61.661795 -1.2267812 61.337595 -0.88504875 C 60.565512 -0.071214744 59.561684 0.51669707 58.481045 0.78771043 C 57.405354 1.0574838 56.244264 0.94563689 55.137356 0.46581369 C 54.837687 0.33591313 54.252329 0.0039223745 51.498689 -1.5980718 L 50.743238 -2.0374027 z M 59.276061 -16.318645 L 60.101433 -17.700057 L 60.92707 -19.081912 L 62.726354 -18.012887 C 64.372206 -17.034875 64.539379 -16.93833 64.680312 -16.883352 C 65.459372 -16.57947 66.196613 -16.543392 66.778067 -16.780355 C 66.99545 -16.868946 67.182159 -16.984547 67.369401 -17.146406 C 67.663645 -17.400759 67.599887 -17.305968 68.665325 -19.078604 L 69.615997 -20.659653 L 70.975672 -19.847268 L 72.335346 -19.034883 L 72.158897 -18.746616 C 72.061954 -18.588069 71.590274 -17.80947 71.110571 -17.016231 C 70.146397 -15.421811 70.208149 -15.51429 69.863348 -15.155466 C 69.53846 -14.817336 69.183327 -14.523693 68.789532 -14.26803 C 67.921162 -13.704257 67.005712 -13.398419 66.043694 -13.350823 C 65.267521 -13.312421 64.479692 -13.464547 63.690936 -13.804832 C 63.293334 -13.976367 63.351562 -13.943788 60.13159 -15.820121 L 59.276061 -16.318645 z M 50.478643 1.5247287 L 51.552899 -0.27323591 L 52.899709 0.53146231 L 54.246519 1.3361605 L 52.98328 3.4504214 L 51.720042 5.5646823 L 50.692887 4.9443516 C 49.557859 4.2588505 49.571136 4.267853 49.444682 4.0733569 C 49.372442 3.9622342 49.323176 3.7826443 49.329399 3.6517177 C 49.331777 3.6016271 49.349417 3.5070883 49.368802 3.4416933 C 49.403063 3.3261159 49.434338 3.2725638 50.478643 1.5247287 z M 58.818608 8.8722987 L 58.977589 8.9618696 L 59.136748 9.0521492 L 59.076847 9.1524058 L 59.016945 9.2526624 L 59.883322 9.7703091 L 60.750142 10.288221 L 60.809779 10.188408 L 60.869415 10.088595 L 61.02956 10.184279 L 61.189704 10.279963 L 61.026962 10.552341 L 60.863955 10.825163 L 60.650502 10.704852 C 60.374993 10.549675 58.514152 9.4321615 58.511652 9.4203006 C 58.510631 9.4153805 58.579227 9.2901119 58.664191 9.1418259 L 58.818608 8.8722987 z M 71.951173 -13.092342 L 72.114975 -13.366495 L 72.278512 -13.640205 L 73.465178 -12.93119 L 74.652287 -12.221911 L 74.489015 -11.948645 L 74.325478 -11.674936 L 74.158679 -11.774595 L 73.99188 -11.874255 L 74.051782 -11.974512 L 74.111419 -12.074324 L 73.25214 -12.58773 L 72.392417 -13.101401 L 72.330644 -13.007079 L 72.269578 -12.912936 L 72.110154 -13.002771 L 71.951173 -13.092342 z M 69.453447 -6.8817868 C 69.516279 -6.9740003 69.600346 -7.0520916 69.694103 -7.0991852 C 69.906877 -7.2060676 70.149521 -7.1829535 70.361652 -7.0356367 C 70.602853 -6.8681312 70.700271 -6.5605256 70.598781 -6.285958 C 70.559226 -6.1789492 70.531703 -6.1376006 70.442972 -6.0503714 C 70.023047 -5.6375716 69.292561 -5.9884576 69.340654 -6.580166 C 69.349006 -6.6829222 69.390614 -6.7895733 69.453447 -6.8817868 z M 63.418043 3.2246054 C 63.485636 3.1220045 63.510768 3.0955787 63.591323 3.0434019 C 63.768637 2.9285578 63.994528 2.9083555 64.188376 2.9901852 C 64.614506 3.1700751 64.740359 3.6865175 64.439408 4.0208665 C 64.318038 4.1557041 64.10074 4.245316 63.929763 4.2310526 C 63.790327 4.2194182 63.705072 4.1886941 63.584339 4.105934 C 63.357189 3.9502376 63.25762 3.6967626 63.318986 3.4296886 C 63.333646 3.3658862 63.358815 3.3145702 63.418043 3.2246054 z M 62.211012 5.2538599 C 62.292852 5.1168866 62.305622 5.1025107 62.391951 5.0447256 C 62.628033 4.8867703 62.951461 4.9066112 63.171226 5.0925579 C 63.383019 5.2717662 63.461298 5.5288939 63.379702 5.7793663 C 63.342713 5.8929207 63.314698 5.9428338 63.244288 6.0211188 C 62.99746 6.295336 62.560611 6.2972473 62.292645 6.0250078 C 62.15636 5.8865462 62.097387 5.7244681 62.112711 5.5322342 C 62.12286 5.4048972 62.125339 5.3972493 62.211012 5.2538599 z M 68.247222 -4.8478367 C 68.329639 -4.9857766 68.34697 -5.0064363 68.419478 -5.0555369 C 68.515216 -5.1204319 68.650108 -5.1633092 68.768719 -5.1665211 C 69.078507 -5.1749092 69.377562 -4.9342456 69.438567 -4.6272405 C 69.455854 -4.5402266 69.441108 -4.3861658 69.405954 -4.2915592 C 69.366686 -4.1858689 69.34788 -4.1555839 69.270231 -4.0734688 L 69.269787 -4.0737339 C 69.134452 -3.9306916 68.942923 -3.8588105 68.743988 -3.8768116 C 68.540586 -3.895213 68.317 -4.042954 68.216736 -4.2255476 C 68.165403 -4.3190412 68.133765 -4.4831935 68.145415 -4.5968408 C 68.15442 -4.6847335 68.164651 -4.7096375 68.247222 -4.8478367 z M 67.106553 -2.9246113 C 67.177848 -3.061722 67.294906 -3.1815381 67.450063 -3.2587413 C 67.493957 -3.2805789 67.548683 -3.3025074 67.571655 -3.3070896 C 67.612667 -3.3152722 67.613784 -3.3133904 67.640613 -3.2068943 L 67.667933 -3.0984685 L 67.594513 -3.0713021 C 67.319066 -2.9691033 67.181614 -2.6292077 67.325265 -2.4050563 C 67.424955 -2.2495051 67.644954 -2.1678292 67.807537 -2.2258643 C 68.009645 -2.2980077 68.147757 -2.5453534 68.11122 -2.7704038 L 68.101538 -2.8297642 L 68.21413 -2.8570032 L 68.326542 -2.8849508 L 68.338648 -2.8084903 C 68.356486 -2.695473 68.334738 -2.5046157 68.291731 -2.3964767 C 68.248582 -2.2879752 68.22233 -2.2439072 68.157615 -2.1720084 C 67.893399 -1.8784773 67.428329 -1.900352 67.162983 -2.2190875 C 66.995427 -2.4203571 66.987726 -2.6960934 67.106553 -2.9246113 z M 61.06395 7.2190165 L 61.126503 7.1143238 C 61.160872 7.0567995 61.236685 6.9391644 61.294936 6.8525696 L 61.401083 6.6950646 L 61.493187 6.7555132 L 61.585556 6.8155182 L 61.49572 6.9749428 L 61.405706 7.1336587 L 61.498864 7.1893197 L 61.591579 7.2447155 L 61.687263 7.0845712 L 61.782947 6.9244268 L 61.87655 6.9803528 L 61.969708 7.0360137 L 61.874025 7.1961581 L 61.778341 7.3563025 L 62.02499 7.5036715 L 62.271639 7.6510404 L 62.208026 7.7575076 L 62.144149 7.8644184 L 61.604271 7.54185 L 61.06395 7.2190165 z M 71.167299 -9.6887735 C 71.181831 -9.7152722 71.207262 -9.7521396 71.242959 -9.7982763 L 71.290967 -9.8604909 L 71.524251 -9.8469202 C 71.652587 -9.8395529 71.756145 -9.8385304 71.754679 -9.8446881 C 71.75321 -9.8508079 71.698656 -9.9454612 71.632786 -10.054768 L 71.512598 -10.253596 L 71.572862 -10.349423 C 71.605785 -10.402185 71.637177 -10.446306 71.643048 -10.447748 C 71.648859 -10.449286 71.743903 -10.306679 71.854029 -10.130863 L 72.05438 -9.8112999 L 72.293932 -9.6681717 L 72.533926 -9.5247785 L 72.470049 -9.4178677 L 72.406436 -9.3114006 L 72.181081 -9.446047 C 71.91877 -9.6027735 71.946154 -9.5961597 71.455279 -9.6196479 C 71.298993 -9.6271269 71.164693 -9.6367545 71.157018 -9.6413404 C 71.149193 -9.6460155 71.152767 -9.6622749 71.167299 -9.6887735 z M 65.483262 -0.17247353 C 65.488985 -0.18790187 65.519979 -0.23606718 65.552457 -0.27921693 L 65.611868 -0.35749374 L 65.818619 -0.027484417 L 66.02555 0.30323357 L 66.260221 0.44344614 L 66.494449 0.58339366 L 66.434812 0.68320664 C 66.401945 0.73821574 66.373762 0.78262124 66.371805 0.78160788 C 66.369934 0.78064581 66.263695 0.72039312 66.135728 0.64777888 L 65.902755 0.51580524 L 65.507886 0.4905694 C 65.290695 0.47675498 65.112307 0.46250926 65.11141 0.45895557 C 65.110512 0.45539006 65.143053 0.4046386 65.183608 0.34618015 L 65.257412 0.23978272 L 65.415274 0.25163198 C 65.502003 0.25810154 65.608219 0.26400399 65.651394 0.26448845 L 65.729916 0.26505206 L 65.601386 0.060035698 C 65.513659 -0.079945263 65.476153 -0.1533156 65.483262 -0.17247353 z M 64.328123 1.7860512 L 64.38776 1.6862382 L 64.447661 1.5859816 L 64.881072 1.8449375 L 65.314482 2.1038934 L 65.401949 1.9575011 L 65.489681 1.8106651 L 65.589938 1.8705668 L 65.689751 1.9302036 L 65.542382 2.1768526 L 65.395013 2.4235015 L 64.86179 2.1049089 L 64.328123 1.7860512 z M 70.478922 -8.5084386 L 70.538824 -8.6086952 L 70.598461 -8.7085082 L 71.031871 -8.4495522 L 71.465281 -8.1905963 L 71.553013 -8.3374323 L 71.640746 -8.4842683 L 71.741002 -8.4243665 L 71.840815 -8.3647298 L 71.693181 -8.1176372 L 71.545812 -7.8709882 L 71.012589 -8.1895809 L 70.478922 -8.5084386 z M 62.417373 5.3729436 C 62.367157 5.457419 62.347302 5.5599593 62.373333 5.6632704 C 62.409649 5.8073972 62.538931 5.9399884 62.682333 5.9803285 C 62.827423 6.0211438 62.995431 5.9792349 63.098233 5.8766654 C 63.149814 5.8251957 63.199364 5.7114528 63.207133 5.6268971 C 63.225315 5.4286579 63.059343 5.2245292 62.841967 5.1781584 C 62.667949 5.1410357 62.501067 5.2321513 62.417373 5.3729436 z M 63.617275 3.3707328 C 63.494561 3.5745619 63.557292 3.8044365 63.770749 3.9319734 C 64.055882 4.1023361 64.388397 3.9323859 64.39859 3.6106106 C 64.403685 3.4498716 64.307465 3.3002529 64.148746 3.2217458 C 63.945125 3.1210297 63.731656 3.1807444 63.617275 3.3707328 z M 68.461898 -4.7376308 C 68.372845 -4.5892157 68.377561 -4.4344591 68.47575 -4.2923183 C 68.53449 -4.207283 68.690015 -4.119168 68.800723 -4.1077834 C 69.033168 -4.0838071 69.233368 -4.2576101 69.24278 -4.4919915 C 69.253401 -4.7564774 68.98579 -4.9760329 68.720165 -4.9210299 C 68.596013 -4.8953188 68.527242 -4.8465306 68.461898 -4.7376308 z M 69.653221 -6.7305202 C 69.62237 -6.6797541 69.597756 -6.6250944 69.59251 -6.5886086 C 69.58042 -6.5045037 69.607539 -6.3902824 69.659412 -6.3066407 C 69.722454 -6.2049858 69.867615 -6.1150498 69.985392 -6.1046486 C 70.096075 -6.0948867 70.21478 -6.1303742 70.294077 -6.1971238 C 70.376858 -6.2668096 70.39772 -6.2993598 70.424592 -6.4044809 L 70.424148 -6.404746 C 70.468368 -6.5780134 70.389414 -6.7571511 70.225147 -6.8565397 C 70.067631 -6.9518182 69.885198 -6.9496989 69.751725 -6.8510547 C 69.721 -6.8283496 69.684071 -6.7812863 69.653221 -6.7305202 z "
         transform="rotate(59.142332)" /></g><g
       inkscape:groupmode="layer"
       id="layer4"
       inkscape:label="Margins"><path
         id="rect6"
         style="display:inline;opacity:1;fill:none;stroke:url(#linearGradient27);stroke-width:2.05;stroke-linecap:round;stroke-dasharray:none"
         d="m 5.7150035,95.249997 0,-84.00658 c 0,-3.05759 2.4615257,-5.5191157 5.5191155,-5.5191157 h 36.062909"
         sodipodi:nodetypes="cssc" /><path
         id="path24"
         style="display:inline;opacity:1;fill:none;stroke:url(#linearGradient31);stroke-width:2.05;stroke-linecap:round;stroke-dasharray:none"
         d="m 64.135006,-1.9073487e-7 0,84.01794419073486 c 0,3.05759 -2.461526,5.519116 -5.519115,5.519116 H 22.552979"
         sodipodi:nodetypes="cssc" /></g></g><rect
     style="display:none;fill:none;fill-opacity:1;stroke:#000000;stroke-width:0.2;stroke-linecap:round;stroke-dasharray:2.4, 2.4;stroke-dashoffset:0;stroke-opacity:1"
     id="rect19"
     width="64.376175"
     height="88.900002"
     x="3.1628354"
     y="3.1749985"
     inkscape:label="Working Margin" /><g
     inkscape:groupmode="layer"
     id="layer8"
     inkscape:label="Print Margins"
     style="display:inline"
     transform="translate(-4.8571946,-2.1166667)"><rect
       style="fill:none;fill-opacity:1;stroke:#000000;stroke-width:3.17542;stroke-linecap:round;stroke-dasharray:none;stroke-dashoffset:0;stroke-opacity:1"
       id="rect20"
       width="66.674576"
       height="92.074577"
       x="6.4449048"
       y="3.7043765"
       inkscape:label="margin" /><text
       xml:space="preserve"
       style="font-style:normal;font-variant:normal;font-weight:bold;font-stretch:normal;font-size:2px;line-height:1.59055px;font-family:Helvetica;-inkscape-font-specification:'Helvetica Bold';text-align:center;writing-mode:lr-tb;direction:ltr;text-anchor:middle;display:inline;fill:#ffffff;fill-opacity:1;stroke:none;stroke-width:20;stroke-opacity:0.727963"
       x="60.703354"
       y="4.3587961"
       id="text10-5"
       inkscape:label="margin"><tspan
         sodipodi:role="line"
         id="tspan10-1"
         style="font-style:normal;font-variant:normal;font-weight:bold;font-stretch:normal;font-size:2px;line-height:1.59055px;font-family:Helvetica;-inkscape-font-specification:'Helvetica Bold';fill:#ffffff;fill-opacity:1;stroke-width:20"
         x="60.703354"
         y="4.3587961">PRINT MARGIN (3.175 mm)</tspan></text><text
       xml:space="preserve"
       style="font-style:normal;font-variant:normal;font-weight:bold;font-stretch:normal;font-size:2px;line-height:1.59055px;font-family:Helvetica;-inkscape-font-specification:'Helvetica Bold';text-align:center;writing-mode:lr-tb;direction:ltr;text-anchor:middle;display:inline;fill:#ffffff;fill-opacity:1;stroke:none;stroke-width:20;stroke-opacity:0.727963"
       x="26.237564"
       y="96.600067"
       id="text2"
       inkscape:label="margin"><tspan
         sodipodi:role="line"
         id="tspan2"
         style="font-style:normal;font-variant:normal;font-weight:bold;font-stretch:normal;font-size:2px;line-height:1.59055px;font-family:Helvetica;-inkscape-font-specification:'Helvetica Bold';fill:#ffffff;fill-opacity:1;stroke-width:20"
         x="26.237564"
         y="96.600067">REMOVE BEFORE SENDING TO PRINT</tspan></text></g></svg>
